
        <svg xmlns="http://www.w3.org/2000/svg" xmlns:xlink="http://www.w3.org/1999/xlink" version="1.1" width="3162.0891490319677" height="1376.229987146352" viewBox="0 0 3162.0891490319677 1376.229987146352">
			
			<g transform="scale(8.104457451598378) translate(10, 10)">
				<defs id="SvgjsDefs1266"/><g id="SvgjsG1267" featureKey="e7LhAk-0" transform="matrix(3.7361909356192484,0,0,3.7361909356192484,23.23361608418014,23.689188117725067)" fill="#fff"><g xmlns="http://www.w3.org/2000/svg" transform="matrix(.93813 0 0 .93843 -33.311 .092397)" stroke-width="1.0658"><g transform="matrix(.17328 .17322 -.17328 .17322 -877.94 -4124.9)" stroke-width="1.2266"><g transform="matrix(.62042 -.62042 .61978 .61978 28.093 13202)" stroke-width="1.6098"><path d="m14959 8559.6c-3.193 0-6.031 1.6194-7.745 4.0697-1.309 0.023-2.621 0.035-3.945 0.1472-7.77 0.6593-15.719 2.785-23.237 5.7916-15.031 6.0129-28.417 15.525-35.302 25.296l-0.01 0.024-0.03 0.034c-4.466 6.6861-5.182 14.012-3.517 20.611-2.102 3.1209-4.4 6.3837-5.778 8.9333-2.599 4.5451-2.639 9.8271-0.446 13.981 2.19 4.1561 6.792 7.1012 12.436 6.8775h50.237v-5.7154h-50.466c-3.667 0.1452-5.897-1.4723-7.141-3.8358-1.131-2.144-1.304-4.9701-0.08-7.6484 2.962-4.8806 6.301-10.09 9.549-14.396 3.392-4.4311 7.347-8.8532 12.345-12.802l0.01-0.01c10.025-7.5633 17.149-10.022 21.236-9.9771 0.582 0.01 1.104 0.056 1.563 0.1577 1.84 0.405 2.877 1.281 3.698 2.7736 0.814 1.4927 1.261 3.7144 1.139 6.3412-0.239 5.2533-2.76 11.961-6.972 17.178-4.212 5.2091-9.924 8.883-16.701 9.0674-8.587 0.068-14.115-2.6989-17.239-6.7197l-2.928 4.3563c4.361 4.8917 11.062 8.1831 20.238 8.1025h0.04c8.787-0.2263 16.033-5.0292 21.026-11.207 4.993-6.1781 7.929-13.753 8.243-20.522 0.157-3.3843-0.347-6.6172-1.843-9.3487-1.496-2.7319-4.136-4.8659-7.485-5.6024-6.694-1.473-15.433 1.7366-27.525 10.871l-0.03 0.01-0.01 0.024c-5.015 3.962-9.022 8.4648-12.58 12.882 0.187-3.6171 1.229-7.4039 3.732-11.16 5.847-8.2804 18.569-17.606 32.71-23.262 7.712-3.0849 15.798-5.0212 23.416-5.413 0.279 4.9238 4.4 8.8676 9.396 8.8676 3.943 0 7.362-2.4586 8.769-5.9153 6.626 3.3433 10.99 8.3171 11.441 10.871v0.01c0.196 1.1057-0.278 2.4614-1.944 4.506-1.67 2.0448-4.365 4.4606-7.409 7.2035-6.083 5.4852-13.644 12.365-17.428 22.186-3.577 9.2886-1.85 16.869 2.616 21.584 4.465 4.7147 11.025 6.6539 16.947 6.8117l0.156-5.7259c-4.719-0.126-9.94-1.8443-12.948-5.0214-3.009-3.1772-4.449-7.7252-1.418-15.6 3.174-8.2451 9.87-14.538 15.91-19.986 3.02-2.7245 5.866-5.2149 8.007-7.8396s3.75-5.7021 3.141-9.1253c-1.108-6.2571-7.221-11.617-15.306-15.443l-0.04-0.024-0.06-0.01c-0.45-0.1913-0.928-0.308-1.384-0.4812-1.158-3.8967-4.785-6.7739-9.041-6.7775zm0 5.7154c2.115 0 3.741 1.6363 3.741 3.678 0 2.0416-1.626 3.6569-3.741 3.6569-2.11 0-3.723-1.6153-3.723-3.6569 0-2.0417 1.613-3.678 3.723-3.678z" color="" color-rendering="auto" dominant-baseline="auto" image-rendering="auto" shape-rendering="auto" solid-color="" stop-color="" style="font-feature-settings:normal;font-variant-alternates:normal;font-variant-caps:normal;font-variant-east-asian:normal;font-variant-ligatures:normal;font-variant-numeric:normal;font-variant-position:normal;font-variation-settings:normal;inline-size:0;isolation:auto;mix-blend-mode:normal;shape-margin:0;shape-padding:0;text-decoration-color:;text-decoration-line:none;text-decoration-style:solid;text-indent:0;text-orientation:mixed;text-transform:none;white-space:normal;"/></g></g></g></g><g id="SvgjsG1268" featureKey="Qg0WB5-0" transform="matrix(3.616129227468891,0,0,3.616129227468891,163.10709765260776,16.303224635186652)" fill="#fff"><path d="M0.8 20 l0 -14 l2.2 0 l0 12 l3.62 0 l0 2 l-5.82 0 z M9.780000000000001 8 l0 3.9 l3.02 0 l0 2 l-3.02 0 l0 4.1 l3.8 0 l0 2 l-6 0 l0 -14 l6 0 l0 2 l-3.8 0 z M19.82 6 l2.24 14 l-2.22 0 l-0.38 -2.54 l-2.7 0 l-0.38 2.54 l-2.02 0 l2.24 -14 l3.22 0 z M18.080000000000002 8.48 l-1.04 7.08 l2.12 0 l-1.04 -7.08 l-0.04 0 z M27.78 20 l-2.7 -10.14 l-0.04 0 l0 10.14 l-1.98 0 l0 -14 l2.76 0 l2.22 8.38 l0.04 0 l0 -8.38 l1.96 0 l0 14 l-2.26 0 z M34.72 20 l0 -14 l3.48 0 c2.2 0 3.28 1.22 3.28 3.46 l0 7.08 c0 2.24 -1.08 3.46 -3.28 3.46 l-3.48 0 z M38.160000000000004 8 l-1.24 0 l0 10 l1.24 0 c0.7 0 1.12 -0.36 1.12 -1.36 l0 -7.28 c0 -1 -0.42 -1.36 -1.12 -1.36 z M45.08 8 l0 3.9 l3.02 0 l0 2 l-3.02 0 l0 4.1 l3.8 0 l0 2 l-6 0 l0 -14 l6 0 l0 2 l-3.8 0 z M51.879999999999995 6 l1.66 11.42 l0.04 0 l1.66 -11.42 l2.02 0 l-2.16 14 l-3.28 0 l-2.16 -14 l2.22 0 z"/></g><g id="SvgjsG1269" featureKey="sloganFeature-0" transform="matrix(0.6621987006271882,0,0,0.6621987006271882,165.7748526565042,95.51683499889668)" fill="#fff"><path d="M0.34 15.379999999999999 l1.82 0 l0 1 c0 1.72 0.82 2.34 2.16 2.34 c1.8 0 2.3 -1.08 2.3 -2.48 l0 -10.6 l1.94 0 l0 10.48 c0 3.36 -2.2 4.26 -4.14 4.26 c-3.34 0 -4.08 -2.24 -4.08 -3.58 l0 -1.42 z M20.939999999999998 5.640000000000001 l1.94 0 l0 9.32 c0 2.94 -1.84 5.42 -5.78 5.42 c-3.86 0 -5.52 -2.48 -5.52 -5.16 l0 -9.58 l1.94 0 l0 9.04 c0 3.12 1.9 3.98 3.64 3.98 c1.78 0 3.78 -0.82 3.78 -3.94 l0 -9.08 z M39.66 20 l-1.88 0 l0 -8.48 c0 -0.42 0.04 -2.24 0.04 -3.58 l-0.04 0 l-4.04 12.06 l-1.92 0 l-4.04 -12.04 l-0.04 0 c0 1.32 0.04 3.14 0.04 3.56 l0 8.48 l-1.88 0 l0 -14.36 l2.78 0 l4.1 12.14 l0.04 0 l4.08 -12.14 l2.76 0 l0 14.36 z M44.75999999999999 7.300000000000001 l0 4.98 l3.86 0 c1.74 0 2.92 -0.64 2.92 -2.58 c0 -1.82 -1.24 -2.4 -2.84 -2.4 l-3.94 0 z M44.75999999999999 13.940000000000001 l0 6.06 l-1.94 0 l0 -14.36 l6.46 0 c2.66 0 4.26 1.72 4.26 4.04 c0 2 -1.14 4.26 -4.26 4.26 l-4.52 0 z M66.44 9.84 l-1.82 0 c-0.1 -2.22 -1.94 -2.92 -3.56 -2.92 c-1.22 0 -3.28 0.34 -3.28 2.52 c0 1.22 0.86 1.62 1.7 1.82 l4.1 0.94 c1.86 0.44 3.26 1.56 3.26 3.84 c0 3.4 -3.16 4.34 -5.62 4.34 c-2.66 0 -3.7 -0.8 -4.34 -1.38 c-1.22 -1.1 -1.46 -2.3 -1.46 -3.64 l1.82 0 c0 2.6 2.12 3.36 3.96 3.36 c1.4 0 3.76 -0.36 3.76 -2.42 c0 -1.5 -0.7 -1.98 -3.06 -2.54 l-2.94 -0.68 c-0.94 -0.22 -3.06 -0.88 -3.06 -3.38 c0 -2.24 1.46 -4.44 4.94 -4.44 c5.02 0 5.52 3 5.6 4.58 z M68.06 7.359999999999999 l0 -1.72 l11.66 0 l0 1.72 l-4.86 0 l0 12.64 l-1.94 0 l0 -12.64 l-4.86 0 z M89.53999999999999 15.82 l-5.76 0 l-1.5 4.18 l-2 0 l5.4 -14.36 l2.2 0 l5.2 14.36 l-2.12 0 z M84.38 14.1 l4.46 0 l-2.12 -6.32 l-0.04 0 z M97.04 13.84 l0 6.16 l-1.94 0 l0 -14.36 l6.64 0 c2.36 0 4.72 0.82 4.72 3.86 c0 2.12 -1.08 2.9 -2 3.44 c0.82 0.34 1.64 0.7 1.72 2.7 l0.12 2.6 c0.02 0.8 0.12 1.1 0.72 1.44 l0 0.32 l-2.38 0 c-0.28 -0.88 -0.34 -3.06 -0.34 -3.6 c0 -1.18 -0.24 -2.56 -2.56 -2.56 l-4.7 0 z M97.04 7.300000000000001 l0 4.88 l4.5 0 c1.42 0 2.92 -0.36 2.92 -2.48 c0 -2.22 -1.62 -2.4 -2.58 -2.4 l-4.84 0 z M108.06 7.359999999999999 l0 -1.72 l11.66 0 l0 1.72 l-4.86 0 l0 12.64 l-1.94 0 l0 -12.64 l-4.86 0 z M131.4 14.219999999999999 l0 5.78 l-1.94 0 l0 -5.78 l-5.42 -8.58 l2.26 0 l4.12 6.9 l4.12 -6.9 l2.28 0 z M149.88 12.82 c0 -3.38 -1.88 -5.84 -5 -5.84 s-5 2.46 -5 5.84 s1.88 5.84 5 5.84 s5 -2.46 5 -5.84 z M151.88 12.82 c0 3.1 -1.64 7.56 -7 7.56 s-7 -4.46 -7 -7.56 s1.64 -7.56 7 -7.56 s7 4.46 7 7.56 z M163.6 5.640000000000001 l1.94 0 l0 9.32 c0 2.94 -1.84 5.42 -5.78 5.42 c-3.86 0 -5.52 -2.48 -5.52 -5.16 l0 -9.58 l1.94 0 l0 9.04 c0 3.12 1.9 3.98 3.64 3.98 c1.78 0 3.78 -0.82 3.78 -3.94 l0 -9.08 z M170.79999999999998 13.84 l0 6.16 l-1.94 0 l0 -14.36 l6.64 0 c2.36 0 4.72 0.82 4.72 3.86 c0 2.12 -1.08 2.9 -2 3.44 c0.82 0.34 1.64 0.7 1.72 2.7 l0.12 2.6 c0.02 0.8 0.12 1.1 0.72 1.44 l0 0.32 l-2.38 0 c-0.28 -0.88 -0.34 -3.06 -0.34 -3.6 c0 -1.18 -0.24 -2.56 -2.56 -2.56 l-4.7 0 z M170.79999999999998 7.300000000000001 l0 4.88 l4.5 0 c1.42 0 2.92 -0.36 2.92 -2.48 c0 -2.22 -1.62 -2.4 -2.58 -2.4 l-4.84 0 z M199.42 18.28 l0 1.72 l-10.6 0 l0 -14.36 l10.46 0 l0 1.72 l-8.52 0 l0 4.4 l7.86 0 l0 1.72 l-7.86 0 l0 4.8 l8.66 0 z M204.1 13.48 l0 6.52 l-1.94 0 l0 -14.36 l9.94 0 l0 1.72 l-8 0 l0 4.4 l7.04 0 l0 1.72 l-7.04 0 z M216.32 13.48 l0 6.52 l-1.94 0 l0 -14.36 l9.94 0 l0 1.72 l-8 0 l0 4.4 l7.04 0 l0 1.72 l-7.04 0 z M228.64 5.640000000000001 l0 14.36 l-1.94 0 l0 -14.36 l1.94 0 z M243.92 9.96 l-1.88 0 c-0.54 -2.52 -2.64 -2.98 -4.02 -2.98 c-2.6 0 -4.7 1.92 -4.7 5.7 c0 3.38 1.2 5.98 4.76 5.98 c1.26 0 3.44 -0.6 4.1 -3.94 l1.88 0 c-0.8 5.42 -5.2 5.66 -6.28 5.66 c-3.26 0 -6.46 -2.12 -6.46 -7.64 c0 -4.42 2.52 -7.48 6.7 -7.48 c3.7 0 5.62 2.3 5.9 4.7 z M248.64 5.640000000000001 l0 14.36 l-1.94 0 l0 -14.36 l1.94 0 z M262.76 18.28 l0 1.72 l-10.6 0 l0 -14.36 l10.46 0 l0 1.72 l-8.52 0 l0 4.4 l7.86 0 l0 1.72 l-7.86 0 l0 4.8 l8.66 0 z M274.82 17.240000000000002 l0 -11.6 l1.88 0 l0 14.36 l-2.18 0 l-7.3 -11.6 l-0.04 0 l0 11.6 l-1.88 0 l0 -14.36 l2.3 0 l7.18 11.6 l0.04 0 z M291.7 9.96 l-1.88 0 c-0.54 -2.52 -2.64 -2.98 -4.02 -2.98 c-2.6 0 -4.7 1.92 -4.7 5.7 c0 3.38 1.2 5.98 4.76 5.98 c1.26 0 3.44 -0.6 4.1 -3.94 l1.88 0 c-0.8 5.42 -5.2 5.66 -6.28 5.66 c-3.26 0 -6.46 -2.12 -6.46 -7.64 c0 -4.42 2.52 -7.48 6.7 -7.48 c3.7 0 5.62 2.3 5.9 4.7 z M300.29999999999995 14.219999999999999 l0 5.78 l-1.94 0 l0 -5.78 l-5.42 -8.58 l2.26 0 l4.12 6.9 l4.12 -6.9 l2.28 0 z"/></g>
			</g>
		</svg>
	