<svg xmlns="http://www.w3.org/2000/svg" version="1.1" xmlns:xlink="http://www.w3.org/1999/xlink" xmlns:svgjs="http://svgjs.dev/svgjs" width="2000" height="1000" preserveAspectRatio="none" viewBox="0 0 2000 1000"><g mask="url(&quot;#SvgjsMask1438&quot;)" fill="none"><rect width="2000" height="1000" x="0" y="0" fill="url(&quot;#SvgjsLinearGradient1439&quot;)"></rect><path d="M2000 0L1931 0L2000 303.25z" fill="rgba(255, 255, 255, .1)"></path><path d="M1931 0L2000 303.25L2000 428.48L1038.75 0z" fill="rgba(255, 255, 255, .075)"></path><path d="M1038.75 0L2000 428.48L2000 650.1700000000001L1013.92 0z" fill="rgba(255, 255, 255, .05)"></path><path d="M1013.92 0L2000 650.1700000000001L2000 685.9000000000001L623.68 0z" fill="rgba(255, 255, 255, .025)"></path><path d="M0 1000L237.36 1000L0 858.12z" fill="rgba(0, 0, 0, .1)"></path><path d="M0 858.12L237.36 1000L995.8100000000001 1000L0 439.41z" fill="rgba(0, 0, 0, .075)"></path><path d="M0 439.4100000000001L995.8100000000001 1000L1031.49 1000L0 424.80000000000007z" fill="rgba(0, 0, 0, .05)"></path><path d="M0 424.80000000000007L1031.49 1000L1503.65 1000L0 217.38000000000008z" fill="rgba(0, 0, 0, .025)"></path></g><defs><mask id="SvgjsMask1438"><rect width="2000" height="1000" fill="#ffffff"></rect></mask><linearGradient x1="12.5%" y1="-25%" x2="87.5%" y2="125%" gradientUnits="userSpaceOnUse" id="SvgjsLinearGradient1439"><stop stop-color="rgba(244, 253, 242, 1)" offset="0.39"></stop><stop stop-color="rgba(244, 253, 242, 1)" offset="1"></stop></linearGradient></defs></svg>