<svg xmlns="http://www.w3.org/2000/svg" version="1.1" xmlns:xlink="http://www.w3.org/1999/xlink" xmlns:svgjs="http://svgjs.dev/svgjs" width="2000" height="1000" preserveAspectRatio="none" viewBox="0 0 2000 1000"><g mask="url(&quot;#SvgjsMask1032&quot;)" fill="none"><rect width="2000" height="1000" x="0" y="0" fill="rgba(244, 253, 242, 1)"></rect><path d="M 0,526 C 133.4,487 400.2,300.6 667,331 C 933.8,361.4 1067.4,709.2 1334,678 C 1600.6,646.8 1866.8,275.6 2000,175L2000 1000L0 1000z" fill="rgba(144, 196, 73, 0.5)"></path><path d="M 0,248 C 80,354.6 240,735.2 400,781 C 560,826.8 640,519.4 800,477 C 960,434.6 1040,636 1200,569 C 1360,502 1440,115.4 1600,142 C 1760,168.6 1920,590 2000,702L2000 1000L0 1000z" fill="rgba(176, 213, 114, 0.27)"></path></g><defs><mask id="SvgjsMask1032"><rect width="2000" height="1000" fill="#ffffff"></rect></mask></defs></svg>