<svg xmlns="http://www.w3.org/2000/svg" version="1.1" xmlns:xlink="http://www.w3.org/1999/xlink" xmlns:svgjs="http://svgjs.dev/svgjs" width="1440" height="1000" preserveAspectRatio="none" viewBox="0 0 1440 1000"><g mask="url(&quot;#SvgjsMask1136&quot;)" fill="none"><rect width="1440" height="1000" x="0" y="0" fill="rgba(244, 253, 242, 1)"></rect><path d="M -98.56648710312277,387 C -2.57,463 189.43,762.6 381.43351289687723,767 C 573.43,771.4 669.43,402.6 861.4335128968772,409 C 1053.43,415.4 1149.43,797.2 1341.4335128968773,799 C 1533.43,800.8 1801.72,453.8 1821.4335128968773,418 C 1841.15,382.2 1516.29,579.6 1440,620" stroke="rgba(176, 213, 114, 0.73)" stroke-width="2"></path><path d="M -900.7793263894976,841 C -804.78,749.2 -612.78,404.4 -420.77932638949756,382 C -228.78,359.6 -132.78,760.4 59.220673610502445,729 C 251.22,697.6 347.22,217.6 539.2206736105024,225 C 731.22,232.4 839.06,758.4 1019.2206736105024,766 C 1199.38,773.6 1355.84,363.6 1440,263" stroke="rgba(176, 213, 114, 0.73)" stroke-width="2"></path><path d="M -590.9997385048872,247 C -495,299.2 -303,481.4 -110.99973850488716,508 C 81,534.6 177,332.6 369.00026149511285,380 C 561,427.4 657,741 849.0002614951128,745 C 1041,749 1210.8,404.2 1329.000261495113,400 C 1447.2,395.8 1417.8,659.2 1440,724" stroke="rgba(176, 213, 114, 0.73)" stroke-width="2"></path></g><defs><mask id="SvgjsMask1136"><rect width="1440" height="1000" fill="#ffffff"></rect></mask></defs></svg>