<svg xmlns="http://www.w3.org/2000/svg" xmlns:xlink="http://www.w3.org/1999/xlink" width="917" zoomAndPan="magnify" viewBox="0 0 687.75 171.000002" height="228" preserveAspectRatio="xMidYMid meet" version="1.0"><defs><g/><clipPath id="440618061e"><path d="M 1.875 0 L 171.46875 0 L 171.46875 169.59375 L 1.875 169.59375 Z M 1.875 0 " clip-rule="nonzero"/></clipPath><clipPath id="9a164818b8"><path d="M 86.671875 0 C 39.839844 0 1.875 37.964844 1.875 84.796875 C 1.875 131.628906 39.839844 169.59375 86.671875 169.59375 C 133.503906 169.59375 171.46875 131.628906 171.46875 84.796875 C 171.46875 37.964844 133.503906 0 86.671875 0 Z M 86.671875 0 " clip-rule="nonzero"/></clipPath><clipPath id="d32ca2d0db"><path d="M 34.914062 16.253906 L 138.554688 16.253906 L 138.554688 153.453125 L 34.914062 153.453125 Z M 34.914062 16.253906 " clip-rule="nonzero"/></clipPath></defs><g clip-path="url(#440618061e)"><g clip-path="url(#9a164818b8)"><path fill="#fcce0b" d="M 1.875 0 L 171.46875 0 L 171.46875 169.59375 L 1.875 169.59375 Z M 1.875 0 " fill-opacity="1" fill-rule="nonzero"/></g></g><g clip-path="url(#d32ca2d0db)"><path fill="#ffffff" d="M 34.933594 83.246094 C 34.933594 76.261719 36.304688 69.488281 39 63.105469 C 41.609375 56.945312 45.339844 51.410156 50.089844 46.660156 C 54.839844 41.910156 60.375 38.179688 66.535156 35.574219 C 72.917969 32.875 79.691406 31.503906 86.675781 31.503906 C 91.835938 31.503906 96.917969 32.261719 101.800781 33.753906 L 114.082031 17.464844 C 114.84375 16.453125 116.285156 16.25 117.296875 17.015625 C 118.308594 17.777344 118.511719 19.21875 117.75 20.230469 L 85.089844 63.546875 C 84.984375 63.6875 84.867188 63.8125 84.738281 63.921875 C 87.992188 67.667969 88.3125 73.320312 85.203125 77.441406 L 79.09375 85.542969 C 75.527344 90.277344 68.769531 91.226562 64.035156 87.65625 C 59.300781 84.085938 58.355469 77.332031 61.921875 72.597656 C 61.953125 72.558594 61.980469 72.523438 62.011719 72.488281 C 62.035156 72.453125 62.0625 72.410156 62.089844 72.375 L 68.03125 64.496094 C 71.136719 60.375 76.660156 59.125 81.160156 61.222656 C 81.230469 61.070312 81.316406 60.921875 81.421875 60.78125 L 99.023438 37.441406 C 95.015625 36.363281 90.875 35.816406 86.675781 35.816406 C 60.523438 35.816406 39.246094 57.09375 39.246094 83.246094 C 39.246094 97.636719 45.667969 111.082031 56.871094 120.144531 C 57.796875 120.890625 57.9375 122.25 57.191406 123.175781 C 56.765625 123.703125 56.140625 123.976562 55.511719 123.976562 C 55.035156 123.976562 54.558594 123.820312 54.15625 123.496094 C 41.941406 113.613281 34.933594 98.945312 34.933594 83.246094 Z M 82.371094 99.332031 C 83.445312 97.910156 85.011719 96.988281 86.78125 96.738281 C 87.101562 96.695312 87.414062 96.671875 87.730469 96.671875 C 89.171875 96.671875 90.570312 97.136719 91.738281 98.019531 C 93.164062 99.09375 94.085938 100.660156 94.332031 102.429688 C 94.582031 104.203125 94.128906 105.964844 93.054688 107.386719 C 91.980469 108.8125 90.414062 109.734375 88.640625 109.980469 C 86.871094 110.230469 85.109375 109.773438 83.683594 108.699219 C 82.261719 107.628906 81.339844 106.0625 81.089844 104.289062 C 80.84375 102.515625 81.296875 100.757812 82.371094 99.332031 Z M 132.0625 108.113281 C 136.222656 100.53125 138.417969 91.949219 138.417969 83.246094 C 138.417969 66.078125 129.925781 50.0625 115.703125 40.40625 C 114.714844 39.738281 113.375 39.992188 112.707031 40.976562 C 112.039062 41.964844 112.292969 43.304688 113.28125 43.972656 C 126.324219 52.824219 134.109375 67.507812 134.109375 83.246094 C 134.109375 91.457031 131.976562 99.542969 127.949219 106.636719 C 127.710938 107.058594 127.621094 107.542969 127.691406 108.015625 L 132.347656 139.738281 L 105.34375 127.585938 C 104.816406 127.347656 104.222656 127.332031 103.683594 127.539062 C 98.261719 129.621094 92.539062 130.679688 86.675781 130.679688 C 81.523438 130.679688 76.484375 129.863281 71.664062 128.253906 L 83.332031 112.777344 C 85.378906 113.726562 87.699219 113.984375 89.921875 113.503906 C 92.351562 112.976562 94.511719 111.59375 96.003906 109.613281 L 110.136719 90.867188 C 110.75 90.054688 110.585938 88.894531 109.773438 88.28125 C 108.960938 87.667969 107.800781 87.828125 107.1875 88.640625 L 97.832031 101.050781 C 97.429688 99.28125 96.570312 97.644531 95.339844 96.3125 L 103.320312 85.726562 C 103.933594 84.914062 103.769531 83.753906 102.957031 83.140625 C 102.5625 82.84375 102.078125 82.71875 101.585938 82.785156 C 101.101562 82.855469 100.667969 83.109375 100.371094 83.503906 L 92.390625 94.085938 C 90.769531 93.269531 88.960938 92.894531 87.148438 92.996094 L 96.503906 80.589844 C 96.800781 80.195312 96.925781 79.707031 96.859375 79.21875 C 96.789062 78.730469 96.535156 78.296875 96.140625 78 C 95.746094 77.703125 95.261719 77.578125 94.773438 77.644531 C 94.28125 77.714844 93.847656 77.96875 93.550781 78.363281 L 79.421875 97.109375 C 77.925781 99.089844 77.191406 101.546875 77.351562 104.027344 C 77.5 106.296875 78.386719 108.457031 79.863281 110.160156 L 66.933594 127.3125 C 66.523438 127.542969 66.179688 127.90625 65.988281 128.378906 C 65.949219 128.480469 65.917969 128.585938 65.890625 128.691406 L 50.191406 149.515625 C 49.777344 150.066406 49.550781 150.710938 49.550781 151.332031 C 49.550781 152.007812 49.828125 152.605469 50.308594 152.96875 C 50.640625 153.214844 51.035156 153.335938 51.449219 153.335938 C 52.230469 153.335938 53.078125 152.90625 53.660156 152.132812 L 68.9375 131.867188 C 74.609375 133.941406 80.570312 134.988281 86.675781 134.988281 C 92.765625 134.988281 98.71875 133.945312 104.382812 131.878906 L 134.164062 145.285156 C 134.449219 145.410156 134.75 145.472656 135.050781 145.472656 C 135.511719 145.472656 135.96875 145.324219 136.347656 145.039062 C 136.976562 144.5625 137.296875 143.785156 137.183594 143.003906 L 132.0625 108.113281 " fill-opacity="1" fill-rule="nonzero"/></g><g fill="#47210c" fill-opacity="1"><g transform="translate(201.287117, 111.871677)"><g><path d="M 50.171875 0 L 37.53125 0 L 37.53125 -21.578125 L 18.890625 -21.578125 L 18.890625 0 L 6.25 0 L 6.25 -48.984375 L 18.890625 -48.984375 L 18.890625 -31.0625 L 37.53125 -31.0625 L 37.53125 -48.984375 L 50.171875 -48.984375 Z M 50.171875 0 "/></g></g></g><g fill="#47210c" fill-opacity="1"><g transform="translate(257.709989, 111.871677)"><g><path d="M 28.625 1.015625 C 20.726562 1.015625 14.546875 -1.28125 10.078125 -5.875 C 5.617188 -10.46875 3.390625 -16.664062 3.390625 -24.46875 C 3.390625 -32.320312 5.625 -38.539062 10.09375 -43.125 C 14.570312 -47.707031 20.75 -50 28.625 -50 C 36.425781 -50 42.585938 -47.71875 47.109375 -43.15625 C 51.628906 -38.59375 53.890625 -32.363281 53.890625 -24.46875 C 53.890625 -16.664062 51.65625 -10.46875 47.1875 -5.875 C 42.726562 -1.28125 36.539062 1.015625 28.625 1.015625 Z M 40.765625 -24.515625 C 40.765625 -29.753906 39.65625 -33.769531 37.4375 -36.5625 C 35.21875 -39.363281 32.289062 -40.765625 28.65625 -40.765625 C 24.925781 -40.765625 21.96875 -39.347656 19.78125 -36.515625 C 17.601562 -33.679688 16.515625 -29.664062 16.515625 -24.46875 C 16.515625 -19.269531 17.609375 -15.257812 19.796875 -12.4375 C 21.992188 -9.625 24.945312 -8.21875 28.65625 -8.21875 C 32.226562 -8.21875 35.140625 -9.597656 37.390625 -12.359375 C 39.640625 -15.128906 40.765625 -19.179688 40.765625 -24.515625 Z M 40.765625 -24.515625 "/></g></g></g><g fill="#47210c" fill-opacity="1"><g transform="translate(314.988252, 111.871677)"><g><path d="M 57.609375 0 L 45.03125 0 L 45.03125 -32.796875 L 35.953125 -11.515625 L 27.234375 -11.515625 L 18.15625 -32.796875 L 18.15625 0 L 6.25 0 L 6.25 -48.984375 L 20.921875 -48.984375 L 31.9375 -24.40625 L 42.9375 -48.984375 L 57.609375 -48.984375 Z M 57.609375 0 "/></g></g></g><g fill="#47210c" fill-opacity="1"><g transform="translate(378.846439, 111.871677)"><g><path d="M 41.6875 0 L 6.25 0 L 6.25 -48.984375 L 41.6875 -48.984375 L 41.6875 -39.515625 L 18.8125 -39.515625 L 18.8125 -31.0625 L 40.03125 -31.0625 L 40.03125 -21.578125 L 18.8125 -21.578125 L 18.8125 -9.46875 L 41.6875 -9.46875 Z M 41.6875 0 "/></g></g></g><g fill="#47210c" fill-opacity="1"><g transform="translate(424.87303, 111.871677)"><g><path d="M 18.890625 -15.953125 L 18.890625 0 L 6.25 0 L 6.25 -48.984375 L 27.046875 -48.984375 C 33.554688 -48.984375 38.457031 -47.632812 41.75 -44.9375 C 45.039062 -42.238281 46.6875 -38.429688 46.6875 -33.515625 C 46.6875 -28.429688 44.894531 -24.234375 41.3125 -20.921875 C 37.738281 -17.609375 32.882812 -15.953125 26.75 -15.953125 Z M 18.890625 -39.84375 L 18.890625 -25.171875 L 22.5 -25.171875 C 27.0625 -25.171875 30.054688 -25.847656 31.484375 -27.203125 C 32.910156 -28.566406 33.625 -30.578125 33.625 -33.234375 C 33.625 -34.847656 33.128906 -36.1875 32.140625 -37.25 C 31.148438 -38.320312 29.976562 -39.019531 28.625 -39.34375 C 27.28125 -39.675781 24.757812 -39.84375 21.0625 -39.84375 Z M 18.890625 -39.84375 "/></g></g></g><g fill="#47210c" fill-opacity="1"><g transform="translate(474.255383, 111.871677)"><g><path d="M 41.578125 0 L 6.25 0 L 6.25 -48.984375 L 18.890625 -48.984375 L 18.890625 -9.46875 L 41.578125 -9.46875 Z M 41.578125 0 "/></g></g></g><g fill="#47210c" fill-opacity="1"><g transform="translate(517.189408, 111.871677)"><g><path d="M 51.515625 0 L 38.453125 0 L 35.0625 -9.90625 L 16.90625 -9.90625 L 13.515625 0 L 0.796875 0 L 18.890625 -48.984375 L 33.421875 -48.984375 Z M 32.015625 -18.890625 L 25.984375 -36.453125 L 19.96875 -18.890625 Z M 32.015625 -18.890625 "/></g></g></g><g fill="#47210c" fill-opacity="1"><g transform="translate(569.499812, 111.871677)"><g><path d="M 44.578125 -39.515625 L 29.28125 -39.515625 L 29.28125 0 L 16.640625 0 L 16.640625 -39.515625 L 1.34375 -39.515625 L 1.34375 -48.984375 L 44.578125 -48.984375 Z M 44.578125 -39.515625 "/></g></g></g><g fill="#47210c" fill-opacity="1"><g transform="translate(615.427689, 111.871677)"><g><path d="M 41.6875 0 L 6.25 0 L 6.25 -48.984375 L 41.6875 -48.984375 L 41.6875 -39.515625 L 18.8125 -39.515625 L 18.8125 -31.0625 L 40.03125 -31.0625 L 40.03125 -21.578125 L 18.8125 -21.578125 L 18.8125 -9.46875 L 41.6875 -9.46875 Z M 41.6875 0 "/></g></g></g></svg>