<svg xmlns="http://www.w3.org/2000/svg" xmlns:xlink="http://www.w3.org/1999/xlink" width="406" zoomAndPan="magnify" viewBox="0 0 304.5 299.25" height="399" preserveAspectRatio="xMidYMid meet" version="1.0"><defs><g/><clipPath id="2aec433dbf"><path d="M 65.945312 46.257812 L 236.101562 46.257812 L 236.101562 216.417969 L 65.945312 216.417969 Z M 65.945312 46.257812 " clip-rule="nonzero"/></clipPath><clipPath id="7303cba645"><path d="M 151.023438 46.257812 C 104.035156 46.257812 65.945312 84.351562 65.945312 131.335938 C 65.945312 178.324219 104.035156 216.417969 151.023438 216.417969 C 198.011719 216.417969 236.101562 178.324219 236.101562 131.335938 C 236.101562 84.351562 198.011719 46.257812 151.023438 46.257812 Z M 151.023438 46.257812 " clip-rule="nonzero"/></clipPath><clipPath id="dd165a20e6"><path d="M 99.09375 62.566406 L 203 62.566406 L 203 200.222656 L 99.09375 200.222656 Z M 99.09375 62.566406 " clip-rule="nonzero"/></clipPath><clipPath id="bfeb232ea9"><path d="M 260.671875 0 L 303.414062 0 L 303.414062 42.742188 L 260.671875 42.742188 Z M 260.671875 0 " clip-rule="nonzero"/></clipPath><clipPath id="1b7f504d47"><path d="M 260.671875 255.347656 L 303.414062 255.347656 L 303.414062 298.089844 L 260.671875 298.089844 Z M 260.671875 255.347656 " clip-rule="nonzero"/></clipPath><clipPath id="ba9020e7e0"><path d="M 0.132812 255.347656 L 42.875 255.347656 L 42.875 298.089844 L 0.132812 298.089844 Z M 0.132812 255.347656 " clip-rule="nonzero"/></clipPath><clipPath id="500820ebda"><path d="M 2.839844 0 L 45.582031 0 L 45.582031 42.742188 L 2.839844 42.742188 Z M 2.839844 0 " clip-rule="nonzero"/></clipPath></defs><g clip-path="url(#2aec433dbf)"><g clip-path="url(#7303cba645)"><path fill="#fcce0b" d="M 65.945312 46.257812 L 236.101562 46.257812 L 236.101562 216.417969 L 65.945312 216.417969 Z M 65.945312 46.257812 " fill-opacity="1" fill-rule="nonzero"/></g></g><g clip-path="url(#dd165a20e6)"><path fill="#ffffff" d="M 99.113281 129.785156 C 99.113281 122.777344 100.488281 115.976562 103.195312 109.574219 C 105.8125 103.394531 109.554688 97.839844 114.320312 93.074219 C 119.085938 88.308594 124.640625 84.566406 130.820312 81.949219 C 137.222656 79.242188 144.023438 77.871094 151.03125 77.871094 C 156.207031 77.871094 161.304688 78.628906 166.203125 80.125 L 178.527344 63.78125 C 179.289062 62.765625 180.734375 62.5625 181.753906 63.332031 C 182.769531 64.097656 182.972656 65.542969 182.203125 66.558594 L 149.4375 110.019531 C 149.332031 110.15625 149.210938 110.28125 149.082031 110.390625 C 152.351562 114.152344 152.667969 119.824219 149.550781 123.960938 L 143.421875 132.089844 C 139.839844 136.839844 133.0625 137.789062 128.3125 134.207031 C 123.5625 130.628906 122.613281 123.847656 126.195312 119.097656 C 126.222656 119.0625 126.25 119.027344 126.285156 118.992188 C 126.308594 118.953125 126.332031 118.914062 126.363281 118.875 L 132.320312 110.96875 C 135.441406 106.835938 140.980469 105.582031 145.496094 107.6875 C 145.566406 107.53125 145.652344 107.382812 145.757812 107.242188 L 163.414062 83.824219 C 159.394531 82.742188 155.242188 82.195312 151.03125 82.195312 C 124.789062 82.195312 103.441406 103.542969 103.441406 129.785156 C 103.441406 144.21875 109.886719 157.714844 121.125 166.804688 C 122.050781 167.554688 122.195312 168.917969 121.445312 169.84375 C 121.015625 170.375 120.390625 170.648438 119.761719 170.648438 C 119.285156 170.648438 118.804688 170.492188 118.402344 170.164062 C 106.144531 160.253906 99.113281 145.53125 99.113281 129.785156 Z M 146.710938 145.921875 C 147.785156 144.492188 149.359375 143.570312 151.136719 143.320312 C 151.453125 143.277344 151.769531 143.253906 152.085938 143.253906 C 153.535156 143.253906 154.9375 143.71875 156.109375 144.605469 C 157.539062 145.683594 158.460938 147.253906 158.710938 149.03125 C 158.960938 150.808594 158.503906 152.574219 157.425781 154.003906 C 156.351562 155.433594 154.777344 156.359375 153 156.609375 C 151.222656 156.855469 149.457031 156.398438 148.027344 155.324219 C 146.597656 154.246094 145.675781 152.671875 145.425781 150.894531 C 145.175781 149.117188 145.632812 147.351562 146.710938 145.921875 Z M 196.566406 154.734375 C 200.742188 147.125 202.945312 138.515625 202.945312 129.785156 C 202.945312 112.558594 194.421875 96.488281 180.152344 86.800781 C 179.164062 86.128906 177.816406 86.386719 177.148438 87.375 C 176.476562 88.363281 176.734375 89.707031 177.722656 90.378906 C 190.808594 99.257812 198.617188 113.992188 198.617188 129.785156 C 198.617188 138.019531 196.480469 146.132812 192.4375 153.253906 C 192.199219 153.671875 192.109375 154.160156 192.179688 154.636719 L 196.851562 186.460938 L 169.757812 174.269531 C 169.230469 174.03125 168.632812 174.015625 168.09375 174.222656 C 162.652344 176.3125 156.910156 177.375 151.03125 177.375 C 145.859375 177.375 140.804688 176.554688 135.96875 174.941406 L 147.675781 159.414062 C 149.726562 160.363281 152.054688 160.625 154.285156 160.140625 C 156.722656 159.609375 158.890625 158.226562 160.386719 156.238281 L 174.570312 137.429688 C 175.183594 136.613281 175.019531 135.449219 174.203125 134.832031 C 173.386719 134.21875 172.222656 134.378906 171.605469 135.195312 L 162.222656 147.644531 C 161.820312 145.871094 160.957031 144.230469 159.722656 142.894531 L 167.726562 132.273438 C 168.34375 131.457031 168.179688 130.292969 167.363281 129.675781 C 166.96875 129.378906 166.480469 129.253906 165.992188 129.320312 C 165.5 129.390625 165.066406 129.644531 164.769531 130.039062 L 156.761719 140.660156 C 155.136719 139.839844 153.320312 139.464844 151.503906 139.566406 L 160.890625 127.117188 C 161.1875 126.722656 161.3125 126.234375 161.246094 125.742188 C 161.175781 125.25 160.917969 124.816406 160.523438 124.519531 C 160.128906 124.222656 159.640625 124.09375 159.152344 124.164062 C 158.660156 124.230469 158.226562 124.488281 157.929688 124.882812 L 143.75 143.691406 C 142.25 145.679688 141.511719 148.144531 141.675781 150.632812 C 141.824219 152.910156 142.710938 155.078125 144.195312 156.785156 L 131.21875 173.996094 C 130.808594 174.226562 130.464844 174.589844 130.273438 175.066406 C 130.230469 175.167969 130.199219 175.273438 130.175781 175.382812 L 114.421875 196.273438 C 114.007812 196.824219 113.78125 197.472656 113.78125 198.097656 C 113.78125 198.773438 114.058594 199.371094 114.542969 199.738281 C 114.875 199.984375 115.269531 200.105469 115.683594 200.105469 C 116.46875 200.105469 117.320312 199.675781 117.90625 198.898438 L 133.234375 178.566406 C 138.921875 180.644531 144.902344 181.699219 151.03125 181.699219 C 157.136719 181.699219 163.109375 180.648438 168.792969 178.578125 L 198.675781 192.027344 C 198.960938 192.15625 199.265625 192.214844 199.5625 192.214844 C 200.027344 192.214844 200.484375 192.066406 200.867188 191.78125 C 201.5 191.304688 201.820312 190.523438 201.703125 189.738281 L 196.566406 154.734375 " fill-opacity="1" fill-rule="nonzero"/></g><g fill="#47210c" fill-opacity="1"><g transform="translate(43.872248, 247.742234)"><g><path d="M 23.359375 0 L 17.484375 0 L 17.484375 -10.046875 L 8.796875 -10.046875 L 8.796875 0 L 2.90625 0 L 2.90625 -22.8125 L 8.796875 -22.8125 L 8.796875 -14.46875 L 17.484375 -14.46875 L 17.484375 -22.8125 L 23.359375 -22.8125 Z M 23.359375 0 "/></g></g></g><g fill="#47210c" fill-opacity="1"><g transform="translate(70.14759, 247.742234)"><g><path d="M 13.328125 0.46875 C 9.648438 0.46875 6.769531 -0.597656 4.6875 -2.734375 C 2.613281 -4.867188 1.578125 -7.753906 1.578125 -11.390625 C 1.578125 -15.046875 2.617188 -17.941406 4.703125 -20.078125 C 6.785156 -22.210938 9.660156 -23.28125 13.328125 -23.28125 C 16.960938 -23.28125 19.832031 -22.21875 21.9375 -20.09375 C 24.039062 -17.96875 25.09375 -15.066406 25.09375 -11.390625 C 25.09375 -7.753906 24.050781 -4.867188 21.96875 -2.734375 C 19.894531 -0.597656 17.015625 0.46875 13.328125 0.46875 Z M 18.984375 -11.40625 C 18.984375 -13.851562 18.46875 -15.726562 17.4375 -17.03125 C 16.40625 -18.332031 15.039062 -18.984375 13.34375 -18.984375 C 11.601562 -18.984375 10.222656 -18.320312 9.203125 -17 C 8.191406 -15.6875 7.6875 -13.816406 7.6875 -11.390625 C 7.6875 -8.972656 8.195312 -7.109375 9.21875 -5.796875 C 10.238281 -4.484375 11.613281 -3.828125 13.34375 -3.828125 C 15.007812 -3.828125 16.363281 -4.46875 17.40625 -5.75 C 18.457031 -7.039062 18.984375 -8.925781 18.984375 -11.40625 Z M 18.984375 -11.40625 "/></g></g></g><g fill="#47210c" fill-opacity="1"><g transform="translate(96.821274, 247.742234)"><g><path d="M 26.828125 0 L 20.96875 0 L 20.96875 -15.28125 L 16.75 -5.359375 L 12.6875 -5.359375 L 8.453125 -15.28125 L 8.453125 0 L 2.90625 0 L 2.90625 -22.8125 L 9.75 -22.8125 L 14.875 -11.375 L 20 -22.8125 L 26.828125 -22.8125 Z M 26.828125 0 "/></g></g></g><g fill="#47210c" fill-opacity="1"><g transform="translate(126.559138, 247.742234)"><g><path d="M 19.40625 0 L 2.90625 0 L 2.90625 -22.8125 L 19.40625 -22.8125 L 19.40625 -18.40625 L 8.765625 -18.40625 L 8.765625 -14.46875 L 18.640625 -14.46875 L 18.640625 -10.046875 L 8.765625 -10.046875 L 8.765625 -4.40625 L 19.40625 -4.40625 Z M 19.40625 0 "/></g></g></g><g fill="#47210c" fill-opacity="1"><g transform="translate(147.993076, 247.742234)"><g><path d="M 8.796875 -7.4375 L 8.796875 0 L 2.90625 0 L 2.90625 -22.8125 L 12.59375 -22.8125 C 15.625 -22.8125 17.90625 -22.179688 19.4375 -20.921875 C 20.96875 -19.671875 21.734375 -17.898438 21.734375 -15.609375 C 21.734375 -13.242188 20.898438 -11.289062 19.234375 -9.75 C 17.578125 -8.207031 15.316406 -7.4375 12.453125 -7.4375 Z M 8.796875 -18.546875 L 8.796875 -11.71875 L 10.484375 -11.71875 C 12.609375 -11.71875 14 -12.035156 14.65625 -12.671875 C 15.320312 -13.304688 15.65625 -14.238281 15.65625 -15.46875 C 15.65625 -16.226562 15.425781 -16.851562 14.96875 -17.34375 C 14.507812 -17.84375 13.960938 -18.164062 13.328125 -18.3125 C 12.703125 -18.46875 11.53125 -18.546875 9.8125 -18.546875 Z M 8.796875 -18.546875 "/></g></g></g><g fill="#47210c" fill-opacity="1"><g transform="translate(170.989747, 247.742234)"><g><path d="M 19.359375 0 L 2.90625 0 L 2.90625 -22.8125 L 8.796875 -22.8125 L 8.796875 -4.40625 L 19.359375 -4.40625 Z M 19.359375 0 "/></g></g></g><g fill="#47210c" fill-opacity="1"><g transform="translate(190.983521, 247.742234)"><g><path d="M 23.984375 0 L 17.90625 0 L 16.328125 -4.609375 L 7.875 -4.609375 L 6.296875 0 L 0.375 0 L 8.796875 -22.8125 L 15.5625 -22.8125 Z M 14.90625 -8.796875 L 12.109375 -16.96875 L 9.296875 -8.796875 Z M 14.90625 -8.796875 "/></g></g></g><g fill="#47210c" fill-opacity="1"><g transform="translate(215.343744, 247.742234)"><g><path d="M 20.765625 -18.40625 L 13.640625 -18.40625 L 13.640625 0 L 7.75 0 L 7.75 -18.40625 L 0.625 -18.40625 L 0.625 -22.8125 L 20.765625 -22.8125 Z M 20.765625 -18.40625 "/></g></g></g><g fill="#47210c" fill-opacity="1"><g transform="translate(236.731713, 247.742234)"><g><path d="M 19.40625 0 L 2.90625 0 L 2.90625 -22.8125 L 19.40625 -22.8125 L 19.40625 -18.40625 L 8.765625 -18.40625 L 8.765625 -14.46875 L 18.640625 -14.46875 L 18.640625 -10.046875 L 8.765625 -10.046875 L 8.765625 -4.40625 L 19.40625 -4.40625 Z M 19.40625 0 "/></g></g></g><path fill="#c1ccce" d="M 259.171875 255.34375 L 259.171875 252.351562 L 262.164062 252.351562 L 262.164062 255.34375 M 259.171875 249.359375 L 259.171875 246.367188 L 262.164062 246.367188 L 262.164062 249.359375 M 259.171875 243.375 L 259.171875 240.382812 L 262.164062 240.382812 L 262.164062 243.375 M 259.171875 237.390625 L 259.171875 234.394531 L 262.164062 234.394531 L 262.164062 237.390625 M 259.171875 231.402344 L 259.171875 228.410156 L 262.164062 228.410156 L 262.164062 231.402344 M 259.171875 225.417969 L 259.171875 222.425781 L 262.164062 222.425781 L 262.164062 225.417969 M 259.171875 219.433594 L 259.171875 216.441406 L 262.164062 216.441406 L 262.164062 219.433594 M 259.171875 213.449219 L 259.171875 210.457031 L 262.164062 210.457031 L 262.164062 213.449219 M 259.171875 207.464844 L 259.171875 204.472656 L 262.164062 204.472656 L 262.164062 207.464844 M 259.171875 201.480469 L 259.171875 198.488281 L 262.164062 198.488281 L 262.164062 201.480469 M 259.171875 195.492188 L 259.171875 192.5 L 262.164062 192.5 L 262.164062 195.492188 M 259.171875 189.507812 L 259.171875 186.515625 L 262.164062 186.515625 L 262.164062 189.507812 M 259.171875 183.523438 L 259.171875 180.53125 L 262.164062 180.53125 L 262.164062 183.523438 M 259.171875 177.539062 L 259.171875 174.546875 L 262.164062 174.546875 L 262.164062 177.539062 M 259.171875 171.554688 L 259.171875 168.5625 L 262.164062 168.5625 L 262.164062 171.554688 M 259.171875 165.570312 L 259.171875 162.578125 L 262.164062 162.578125 L 262.164062 165.570312 M 259.171875 159.582031 L 259.171875 156.589844 L 262.164062 156.589844 L 262.164062 159.582031 M 259.171875 153.597656 L 259.171875 150.605469 L 262.164062 150.605469 L 262.164062 153.597656 M 259.171875 147.613281 L 259.171875 144.621094 L 262.164062 144.621094 L 262.164062 147.613281 M 259.171875 141.628906 L 259.171875 138.636719 L 262.164062 138.636719 L 262.164062 141.628906 M 259.171875 135.644531 L 259.171875 132.652344 L 262.164062 132.652344 L 262.164062 135.644531 M 259.171875 129.660156 L 259.171875 126.667969 L 262.164062 126.667969 L 262.164062 129.660156 M 259.171875 123.675781 L 259.171875 120.679688 L 262.164062 120.679688 L 262.164062 123.675781 M 259.171875 117.6875 L 259.171875 114.695312 L 262.164062 114.695312 L 262.164062 117.6875 M 259.171875 111.703125 L 259.171875 108.710938 L 262.164062 108.710938 L 262.164062 111.703125 M 259.171875 105.71875 L 259.171875 102.726562 L 262.164062 102.726562 L 262.164062 105.71875 M 259.171875 99.734375 L 259.171875 96.742188 L 262.164062 96.742188 L 262.164062 99.734375 M 259.171875 93.75 L 259.171875 90.757812 L 262.164062 90.757812 L 262.164062 93.75 M 259.171875 87.765625 L 259.171875 84.769531 L 262.164062 84.769531 L 262.164062 87.765625 M 259.171875 81.777344 L 259.171875 78.785156 L 262.164062 78.785156 L 262.164062 81.777344 M 259.171875 75.792969 L 259.171875 72.800781 L 262.164062 72.800781 L 262.164062 75.792969 M 259.171875 69.808594 L 259.171875 66.816406 L 262.164062 66.816406 L 262.164062 69.808594 M 259.171875 63.824219 L 259.171875 60.832031 L 262.164062 60.832031 L 262.164062 63.824219 M 259.171875 57.839844 L 259.171875 54.847656 L 262.164062 54.847656 L 262.164062 57.839844 M 259.171875 51.855469 L 259.171875 48.863281 L 262.164062 48.863281 L 262.164062 51.855469 M 259.171875 45.867188 L 259.171875 42.875 L 262.164062 42.875 L 262.164062 45.867188 " fill-opacity="1" fill-rule="nonzero"/><path fill="#c1ccce" d="M 41.375 257.363281 L 41.375 254.371094 L 44.367188 254.371094 L 44.367188 257.363281 M 41.375 251.378906 L 41.375 248.386719 L 44.367188 248.386719 L 44.367188 251.378906 M 41.375 245.394531 L 41.375 242.402344 L 44.367188 242.402344 L 44.367188 245.394531 M 41.375 239.410156 L 41.375 236.417969 L 44.367188 236.417969 L 44.367188 239.410156 M 41.375 233.425781 L 41.375 230.429688 L 44.367188 230.429688 L 44.367188 233.425781 M 41.375 227.4375 L 41.375 224.445312 L 44.367188 224.445312 L 44.367188 227.4375 M 41.375 221.453125 L 41.375 218.460938 L 44.367188 218.460938 L 44.367188 221.453125 M 41.375 215.46875 L 41.375 212.476562 L 44.367188 212.476562 L 44.367188 215.46875 M 41.375 209.484375 L 41.375 206.492188 L 44.367188 206.492188 L 44.367188 209.484375 M 41.375 203.5 L 41.375 200.507812 L 44.367188 200.507812 L 44.367188 203.5 M 41.375 197.515625 L 41.375 194.519531 L 44.367188 194.519531 L 44.367188 197.515625 M 41.375 191.527344 L 41.375 188.535156 L 44.367188 188.535156 L 44.367188 191.527344 M 41.375 185.542969 L 41.375 182.550781 L 44.367188 182.550781 L 44.367188 185.542969 M 41.375 179.558594 L 41.375 176.566406 L 44.367188 176.566406 L 44.367188 179.558594 M 41.375 173.574219 L 41.375 170.582031 L 44.367188 170.582031 L 44.367188 173.574219 M 41.375 167.589844 L 41.375 164.597656 L 44.367188 164.597656 L 44.367188 167.589844 M 41.375 161.605469 L 41.375 158.613281 L 44.367188 158.613281 L 44.367188 161.605469 M 41.375 155.617188 L 41.375 152.625 L 44.367188 152.625 L 44.367188 155.617188 M 41.375 149.632812 L 41.375 146.640625 L 44.367188 146.640625 L 44.367188 149.632812 M 41.375 143.648438 L 41.375 140.65625 L 44.367188 140.65625 L 44.367188 143.648438 M 41.375 137.664062 L 41.375 134.671875 L 44.367188 134.671875 L 44.367188 137.664062 M 41.375 131.679688 L 41.375 128.6875 L 44.367188 128.6875 L 44.367188 131.679688 M 41.375 125.695312 L 41.375 122.703125 L 44.367188 122.703125 L 44.367188 125.695312 M 41.375 119.707031 L 41.375 116.714844 L 44.367188 116.714844 L 44.367188 119.707031 M 41.375 113.722656 L 41.375 110.730469 L 44.367188 110.730469 L 44.367188 113.722656 M 41.375 107.738281 L 41.375 104.746094 L 44.367188 104.746094 L 44.367188 107.738281 M 41.375 101.753906 L 41.375 98.761719 L 44.367188 98.761719 L 44.367188 101.753906 M 41.375 95.769531 L 41.375 92.777344 L 44.367188 92.777344 L 44.367188 95.769531 M 41.375 89.785156 L 41.375 86.792969 L 44.367188 86.792969 L 44.367188 89.785156 M 41.375 83.800781 L 41.375 80.804688 L 44.367188 80.804688 L 44.367188 83.800781 M 41.375 77.8125 L 41.375 74.820312 L 44.367188 74.820312 L 44.367188 77.8125 M 41.375 71.828125 L 41.375 68.835938 L 44.367188 68.835938 L 44.367188 71.828125 M 41.375 65.84375 L 41.375 62.851562 L 44.367188 62.851562 L 44.367188 65.84375 M 41.375 59.859375 L 41.375 56.867188 L 44.367188 56.867188 L 44.367188 59.859375 M 41.375 53.875 L 41.375 50.882812 L 44.367188 50.882812 L 44.367188 53.875 M 41.375 47.890625 L 41.375 44.894531 L 44.367188 44.894531 L 44.367188 47.890625 " fill-opacity="1" fill-rule="nonzero"/><path fill="#c1ccce" d="M 259.167969 46.257812 L 256.175781 46.257812 L 256.175781 43.265625 L 259.167969 43.265625 M 253.183594 46.257812 L 250.191406 46.257812 L 250.191406 43.265625 L 253.183594 43.265625 M 247.199219 46.257812 L 244.207031 46.257812 L 244.207031 43.265625 L 247.199219 43.265625 M 241.214844 46.257812 L 238.222656 46.257812 L 238.222656 43.265625 L 241.214844 43.265625 M 235.230469 46.257812 L 232.234375 46.257812 L 232.234375 43.265625 L 235.230469 43.265625 M 229.242188 46.257812 L 226.25 46.257812 L 226.25 43.265625 L 229.242188 43.265625 M 223.257812 46.257812 L 220.265625 46.257812 L 220.265625 43.265625 L 223.257812 43.265625 M 217.273438 46.257812 L 214.28125 46.257812 L 214.28125 43.265625 L 217.273438 43.265625 M 211.289062 46.257812 L 208.296875 46.257812 L 208.296875 43.265625 L 211.289062 43.265625 M 205.304688 46.257812 L 202.3125 46.257812 L 202.3125 43.265625 L 205.304688 43.265625 M 199.320312 46.257812 L 196.328125 46.257812 L 196.328125 43.265625 L 199.320312 43.265625 M 193.332031 46.257812 L 190.339844 46.257812 L 190.339844 43.265625 L 193.332031 43.265625 M 187.347656 46.257812 L 184.355469 46.257812 L 184.355469 43.265625 L 187.347656 43.265625 M 181.363281 46.257812 L 178.371094 46.257812 L 178.371094 43.265625 L 181.363281 43.265625 M 175.378906 46.257812 L 172.386719 46.257812 L 172.386719 43.265625 L 175.378906 43.265625 M 169.394531 46.257812 L 166.402344 46.257812 L 166.402344 43.265625 L 169.394531 43.265625 M 163.410156 46.257812 L 160.417969 46.257812 L 160.417969 43.265625 L 163.410156 43.265625 M 157.421875 46.257812 L 154.429688 46.257812 L 154.429688 43.265625 L 157.421875 43.265625 M 151.4375 46.257812 L 148.445312 46.257812 L 148.445312 43.265625 L 151.4375 43.265625 M 145.453125 46.257812 L 142.460938 46.257812 L 142.460938 43.265625 L 145.453125 43.265625 M 139.46875 46.257812 L 136.476562 46.257812 L 136.476562 43.265625 L 139.46875 43.265625 M 133.484375 46.257812 L 130.492188 46.257812 L 130.492188 43.265625 L 133.484375 43.265625 M 127.5 46.257812 L 124.507812 46.257812 L 124.507812 43.265625 L 127.5 43.265625 M 121.515625 46.257812 L 118.519531 46.257812 L 118.519531 43.265625 L 121.515625 43.265625 M 115.527344 46.257812 L 112.535156 46.257812 L 112.535156 43.265625 L 115.527344 43.265625 M 109.542969 46.257812 L 106.550781 46.257812 L 106.550781 43.265625 L 109.542969 43.265625 M 103.558594 46.257812 L 100.566406 46.257812 L 100.566406 43.265625 L 103.558594 43.265625 M 97.574219 46.257812 L 94.582031 46.257812 L 94.582031 43.265625 L 97.574219 43.265625 M 91.589844 46.257812 L 88.597656 46.257812 L 88.597656 43.265625 L 91.589844 43.265625 M 85.605469 46.257812 L 82.609375 46.257812 L 82.609375 43.265625 L 85.605469 43.265625 M 79.617188 46.257812 L 76.625 46.257812 L 76.625 43.265625 L 79.617188 43.265625 M 73.632812 46.257812 L 70.640625 46.257812 L 70.640625 43.265625 L 73.632812 43.265625 M 67.648438 46.257812 L 64.65625 46.257812 L 64.65625 43.265625 L 67.648438 43.265625 M 61.664062 46.257812 L 58.671875 46.257812 L 58.671875 43.265625 L 61.664062 43.265625 M 55.679688 46.257812 L 52.6875 46.257812 L 52.6875 43.265625 L 55.679688 43.265625 M 49.695312 46.257812 L 46.703125 46.257812 L 46.703125 43.265625 L 49.695312 43.265625 " fill-opacity="1" fill-rule="nonzero"/><path fill="#c1ccce" d="M 258.332031 256.84375 L 255.339844 256.84375 L 255.339844 253.851562 L 258.332031 253.851562 M 252.34375 256.84375 L 249.351562 256.84375 L 249.351562 253.851562 L 252.34375 253.851562 M 246.359375 256.84375 L 243.367188 256.84375 L 243.367188 253.851562 L 246.359375 253.851562 M 240.375 256.84375 L 237.382812 256.84375 L 237.382812 253.851562 L 240.375 253.851562 M 234.390625 256.84375 L 231.398438 256.84375 L 231.398438 253.851562 L 234.390625 253.851562 M 228.40625 256.84375 L 225.414062 256.84375 L 225.414062 253.851562 L 228.40625 253.851562 M 222.421875 256.84375 L 219.429688 256.84375 L 219.429688 253.851562 L 222.421875 253.851562 M 216.433594 256.84375 L 213.441406 256.84375 L 213.441406 253.851562 L 216.433594 253.851562 M 210.449219 256.84375 L 207.457031 256.84375 L 207.457031 253.851562 L 210.449219 253.851562 M 204.464844 256.84375 L 201.472656 256.84375 L 201.472656 253.851562 L 204.464844 253.851562 M 198.480469 256.84375 L 195.488281 256.84375 L 195.488281 253.851562 L 198.480469 253.851562 M 192.496094 256.84375 L 189.503906 256.84375 L 189.503906 253.851562 L 192.496094 253.851562 M 186.511719 256.84375 L 183.519531 256.84375 L 183.519531 253.851562 L 186.511719 253.851562 M 180.527344 256.84375 L 177.53125 256.84375 L 177.53125 253.851562 L 180.527344 253.851562 M 174.539062 256.84375 L 171.546875 256.84375 L 171.546875 253.851562 L 174.539062 253.851562 M 168.554688 256.84375 L 165.5625 256.84375 L 165.5625 253.851562 L 168.554688 253.851562 M 162.570312 256.84375 L 159.578125 256.84375 L 159.578125 253.851562 L 162.570312 253.851562 M 156.585938 256.84375 L 153.59375 256.84375 L 153.59375 253.851562 L 156.585938 253.851562 M 150.601562 256.84375 L 147.609375 256.84375 L 147.609375 253.851562 L 150.601562 253.851562 M 144.617188 256.84375 L 141.621094 256.84375 L 141.621094 253.851562 L 144.617188 253.851562 M 138.628906 256.84375 L 135.636719 256.84375 L 135.636719 253.851562 L 138.628906 253.851562 M 132.644531 256.84375 L 129.652344 256.84375 L 129.652344 253.851562 L 132.644531 253.851562 M 126.660156 256.84375 L 123.667969 256.84375 L 123.667969 253.851562 L 126.660156 253.851562 M 120.675781 256.84375 L 117.683594 256.84375 L 117.683594 253.851562 L 120.675781 253.851562 M 114.691406 256.84375 L 111.699219 256.84375 L 111.699219 253.851562 L 114.691406 253.851562 M 108.707031 256.84375 L 105.714844 256.84375 L 105.714844 253.851562 L 108.707031 253.851562 M 102.71875 256.84375 L 99.726562 256.84375 L 99.726562 253.851562 L 102.71875 253.851562 M 96.734375 256.84375 L 93.742188 256.84375 L 93.742188 253.851562 L 96.734375 253.851562 M 90.75 256.84375 L 87.757812 256.84375 L 87.757812 253.851562 L 90.75 253.851562 M 84.765625 256.84375 L 81.773438 256.84375 L 81.773438 253.851562 L 84.765625 253.851562 M 78.78125 256.84375 L 75.789062 256.84375 L 75.789062 253.851562 L 78.78125 253.851562 M 72.796875 256.84375 L 69.804688 256.84375 L 69.804688 253.851562 L 72.796875 253.851562 M 66.808594 256.84375 L 63.816406 256.84375 L 63.816406 253.851562 L 66.808594 253.851562 M 60.824219 256.84375 L 57.832031 256.84375 L 57.832031 253.851562 L 60.824219 253.851562 M 54.839844 256.84375 L 51.847656 256.84375 L 51.847656 253.851562 L 54.839844 253.851562 M 48.855469 256.84375 L 45.863281 256.84375 L 45.863281 253.851562 L 48.855469 253.851562 " fill-opacity="1" fill-rule="nonzero"/><g clip-path="url(#bfeb232ea9)"><path fill="#fcce0b" d="M 260.671875 0 L 303.414062 0 L 303.414062 42.742188 L 260.671875 42.742188 Z M 260.671875 0 " fill-opacity="1" fill-rule="nonzero"/></g><g fill="#000000" fill-opacity="1"><g transform="translate(267.370519, 25.860166)"><g><path d="M 0.453125 0 L 0.453125 -1.390625 L 2.515625 -1.390625 L 2.515625 -6.71875 L 2.375 -6.75 C 2.082031 -6.613281 1.796875 -6.503906 1.515625 -6.421875 C 1.234375 -6.335938 0.910156 -6.269531 0.546875 -6.21875 L 0.546875 -7.671875 C 1.492188 -7.867188 2.257812 -8.160156 2.84375 -8.546875 L 4.1875 -8.546875 L 4.1875 -1.390625 L 6.03125 -1.390625 L 6.03125 0 Z M 0.453125 0 "/></g></g><g transform="translate(273.676979, 25.860166)"><g><path d="M 1.578125 1.21875 L 0.03125 1.21875 L 3.21875 -9.03125 L 4.765625 -9.03125 Z M 1.578125 1.21875 "/></g></g><g transform="translate(278.697598, 25.860166)"><g><path d="M 5.796875 0 L 4.1875 0 L 4.1875 -1.859375 L 0.296875 -1.859375 L 0.296875 -3.21875 L 3.640625 -8.546875 L 5.796875 -8.546875 L 5.796875 -3.21875 L 7.125 -3.21875 L 7.125 -1.859375 L 5.796875 -1.859375 Z M 2.015625 -3.34375 L 2.078125 -3.21875 L 4.1875 -3.21875 L 4.1875 -6.53125 L 4.046875 -6.546875 Z M 2.015625 -3.34375 "/></g></g><g transform="translate(286.14378, 25.860166)"><g/></g><g transform="translate(288.966782, 25.860166)"><g><path d="M 1.875 0 L 0.140625 0 L 2.671875 -4.390625 L 0.265625 -8.546875 L 2.0625 -8.546875 L 3.828125 -5.484375 L 3.984375 -5.484375 L 5.78125 -8.546875 L 7.484375 -8.546875 L 5.078125 -4.390625 L 7.609375 0 L 5.828125 0 L 3.921875 -3.296875 L 3.78125 -3.296875 Z M 1.875 0 "/></g></g></g><g clip-path="url(#1b7f504d47)"><path fill="#fcce0b" d="M 260.671875 255.347656 L 303.414062 255.347656 L 303.414062 298.089844 L 260.671875 298.089844 Z M 260.671875 255.347656 " fill-opacity="1" fill-rule="nonzero"/></g><g fill="#000000" fill-opacity="1"><g transform="translate(267.370519, 281.20686)"><g><path d="M 0.453125 0 L 0.453125 -1.390625 L 2.515625 -1.390625 L 2.515625 -6.71875 L 2.375 -6.75 C 2.082031 -6.613281 1.796875 -6.503906 1.515625 -6.421875 C 1.234375 -6.335938 0.910156 -6.269531 0.546875 -6.21875 L 0.546875 -7.671875 C 1.492188 -7.867188 2.257812 -8.160156 2.84375 -8.546875 L 4.1875 -8.546875 L 4.1875 -1.390625 L 6.03125 -1.390625 L 6.03125 0 Z M 0.453125 0 "/></g></g><g transform="translate(273.676979, 281.20686)"><g><path d="M 1.578125 1.21875 L 0.03125 1.21875 L 3.21875 -9.03125 L 4.765625 -9.03125 Z M 1.578125 1.21875 "/></g></g><g transform="translate(278.697598, 281.20686)"><g><path d="M 5.796875 0 L 4.1875 0 L 4.1875 -1.859375 L 0.296875 -1.859375 L 0.296875 -3.21875 L 3.640625 -8.546875 L 5.796875 -8.546875 L 5.796875 -3.21875 L 7.125 -3.21875 L 7.125 -1.859375 L 5.796875 -1.859375 Z M 2.015625 -3.34375 L 2.078125 -3.21875 L 4.1875 -3.21875 L 4.1875 -6.53125 L 4.046875 -6.546875 Z M 2.015625 -3.34375 "/></g></g><g transform="translate(286.14378, 281.20686)"><g/></g><g transform="translate(288.966782, 281.20686)"><g><path d="M 1.875 0 L 0.140625 0 L 2.671875 -4.390625 L 0.265625 -8.546875 L 2.0625 -8.546875 L 3.828125 -5.484375 L 3.984375 -5.484375 L 5.78125 -8.546875 L 7.484375 -8.546875 L 5.078125 -4.390625 L 7.609375 0 L 5.828125 0 L 3.921875 -3.296875 L 3.78125 -3.296875 Z M 1.875 0 "/></g></g></g><g clip-path="url(#ba9020e7e0)"><path fill="#fcce0b" d="M 0.132812 255.347656 L 42.875 255.347656 L 42.875 298.089844 L 0.132812 298.089844 Z M 0.132812 255.347656 " fill-opacity="1" fill-rule="nonzero"/></g><g fill="#000000" fill-opacity="1"><g transform="translate(6.831352, 281.20686)"><g><path d="M 0.453125 0 L 0.453125 -1.390625 L 2.515625 -1.390625 L 2.515625 -6.71875 L 2.375 -6.75 C 2.082031 -6.613281 1.796875 -6.503906 1.515625 -6.421875 C 1.234375 -6.335938 0.910156 -6.269531 0.546875 -6.21875 L 0.546875 -7.671875 C 1.492188 -7.867188 2.257812 -8.160156 2.84375 -8.546875 L 4.1875 -8.546875 L 4.1875 -1.390625 L 6.03125 -1.390625 L 6.03125 0 Z M 0.453125 0 "/></g></g><g transform="translate(13.137812, 281.20686)"><g><path d="M 1.578125 1.21875 L 0.03125 1.21875 L 3.21875 -9.03125 L 4.765625 -9.03125 Z M 1.578125 1.21875 "/></g></g><g transform="translate(18.158432, 281.20686)"><g><path d="M 5.796875 0 L 4.1875 0 L 4.1875 -1.859375 L 0.296875 -1.859375 L 0.296875 -3.21875 L 3.640625 -8.546875 L 5.796875 -8.546875 L 5.796875 -3.21875 L 7.125 -3.21875 L 7.125 -1.859375 L 5.796875 -1.859375 Z M 2.015625 -3.34375 L 2.078125 -3.21875 L 4.1875 -3.21875 L 4.1875 -6.53125 L 4.046875 -6.546875 Z M 2.015625 -3.34375 "/></g></g><g transform="translate(25.604613, 281.20686)"><g/></g><g transform="translate(28.427616, 281.20686)"><g><path d="M 1.875 0 L 0.140625 0 L 2.671875 -4.390625 L 0.265625 -8.546875 L 2.0625 -8.546875 L 3.828125 -5.484375 L 3.984375 -5.484375 L 5.78125 -8.546875 L 7.484375 -8.546875 L 5.078125 -4.390625 L 7.609375 0 L 5.828125 0 L 3.921875 -3.296875 L 3.78125 -3.296875 Z M 1.875 0 "/></g></g></g><g clip-path="url(#500820ebda)"><path fill="#fcce0b" d="M 2.839844 0 L 45.582031 0 L 45.582031 42.742188 L 2.839844 42.742188 Z M 2.839844 0 " fill-opacity="1" fill-rule="nonzero"/></g><g fill="#000000" fill-opacity="1"><g transform="translate(9.539442, 25.860166)"><g><path d="M 0.453125 0 L 0.453125 -1.390625 L 2.515625 -1.390625 L 2.515625 -6.71875 L 2.375 -6.75 C 2.082031 -6.613281 1.796875 -6.503906 1.515625 -6.421875 C 1.234375 -6.335938 0.910156 -6.269531 0.546875 -6.21875 L 0.546875 -7.671875 C 1.492188 -7.867188 2.257812 -8.160156 2.84375 -8.546875 L 4.1875 -8.546875 L 4.1875 -1.390625 L 6.03125 -1.390625 L 6.03125 0 Z M 0.453125 0 "/></g></g><g transform="translate(15.845902, 25.860166)"><g><path d="M 1.578125 1.21875 L 0.03125 1.21875 L 3.21875 -9.03125 L 4.765625 -9.03125 Z M 1.578125 1.21875 "/></g></g><g transform="translate(20.866522, 25.860166)"><g><path d="M 5.796875 0 L 4.1875 0 L 4.1875 -1.859375 L 0.296875 -1.859375 L 0.296875 -3.21875 L 3.640625 -8.546875 L 5.796875 -8.546875 L 5.796875 -3.21875 L 7.125 -3.21875 L 7.125 -1.859375 L 5.796875 -1.859375 Z M 2.015625 -3.34375 L 2.078125 -3.21875 L 4.1875 -3.21875 L 4.1875 -6.53125 L 4.046875 -6.546875 Z M 2.015625 -3.34375 "/></g></g><g transform="translate(28.312703, 25.860166)"><g/></g><g transform="translate(31.135706, 25.860166)"><g><path d="M 1.875 0 L 0.140625 0 L 2.671875 -4.390625 L 0.265625 -8.546875 L 2.0625 -8.546875 L 3.828125 -5.484375 L 3.984375 -5.484375 L 5.78125 -8.546875 L 7.484375 -8.546875 L 5.078125 -4.390625 L 7.609375 0 L 5.828125 0 L 3.921875 -3.296875 L 3.78125 -3.296875 Z M 1.875 0 "/></g></g></g><g fill="#000000" fill-opacity="1"><g transform="translate(149.245386, 32.892541)"><g><path d="M 1.875 0 L 0.140625 0 L 2.671875 -4.390625 L 0.265625 -8.546875 L 2.0625 -8.546875 L 3.828125 -5.484375 L 3.984375 -5.484375 L 5.78125 -8.546875 L 7.484375 -8.546875 L 5.078125 -4.390625 L 7.609375 0 L 5.828125 0 L 3.921875 -3.296875 L 3.78125 -3.296875 Z M 1.875 0 "/></g></g></g></svg>