<svg xmlns="http://www.w3.org/2000/svg" xmlns:xlink="http://www.w3.org/1999/xlink" width="740" zoomAndPan="magnify" viewBox="0 0 555 172.499995" height="230" preserveAspectRatio="xMidYMid meet" version="1.0"><defs><g/><clipPath id="f7181de22d"><path d="M 0.800781 128.808594 L 43.527344 128.808594 L 43.527344 171.535156 L 0.800781 171.535156 Z M 0.800781 128.808594 " clip-rule="nonzero"/></clipPath><clipPath id="804126a28e"><path d="M 0.800781 0 L 43.527344 0 L 43.527344 42.726562 L 0.800781 42.726562 Z M 0.800781 0 " clip-rule="nonzero"/></clipPath><clipPath id="2bae02573f"><path d="M 510.871094 128.808594 L 553.597656 128.808594 L 553.597656 171.535156 L 510.871094 171.535156 Z M 510.871094 128.808594 " clip-rule="nonzero"/></clipPath><clipPath id="e040c27539"><path d="M 510.875 0 L 553.601562 0 L 553.601562 42.726562 L 510.875 42.726562 Z M 510.875 0 " clip-rule="nonzero"/></clipPath></defs><g fill="#47210c" fill-opacity="1"><g transform="translate(45.682704, 113.182741)"><g><path d="M 50.328125 0 L 37.65625 0 L 37.65625 -21.640625 L 18.9375 -21.640625 L 18.9375 0 L 6.265625 0 L 6.265625 -49.125 L 18.9375 -49.125 L 18.9375 -31.15625 L 37.65625 -31.15625 L 37.65625 -49.125 L 50.328125 -49.125 Z M 50.328125 0 "/></g></g></g><g fill="#47210c" fill-opacity="1"><g transform="translate(102.271507, 113.182741)"><g><path d="M 28.703125 1.015625 C 20.785156 1.015625 14.585938 -1.285156 10.109375 -5.890625 C 5.640625 -10.492188 3.40625 -16.710938 3.40625 -24.546875 C 3.40625 -32.421875 5.644531 -38.65625 10.125 -43.25 C 14.613281 -47.851562 20.804688 -50.15625 28.703125 -50.15625 C 36.535156 -50.15625 42.71875 -47.863281 47.25 -43.28125 C 51.78125 -38.707031 54.046875 -32.460938 54.046875 -24.546875 C 54.046875 -16.710938 51.804688 -10.492188 47.328125 -5.890625 C 42.859375 -1.285156 36.648438 1.015625 28.703125 1.015625 Z M 40.890625 -24.578125 C 40.890625 -29.835938 39.773438 -33.867188 37.546875 -36.671875 C 35.328125 -39.484375 32.390625 -40.890625 28.734375 -40.890625 C 24.992188 -40.890625 22.03125 -39.46875 19.84375 -36.625 C 17.65625 -33.789062 16.5625 -29.765625 16.5625 -24.546875 C 16.5625 -19.335938 17.660156 -15.316406 19.859375 -12.484375 C 22.054688 -9.660156 25.015625 -8.25 28.734375 -8.25 C 32.328125 -8.25 35.25 -9.632812 37.5 -12.40625 C 39.757812 -15.175781 40.890625 -19.234375 40.890625 -24.578125 Z M 40.890625 -24.578125 "/></g></g></g><g fill="#47210c" fill-opacity="1"><g transform="translate(159.718215, 113.182741)"><g><path d="M 57.78125 0 L 45.171875 0 L 45.171875 -32.890625 L 36.0625 -11.546875 L 27.328125 -11.546875 L 18.21875 -32.890625 L 18.21875 0 L 6.265625 0 L 6.265625 -49.125 L 20.984375 -49.125 L 32.046875 -24.484375 L 43.0625 -49.125 L 57.78125 -49.125 Z M 57.78125 0 "/></g></g></g><g fill="#47210c" fill-opacity="1"><g transform="translate(223.764199, 113.182741)"><g><path d="M 41.8125 0 L 6.265625 0 L 6.265625 -49.125 L 41.8125 -49.125 L 41.8125 -39.625 L 18.875 -39.625 L 18.875 -31.15625 L 40.15625 -31.15625 L 40.15625 -21.640625 L 18.875 -21.640625 L 18.875 -9.5 L 41.8125 -9.5 Z M 41.8125 0 "/></g></g></g><g fill="#47210c" fill-opacity="1"><g transform="translate(269.926146, 113.182741)"><g><path d="M 18.9375 -16 L 18.9375 0 L 6.265625 0 L 6.265625 -49.125 L 27.125 -49.125 C 33.65625 -49.125 38.570312 -47.769531 41.875 -45.0625 C 45.175781 -42.363281 46.828125 -38.550781 46.828125 -33.625 C 46.828125 -28.519531 45.03125 -24.304688 41.4375 -20.984375 C 37.851562 -17.660156 32.984375 -16 26.828125 -16 Z M 18.9375 -39.953125 L 18.9375 -25.25 L 22.5625 -25.25 C 27.144531 -25.25 30.148438 -25.925781 31.578125 -27.28125 C 33.003906 -28.644531 33.71875 -30.660156 33.71875 -33.328125 C 33.71875 -34.953125 33.222656 -36.296875 32.234375 -37.359375 C 31.242188 -38.429688 30.070312 -39.128906 28.71875 -39.453125 C 27.363281 -39.785156 24.832031 -39.953125 21.125 -39.953125 Z M 18.9375 -39.953125 "/></g></g></g><g fill="#47210c" fill-opacity="1"><g transform="translate(319.453725, 113.182741)"><g><path d="M 41.703125 0 L 6.265625 0 L 6.265625 -49.125 L 18.9375 -49.125 L 18.9375 -9.5 L 41.703125 -9.5 Z M 41.703125 0 "/></g></g></g><g fill="#47210c" fill-opacity="1"><g transform="translate(362.514012, 113.182741)"><g><path d="M 51.671875 0 L 38.578125 0 L 35.171875 -9.9375 L 16.953125 -9.9375 L 13.5625 0 L 0.796875 0 L 18.9375 -49.125 L 33.53125 -49.125 Z M 32.109375 -18.9375 L 26.0625 -36.5625 L 20.03125 -18.9375 Z M 32.109375 -18.9375 "/></g></g></g><g fill="#47210c" fill-opacity="1"><g transform="translate(414.978252, 113.182741)"><g><path d="M 44.71875 -39.625 L 29.375 -39.625 L 29.375 0 L 16.703125 0 L 16.703125 -39.625 L 1.359375 -39.625 L 1.359375 -49.125 L 44.71875 -49.125 Z M 44.71875 -39.625 "/></g></g></g><g fill="#47210c" fill-opacity="1"><g transform="translate(461.041196, 113.182741)"><g><path d="M 41.8125 0 L 6.265625 0 L 6.265625 -49.125 L 41.8125 -49.125 L 41.8125 -39.625 L 18.875 -39.625 L 18.875 -31.15625 L 40.15625 -31.15625 L 40.15625 -21.640625 L 18.875 -21.640625 L 18.875 -9.5 L 41.8125 -9.5 Z M 41.8125 0 "/></g></g></g><g fill="#000000" fill-opacity="1"><g transform="translate(60.175744, 98.971678)"><g><path d="M 1.875 0 L 0.140625 0 L 2.671875 -4.390625 L 0.265625 -8.546875 L 2.0625 -8.546875 L 3.828125 -5.484375 L 3.984375 -5.484375 L 5.78125 -8.546875 L 7.484375 -8.546875 L 5.078125 -4.390625 L 7.609375 0 L 5.828125 0 L 3.921875 -3.296875 L 3.78125 -3.296875 Z M 1.875 0 "/></g></g></g><g clip-path="url(#f7181de22d)"><path fill="#fcce0b" d="M 0.800781 128.808594 L 43.527344 128.808594 L 43.527344 171.535156 L 0.800781 171.535156 Z M 0.800781 128.808594 " fill-opacity="1" fill-rule="nonzero"/></g><g fill="#000000" fill-opacity="1"><g transform="translate(7.499513, 154.658179)"><g><path d="M 0.453125 0 L 0.453125 -1.390625 L 2.515625 -1.390625 L 2.515625 -6.71875 L 2.375 -6.75 C 2.082031 -6.613281 1.796875 -6.503906 1.515625 -6.421875 C 1.234375 -6.335938 0.910156 -6.269531 0.546875 -6.21875 L 0.546875 -7.671875 C 1.492188 -7.867188 2.257812 -8.160156 2.84375 -8.546875 L 4.1875 -8.546875 L 4.1875 -1.390625 L 6.03125 -1.390625 L 6.03125 0 Z M 0.453125 0 "/></g></g><g transform="translate(13.803505, 154.658179)"><g><path d="M 1.578125 1.21875 L 0.03125 1.21875 L 3.21875 -9.03125 L 4.765625 -9.03125 Z M 1.578125 1.21875 "/></g></g><g transform="translate(18.822161, 154.658179)"><g><path d="M 5.796875 0 L 4.1875 0 L 4.1875 -1.859375 L 0.296875 -1.859375 L 0.296875 -3.21875 L 3.640625 -8.546875 L 5.796875 -8.546875 L 5.796875 -3.21875 L 7.125 -3.21875 L 7.125 -1.859375 L 5.796875 -1.859375 Z M 2.015625 -3.34375 L 2.078125 -3.21875 L 4.1875 -3.21875 L 4.1875 -6.53125 L 4.046875 -6.546875 Z M 2.015625 -3.34375 "/></g></g><g transform="translate(26.26543, 154.658179)"><g/></g><g transform="translate(29.087328, 154.658179)"><g><path d="M 1.875 0 L 0.140625 0 L 2.671875 -4.390625 L 0.265625 -8.546875 L 2.0625 -8.546875 L 3.828125 -5.484375 L 3.984375 -5.484375 L 5.78125 -8.546875 L 7.484375 -8.546875 L 5.078125 -4.390625 L 7.609375 0 L 5.828125 0 L 3.921875 -3.296875 L 3.78125 -3.296875 Z M 1.875 0 "/></g></g></g><path fill="#c1ccce" d="M 42.035156 126.335938 L 42.035156 123.34375 L 45.023438 123.34375 L 45.023438 126.335938 M 42.035156 120.351562 L 42.035156 117.359375 L 45.023438 117.359375 L 45.023438 120.351562 M 42.035156 114.371094 L 42.035156 111.378906 L 45.023438 111.378906 L 45.023438 114.371094 M 42.035156 108.386719 L 42.035156 105.394531 L 45.023438 105.394531 L 45.023438 108.386719 M 42.035156 102.402344 L 42.035156 99.414062 L 45.023438 99.414062 L 45.023438 102.402344 M 42.035156 96.421875 L 42.035156 93.429688 L 45.023438 93.429688 L 45.023438 96.421875 M 42.035156 90.4375 L 42.035156 87.449219 L 45.023438 87.449219 L 45.023438 90.4375 M 42.035156 84.457031 L 42.035156 81.464844 L 45.023438 81.464844 L 45.023438 84.457031 M 42.035156 78.472656 L 42.035156 75.480469 L 45.023438 75.480469 L 45.023438 78.472656 M 42.035156 72.492188 L 42.035156 69.5 L 45.023438 69.5 L 45.023438 72.492188 M 42.035156 66.507812 L 42.035156 63.515625 L 45.023438 63.515625 L 45.023438 66.507812 M 42.035156 60.527344 L 42.035156 57.535156 L 45.023438 57.535156 L 45.023438 60.527344 M 42.035156 54.542969 L 42.035156 51.550781 L 45.023438 51.550781 L 45.023438 54.542969 M 42.035156 48.558594 L 42.035156 45.714844 L 45.023438 45.714844 L 45.023438 48.558594 " fill-opacity="1" fill-rule="nonzero"/><path fill="#c1ccce" d="M 509.375 127.832031 L 506.386719 127.84375 L 506.375 124.851562 L 509.367188 124.84375 M 503.394531 127.851562 L 500.402344 127.863281 L 500.394531 124.871094 L 503.382812 124.863281 M 497.410156 127.871094 L 494.417969 127.882812 L 494.410156 124.890625 L 497.402344 124.878906 M 491.429688 127.890625 L 488.4375 127.902344 L 488.425781 124.910156 L 491.417969 124.898438 M 485.445312 127.910156 L 482.453125 127.921875 L 482.445312 124.929688 L 485.4375 124.917969 M 479.464844 127.929688 L 476.472656 127.9375 L 476.460938 124.949219 L 479.453125 124.9375 M 473.480469 127.949219 L 470.488281 127.957031 L 470.480469 124.96875 L 473.472656 124.957031 M 467.496094 127.96875 L 464.507812 127.976562 L 464.496094 124.984375 L 467.488281 124.976562 M 461.515625 127.988281 L 458.523438 127.996094 L 458.515625 125.003906 L 461.503906 124.996094 M 455.53125 128.007812 L 452.542969 128.015625 L 452.53125 125.023438 L 455.523438 125.015625 M 449.550781 128.027344 L 446.558594 128.035156 L 446.550781 125.042969 L 449.539062 125.035156 M 443.566406 128.042969 L 440.578125 128.054688 L 440.566406 125.0625 L 443.558594 125.054688 M 437.585938 128.0625 L 434.59375 128.074219 L 434.585938 125.082031 L 437.574219 125.074219 M 431.601562 128.082031 L 428.609375 128.09375 L 428.601562 125.101562 L 431.59375 125.09375 M 425.621094 128.101562 L 422.628906 128.113281 L 422.617188 125.121094 L 425.609375 125.109375 M 419.636719 128.121094 L 416.644531 128.132812 L 416.636719 125.140625 L 419.628906 125.128906 M 413.65625 128.140625 L 410.664062 128.152344 L 410.652344 125.160156 L 413.644531 125.148438 M 407.671875 128.160156 L 404.679688 128.167969 L 404.671875 125.179688 L 407.664062 125.167969 M 401.6875 128.179688 L 398.699219 128.1875 L 398.6875 125.199219 L 401.679688 125.1875 M 395.707031 128.199219 L 392.714844 128.207031 L 392.707031 125.21875 L 395.695312 125.207031 M 389.722656 128.21875 L 386.734375 128.226562 L 386.722656 125.234375 L 389.714844 125.226562 M 383.742188 128.238281 L 380.75 128.246094 L 380.742188 125.253906 L 383.730469 125.246094 M 377.757812 128.257812 L 374.765625 128.265625 L 374.757812 125.273438 L 377.75 125.265625 M 371.777344 128.273438 L 368.785156 128.285156 L 368.773438 125.292969 L 371.765625 125.285156 M 365.792969 128.292969 L 362.800781 128.304688 L 362.792969 125.3125 L 365.785156 125.304688 M 359.8125 128.3125 L 356.820312 128.324219 L 356.808594 125.332031 L 359.800781 125.324219 M 353.828125 128.332031 L 350.835938 128.34375 L 350.828125 125.351562 L 353.820312 125.339844 M 347.84375 128.351562 L 344.855469 128.363281 L 344.84375 125.371094 L 347.835938 125.359375 M 341.863281 128.371094 L 338.871094 128.382812 L 338.863281 125.390625 L 341.851562 125.378906 M 335.878906 128.390625 L 332.890625 128.398438 L 332.878906 125.410156 L 335.871094 125.398438 M 329.898438 128.410156 L 326.90625 128.417969 L 326.898438 125.429688 L 329.886719 125.417969 M 323.914062 128.429688 L 320.921875 128.4375 L 320.914062 125.449219 L 323.90625 125.4375 M 317.933594 128.449219 L 314.941406 128.457031 L 314.929688 125.464844 L 317.921875 125.457031 M 311.949219 128.46875 L 308.957031 128.476562 L 308.949219 125.484375 L 311.941406 125.476562 M 305.96875 128.488281 L 302.976562 128.496094 L 302.964844 125.503906 L 305.957031 125.496094 M 299.984375 128.503906 L 296.992188 128.515625 L 296.984375 125.523438 L 299.976562 125.515625 M 294 128.523438 L 291.011719 128.535156 L 291 125.542969 L 293.992188 125.535156 M 288.019531 128.542969 L 285.027344 128.554688 L 285.019531 125.5625 L 288.007812 125.554688 M 282.035156 128.5625 L 279.046875 128.574219 L 279.035156 125.582031 L 282.027344 125.570312 M 276.054688 128.582031 L 273.0625 128.59375 L 273.054688 125.601562 L 276.042969 125.589844 M 270.070312 128.601562 L 267.078125 128.613281 L 267.070312 125.621094 L 270.0625 125.609375 M 264.089844 128.621094 L 261.097656 128.628906 L 261.085938 125.640625 L 264.078125 125.628906 M 258.105469 128.640625 L 255.113281 128.648438 L 255.105469 125.660156 L 258.097656 125.648438 M 252.125 128.660156 L 249.132812 128.667969 L 249.121094 125.679688 L 252.113281 125.667969 M 246.140625 128.679688 L 243.148438 128.6875 L 243.140625 125.695312 L 246.132812 125.6875 M 240.15625 128.699219 L 237.167969 128.707031 L 237.15625 125.714844 L 240.148438 125.707031 M 234.175781 128.71875 L 231.183594 128.726562 L 231.175781 125.734375 L 234.164062 125.726562 M 228.191406 128.738281 L 225.203125 128.746094 L 225.191406 125.753906 L 228.183594 125.746094 M 222.210938 128.753906 L 219.21875 128.765625 L 219.210938 125.773438 L 222.199219 125.765625 M 216.226562 128.773438 L 213.238281 128.785156 L 213.226562 125.792969 L 216.21875 125.785156 M 210.246094 128.792969 L 207.253906 128.804688 L 207.242188 125.8125 L 210.234375 125.800781 M 204.261719 128.8125 L 201.269531 128.824219 L 201.261719 125.832031 L 204.253906 125.820312 M 198.28125 128.832031 L 195.289062 128.84375 L 195.277344 125.851562 L 198.269531 125.839844 M 192.296875 128.851562 L 189.304688 128.859375 L 189.296875 125.871094 L 192.289062 125.859375 M 186.316406 128.871094 L 183.324219 128.878906 L 183.3125 125.890625 L 186.304688 125.878906 M 180.332031 128.890625 L 177.339844 128.898438 L 177.332031 125.910156 L 180.324219 125.898438 M 174.347656 128.910156 L 171.359375 128.917969 L 171.347656 125.925781 L 174.339844 125.917969 M 168.367188 128.929688 L 165.375 128.9375 L 165.367188 125.945312 L 168.355469 125.9375 M 162.382812 128.949219 L 159.394531 128.957031 L 159.382812 125.964844 L 162.375 125.957031 M 156.402344 128.96875 L 153.410156 128.976562 L 153.402344 125.984375 L 156.390625 125.976562 M 150.417969 128.984375 L 147.425781 128.996094 L 147.417969 126.003906 L 150.410156 125.996094 M 144.4375 129.003906 L 141.445312 129.015625 L 141.433594 126.023438 L 144.425781 126.015625 M 138.453125 129.023438 L 135.460938 129.035156 L 135.453125 126.042969 L 138.445312 126.03125 M 132.472656 129.042969 L 129.480469 129.054688 L 129.46875 126.0625 L 132.460938 126.050781 M 126.488281 129.0625 L 123.496094 129.074219 L 123.488281 126.082031 L 126.480469 126.070312 M 120.503906 129.082031 L 117.515625 129.089844 L 117.503906 126.101562 L 120.496094 126.089844 M 114.523438 129.101562 L 111.53125 129.109375 L 111.523438 126.121094 L 114.511719 126.109375 M 108.539062 129.121094 L 105.550781 129.128906 L 105.539062 126.140625 L 108.53125 126.128906 M 102.558594 129.140625 L 99.566406 129.148438 L 99.558594 126.15625 L 102.546875 126.148438 M 96.574219 129.160156 L 93.582031 129.167969 L 93.574219 126.175781 L 96.566406 126.167969 M 90.59375 129.179688 L 87.601562 129.1875 L 87.589844 126.195312 L 90.582031 126.1875 M 84.609375 129.199219 L 81.617188 129.207031 L 81.609375 126.214844 L 84.601562 126.207031 M 78.628906 129.214844 L 75.636719 129.226562 L 75.625 126.234375 L 78.617188 126.226562 M 72.644531 129.234375 L 69.652344 129.246094 L 69.644531 126.253906 L 72.636719 126.246094 M 66.660156 129.253906 L 63.671875 129.265625 L 63.660156 126.273438 L 66.652344 126.261719 M 60.679688 129.273438 L 57.6875 129.285156 L 57.679688 126.292969 L 60.667969 126.28125 M 54.695312 129.292969 L 51.707031 129.304688 L 51.695312 126.3125 L 54.6875 126.300781 M 48.714844 129.3125 L 45.722656 129.320312 L 45.714844 126.332031 L 48.703125 126.320312 " fill-opacity="1" fill-rule="nonzero"/><path fill="#c1ccce" d="M 509.371094 127.832031 L 509.371094 124.839844 L 512.363281 124.839844 L 512.363281 127.832031 M 509.371094 121.847656 L 509.371094 118.855469 L 512.363281 118.855469 L 512.363281 121.847656 M 509.371094 115.863281 L 509.371094 112.875 L 512.363281 112.875 L 512.363281 115.863281 M 509.371094 109.882812 L 509.371094 106.890625 L 512.363281 106.890625 L 512.363281 109.882812 M 509.371094 103.898438 L 509.371094 100.910156 L 512.363281 100.910156 L 512.363281 103.898438 M 509.371094 97.917969 L 509.371094 94.925781 L 512.363281 94.925781 L 512.363281 97.917969 M 509.371094 91.933594 L 509.371094 88.941406 L 512.363281 88.941406 L 512.363281 91.933594 M 509.371094 85.953125 L 509.371094 82.960938 L 512.363281 82.960938 L 512.363281 85.953125 M 509.371094 79.96875 L 509.371094 76.976562 L 512.363281 76.976562 L 512.363281 79.96875 M 509.371094 73.988281 L 509.371094 70.996094 L 512.363281 70.996094 L 512.363281 73.988281 M 509.371094 68.003906 L 509.371094 65.011719 L 512.363281 65.011719 L 512.363281 68.003906 M 509.371094 62.019531 L 509.371094 59.03125 L 512.363281 59.03125 L 512.363281 62.019531 M 509.371094 56.039062 L 509.371094 53.046875 L 512.363281 53.046875 L 512.363281 56.039062 M 509.371094 50.054688 L 509.371094 47.210938 L 512.363281 47.210938 L 512.363281 50.054688 " fill-opacity="1" fill-rule="nonzero"/><path fill="#c1ccce" d="M 509.371094 44.222656 L 506.378906 44.230469 L 506.371094 41.238281 L 509.363281 41.230469 M 503.390625 44.242188 L 500.398438 44.25 L 500.386719 41.257812 L 503.378906 41.25 M 497.40625 44.261719 L 494.414062 44.269531 L 494.40625 41.277344 L 497.398438 41.269531 M 491.421875 44.28125 L 488.433594 44.289062 L 488.421875 41.296875 L 491.414062 41.289062 M 485.441406 44.296875 L 482.449219 44.308594 L 482.441406 41.316406 L 485.429688 41.308594 M 479.457031 44.316406 L 476.46875 44.328125 L 476.457031 41.335938 L 479.449219 41.328125 M 473.476562 44.335938 L 470.484375 44.347656 L 470.476562 41.355469 L 473.464844 41.34375 M 467.492188 44.355469 L 464.5 44.367188 L 464.492188 41.375 L 467.484375 41.363281 M 461.511719 44.375 L 458.519531 44.386719 L 458.507812 41.394531 L 461.5 41.382812 M 455.527344 44.394531 L 452.535156 44.402344 L 452.527344 41.414062 L 455.519531 41.402344 M 449.546875 44.414062 L 446.554688 44.421875 L 446.542969 41.433594 L 449.535156 41.421875 M 443.5625 44.433594 L 440.570312 44.441406 L 440.5625 41.453125 L 443.554688 41.441406 M 437.582031 44.453125 L 434.589844 44.460938 L 434.578125 41.46875 L 437.570312 41.460938 M 431.597656 44.472656 L 428.605469 44.480469 L 428.597656 41.488281 L 431.585938 41.480469 M 425.613281 44.492188 L 422.625 44.5 L 422.613281 41.507812 L 425.605469 41.5 M 419.632812 44.511719 L 416.640625 44.519531 L 416.632812 41.527344 L 419.621094 41.519531 M 413.648438 44.527344 L 410.660156 44.539062 L 410.648438 41.546875 L 413.640625 41.539062 M 407.667969 44.546875 L 404.675781 44.558594 L 404.667969 41.566406 L 407.65625 41.558594 M 401.683594 44.566406 L 398.691406 44.578125 L 398.683594 41.585938 L 401.675781 41.578125 M 395.703125 44.585938 L 392.710938 44.597656 L 392.699219 41.605469 L 395.691406 41.59375 M 389.71875 44.605469 L 386.726562 44.617188 L 386.71875 41.625 L 389.710938 41.613281 M 383.738281 44.625 L 380.746094 44.632812 L 380.734375 41.644531 L 383.726562 41.632812 M 377.753906 44.644531 L 374.761719 44.652344 L 374.753906 41.664062 L 377.746094 41.652344 M 371.769531 44.664062 L 368.78125 44.671875 L 368.769531 41.683594 L 371.761719 41.671875 M 365.789062 44.683594 L 362.796875 44.691406 L 362.789062 41.699219 L 365.777344 41.691406 M 359.804688 44.703125 L 356.816406 44.710938 L 356.804688 41.71875 L 359.796875 41.710938 M 353.824219 44.722656 L 350.832031 44.730469 L 350.824219 41.738281 L 353.8125 41.730469 M 347.839844 44.742188 L 344.847656 44.75 L 344.839844 41.757812 L 347.832031 41.75 M 341.859375 44.757812 L 338.867188 44.769531 L 338.855469 41.777344 L 341.847656 41.769531 M 335.875 44.777344 L 332.882812 44.789062 L 332.875 41.796875 L 335.867188 41.789062 M 329.894531 44.796875 L 326.902344 44.808594 L 326.890625 41.816406 L 329.882812 41.808594 M 323.910156 44.816406 L 320.917969 44.828125 L 320.910156 41.835938 L 323.902344 41.824219 M 317.925781 44.835938 L 314.9375 44.847656 L 314.925781 41.855469 L 317.917969 41.84375 M 311.945312 44.855469 L 308.953125 44.863281 L 308.945312 41.875 L 311.933594 41.863281 M 305.960938 44.875 L 302.972656 44.882812 L 302.960938 41.894531 L 305.953125 41.882812 M 299.980469 44.894531 L 296.988281 44.902344 L 296.980469 41.914062 L 299.96875 41.902344 M 293.996094 44.914062 L 291.003906 44.921875 L 290.996094 41.929688 L 293.988281 41.921875 M 288.015625 44.933594 L 285.023438 44.941406 L 285.011719 41.949219 L 288.003906 41.941406 M 282.03125 44.953125 L 279.039062 44.960938 L 279.03125 41.96875 L 282.023438 41.960938 M 276.050781 44.972656 L 273.058594 44.980469 L 273.046875 41.988281 L 276.039062 41.980469 M 270.066406 44.988281 L 267.074219 45 L 267.066406 42.007812 L 270.058594 42 M 264.082031 45.007812 L 261.09375 45.019531 L 261.082031 42.027344 L 264.074219 42.019531 M 258.101562 45.027344 L 255.109375 45.039062 L 255.101562 42.046875 L 258.089844 42.039062 M 252.117188 45.046875 L 249.128906 45.058594 L 249.117188 42.066406 L 252.109375 42.054688 M 246.136719 45.066406 L 243.144531 45.078125 L 243.136719 42.085938 L 246.125 42.074219 M 240.152344 45.085938 L 237.160156 45.097656 L 237.152344 42.105469 L 240.144531 42.09375 M 234.171875 45.105469 L 231.179688 45.113281 L 231.167969 42.125 L 234.160156 42.113281 M 228.1875 45.125 L 225.195312 45.132812 L 225.1875 42.144531 L 228.179688 42.132812 M 222.207031 45.144531 L 219.214844 45.152344 L 219.203125 42.160156 L 222.195312 42.152344 M 216.222656 45.164062 L 213.230469 45.171875 L 213.222656 42.179688 L 216.214844 42.171875 M 210.242188 45.183594 L 207.25 45.191406 L 207.238281 42.199219 L 210.230469 42.191406 M 204.257812 45.203125 L 201.265625 45.210938 L 201.257812 42.21875 L 204.246094 42.210938 M 198.273438 45.21875 L 195.285156 45.230469 L 195.273438 42.238281 L 198.265625 42.230469 M 192.292969 45.238281 L 189.300781 45.25 L 189.292969 42.257812 L 192.28125 42.25 M 186.308594 45.257812 L 183.320312 45.269531 L 183.308594 42.277344 L 186.300781 42.269531 M 180.328125 45.277344 L 177.335938 45.289062 L 177.328125 42.296875 L 180.316406 42.285156 M 174.34375 45.296875 L 171.351562 45.308594 L 171.34375 42.316406 L 174.335938 42.304688 M 168.363281 45.316406 L 165.371094 45.328125 L 165.359375 42.335938 L 168.351562 42.324219 M 162.378906 45.335938 L 159.386719 45.34375 L 159.378906 42.355469 L 162.371094 42.34375 M 156.398438 45.355469 L 153.40625 45.363281 L 153.394531 42.375 L 156.386719 42.363281 M 150.414062 45.375 L 147.421875 45.382812 L 147.414062 42.390625 L 150.40625 42.382812 M 144.429688 45.394531 L 141.441406 45.402344 L 141.429688 42.410156 L 144.421875 42.402344 M 138.449219 45.414062 L 135.457031 45.421875 L 135.449219 42.429688 L 138.4375 42.421875 M 132.464844 45.433594 L 129.476562 45.441406 L 129.464844 42.449219 L 132.457031 42.441406 M 126.484375 45.449219 L 123.492188 45.460938 L 123.484375 42.46875 L 126.472656 42.460938 M 120.5 45.46875 L 117.507812 45.480469 L 117.5 42.488281 L 120.492188 42.480469 M 114.519531 45.488281 L 111.527344 45.5 L 111.515625 42.507812 L 114.507812 42.5 M 108.535156 45.507812 L 105.542969 45.519531 L 105.535156 42.527344 L 108.527344 42.515625 M 102.554688 45.527344 L 99.5625 45.539062 L 99.550781 42.546875 L 102.542969 42.535156 M 96.570312 45.546875 L 93.578125 45.558594 L 93.570312 42.566406 L 96.5625 42.554688 M 90.585938 45.566406 L 87.597656 45.574219 L 87.585938 42.585938 L 90.578125 42.574219 M 84.605469 45.585938 L 81.613281 45.59375 L 81.605469 42.605469 L 84.59375 42.59375 M 78.621094 45.605469 L 75.632812 45.613281 L 75.621094 42.621094 L 78.613281 42.613281 M 72.640625 45.625 L 69.648438 45.632812 L 69.640625 42.640625 L 72.628906 42.632812 M 66.65625 45.644531 L 63.664062 45.652344 L 63.65625 42.660156 L 66.648438 42.652344 M 60.675781 45.664062 L 57.683594 45.671875 L 57.671875 42.679688 L 60.664062 42.671875 M 54.691406 45.679688 L 51.699219 45.691406 L 51.691406 42.699219 L 54.683594 42.691406 M 48.710938 45.699219 L 45.71875 45.710938 L 45.707031 42.71875 L 48.699219 42.710938 " fill-opacity="1" fill-rule="nonzero"/><g clip-path="url(#804126a28e)"><path fill="#fcce0b" d="M 0.800781 0 L 43.527344 0 L 43.527344 42.726562 L 0.800781 42.726562 Z M 0.800781 0 " fill-opacity="1" fill-rule="nonzero"/></g><g fill="#000000" fill-opacity="1"><g transform="translate(7.499513, 25.85004)"><g><path d="M 0.453125 0 L 0.453125 -1.390625 L 2.515625 -1.390625 L 2.515625 -6.71875 L 2.375 -6.75 C 2.082031 -6.613281 1.796875 -6.503906 1.515625 -6.421875 C 1.234375 -6.335938 0.910156 -6.269531 0.546875 -6.21875 L 0.546875 -7.671875 C 1.492188 -7.867188 2.257812 -8.160156 2.84375 -8.546875 L 4.1875 -8.546875 L 4.1875 -1.390625 L 6.03125 -1.390625 L 6.03125 0 Z M 0.453125 0 "/></g></g><g transform="translate(13.803505, 25.85004)"><g><path d="M 1.578125 1.21875 L 0.03125 1.21875 L 3.21875 -9.03125 L 4.765625 -9.03125 Z M 1.578125 1.21875 "/></g></g><g transform="translate(18.822161, 25.85004)"><g><path d="M 5.796875 0 L 4.1875 0 L 4.1875 -1.859375 L 0.296875 -1.859375 L 0.296875 -3.21875 L 3.640625 -8.546875 L 5.796875 -8.546875 L 5.796875 -3.21875 L 7.125 -3.21875 L 7.125 -1.859375 L 5.796875 -1.859375 Z M 2.015625 -3.34375 L 2.078125 -3.21875 L 4.1875 -3.21875 L 4.1875 -6.53125 L 4.046875 -6.546875 Z M 2.015625 -3.34375 "/></g></g><g transform="translate(26.26543, 25.85004)"><g/></g><g transform="translate(29.087328, 25.85004)"><g><path d="M 1.875 0 L 0.140625 0 L 2.671875 -4.390625 L 0.265625 -8.546875 L 2.0625 -8.546875 L 3.828125 -5.484375 L 3.984375 -5.484375 L 5.78125 -8.546875 L 7.484375 -8.546875 L 5.078125 -4.390625 L 7.609375 0 L 5.828125 0 L 3.921875 -3.296875 L 3.78125 -3.296875 Z M 1.875 0 "/></g></g></g><g clip-path="url(#2bae02573f)"><path fill="#fcce0b" d="M 510.871094 128.808594 L 553.597656 128.808594 L 553.597656 171.535156 L 510.871094 171.535156 Z M 510.871094 128.808594 " fill-opacity="1" fill-rule="nonzero"/></g><g fill="#000000" fill-opacity="1"><g transform="translate(517.568305, 154.658179)"><g><path d="M 0.453125 0 L 0.453125 -1.390625 L 2.515625 -1.390625 L 2.515625 -6.71875 L 2.375 -6.75 C 2.082031 -6.613281 1.796875 -6.503906 1.515625 -6.421875 C 1.234375 -6.335938 0.910156 -6.269531 0.546875 -6.21875 L 0.546875 -7.671875 C 1.492188 -7.867188 2.257812 -8.160156 2.84375 -8.546875 L 4.1875 -8.546875 L 4.1875 -1.390625 L 6.03125 -1.390625 L 6.03125 0 Z M 0.453125 0 "/></g></g><g transform="translate(523.872298, 154.658179)"><g><path d="M 1.578125 1.21875 L 0.03125 1.21875 L 3.21875 -9.03125 L 4.765625 -9.03125 Z M 1.578125 1.21875 "/></g></g><g transform="translate(528.890954, 154.658179)"><g><path d="M 5.796875 0 L 4.1875 0 L 4.1875 -1.859375 L 0.296875 -1.859375 L 0.296875 -3.21875 L 3.640625 -8.546875 L 5.796875 -8.546875 L 5.796875 -3.21875 L 7.125 -3.21875 L 7.125 -1.859375 L 5.796875 -1.859375 Z M 2.015625 -3.34375 L 2.078125 -3.21875 L 4.1875 -3.21875 L 4.1875 -6.53125 L 4.046875 -6.546875 Z M 2.015625 -3.34375 "/></g></g><g transform="translate(536.334222, 154.658179)"><g/></g><g transform="translate(539.156121, 154.658179)"><g><path d="M 1.875 0 L 0.140625 0 L 2.671875 -4.390625 L 0.265625 -8.546875 L 2.0625 -8.546875 L 3.828125 -5.484375 L 3.984375 -5.484375 L 5.78125 -8.546875 L 7.484375 -8.546875 L 5.078125 -4.390625 L 7.609375 0 L 5.828125 0 L 3.921875 -3.296875 L 3.78125 -3.296875 Z M 1.875 0 "/></g></g></g><g clip-path="url(#e040c27539)"><path fill="#fcce0b" d="M 510.875 0 L 553.601562 0 L 553.601562 42.726562 L 510.875 42.726562 Z M 510.875 0 " fill-opacity="1" fill-rule="nonzero"/></g><g fill="#000000" fill-opacity="1"><g transform="translate(517.573091, 25.85004)"><g><path d="M 0.453125 0 L 0.453125 -1.390625 L 2.515625 -1.390625 L 2.515625 -6.71875 L 2.375 -6.75 C 2.082031 -6.613281 1.796875 -6.503906 1.515625 -6.421875 C 1.234375 -6.335938 0.910156 -6.269531 0.546875 -6.21875 L 0.546875 -7.671875 C 1.492188 -7.867188 2.257812 -8.160156 2.84375 -8.546875 L 4.1875 -8.546875 L 4.1875 -1.390625 L 6.03125 -1.390625 L 6.03125 0 Z M 0.453125 0 "/></g></g><g transform="translate(523.877084, 25.85004)"><g><path d="M 1.578125 1.21875 L 0.03125 1.21875 L 3.21875 -9.03125 L 4.765625 -9.03125 Z M 1.578125 1.21875 "/></g></g><g transform="translate(528.89574, 25.85004)"><g><path d="M 5.796875 0 L 4.1875 0 L 4.1875 -1.859375 L 0.296875 -1.859375 L 0.296875 -3.21875 L 3.640625 -8.546875 L 5.796875 -8.546875 L 5.796875 -3.21875 L 7.125 -3.21875 L 7.125 -1.859375 L 5.796875 -1.859375 Z M 2.015625 -3.34375 L 2.078125 -3.21875 L 4.1875 -3.21875 L 4.1875 -6.53125 L 4.046875 -6.546875 Z M 2.015625 -3.34375 "/></g></g><g transform="translate(536.339008, 25.85004)"><g/></g><g transform="translate(539.160907, 25.85004)"><g><path d="M 1.875 0 L 0.140625 0 L 2.671875 -4.390625 L 0.265625 -8.546875 L 2.0625 -8.546875 L 3.828125 -5.484375 L 3.984375 -5.484375 L 5.78125 -8.546875 L 7.484375 -8.546875 L 5.078125 -4.390625 L 7.609375 0 L 5.828125 0 L 3.921875 -3.296875 L 3.78125 -3.296875 Z M 1.875 0 "/></g></g></g><g fill="#000000" fill-opacity="1"><g transform="translate(22.169879, 90.514644)"><g><path d="M 1.875 0 L 0.140625 0 L 2.671875 -4.390625 L 0.265625 -8.546875 L 2.0625 -8.546875 L 3.828125 -5.484375 L 3.984375 -5.484375 L 5.78125 -8.546875 L 7.484375 -8.546875 L 5.078125 -4.390625 L 7.609375 0 L 5.828125 0 L 3.921875 -3.296875 L 3.78125 -3.296875 Z M 1.875 0 "/></g></g></g></svg>