<svg xmlns="http://www.w3.org/2000/svg" xmlns:xlink="http://www.w3.org/1999/xlink" width="346" zoomAndPan="magnify" viewBox="0 0 259.5 259.500006" height="346" preserveAspectRatio="xMidYMid meet" version="1.0"><defs><g/><clipPath id="ffeab21fda"><path d="M 44.265625 44.265625 L 214.519531 44.265625 L 214.519531 214.519531 L 44.265625 214.519531 Z M 44.265625 44.265625 " clip-rule="nonzero"/></clipPath><clipPath id="ff13cae204"><path d="M 129.394531 44.265625 C 82.378906 44.265625 44.265625 82.378906 44.265625 129.394531 C 44.265625 176.40625 82.378906 214.519531 129.394531 214.519531 C 176.40625 214.519531 214.519531 176.40625 214.519531 129.394531 C 214.519531 82.378906 176.40625 44.265625 129.394531 44.265625 Z M 129.394531 44.265625 " clip-rule="nonzero"/></clipPath><clipPath id="e797e282bb"><path d="M 77.429688 60.582031 L 181.480469 60.582031 L 181.480469 198.316406 L 77.429688 198.316406 Z M 77.429688 60.582031 " clip-rule="nonzero"/></clipPath><clipPath id="a0d7d54ea9"><path d="M 0 216.019531 L 42.765625 216.019531 L 42.765625 258.785156 L 0 258.785156 Z M 0 216.019531 " clip-rule="nonzero"/></clipPath><clipPath id="0cb2af1ab8"><path d="M 215.789062 216.019531 L 258.554688 216.019531 L 258.554688 258.785156 L 215.789062 258.785156 Z M 215.789062 216.019531 " clip-rule="nonzero"/></clipPath><clipPath id="d59097b9a0"><path d="M 0 0 L 42.765625 0 L 42.765625 42.765625 L 0 42.765625 Z M 0 0 " clip-rule="nonzero"/></clipPath><clipPath id="f3ae7a0635"><path d="M 215.789062 0 L 258.554688 0 L 258.554688 42.765625 L 215.789062 42.765625 Z M 215.789062 0 " clip-rule="nonzero"/></clipPath></defs><g clip-path="url(#ffeab21fda)"><g clip-path="url(#ff13cae204)"><path fill="#fcce0b" d="M 44.265625 44.265625 L 214.519531 44.265625 L 214.519531 214.519531 L 44.265625 214.519531 Z M 44.265625 44.265625 " fill-opacity="1" fill-rule="nonzero"/></g></g><g clip-path="url(#e797e282bb)"><path fill="#ffffff" d="M 77.453125 127.839844 C 77.453125 120.828125 78.828125 114.023438 81.535156 107.617188 C 84.152344 101.433594 87.898438 95.875 92.667969 91.109375 C 97.4375 86.335938 102.992188 82.59375 109.179688 79.976562 C 115.585938 77.265625 122.386719 75.894531 129.398438 75.894531 C 134.578125 75.894531 139.679688 76.652344 144.582031 78.152344 L 156.910156 61.796875 C 157.675781 60.78125 159.121094 60.578125 160.140625 61.347656 C 161.15625 62.113281 161.359375 63.558594 160.589844 64.574219 L 127.804688 108.058594 C 127.699219 108.199219 127.578125 108.324219 127.449219 108.433594 C 130.71875 112.199219 131.039062 117.875 127.917969 122.011719 L 121.789062 130.144531 C 118.203125 134.898438 111.421875 135.847656 106.667969 132.265625 C 101.914062 128.679688 100.964844 121.898438 104.546875 117.144531 C 104.578125 117.109375 104.605469 117.074219 104.636719 117.039062 C 104.660156 117 104.6875 116.960938 104.714844 116.921875 L 110.679688 109.011719 C 113.800781 104.875 119.34375 103.621094 123.859375 105.726562 C 123.929688 105.574219 124.015625 105.425781 124.125 105.28125 L 141.792969 81.851562 C 137.769531 80.769531 133.613281 80.222656 129.398438 80.222656 C 103.144531 80.222656 81.78125 101.582031 81.78125 127.839844 C 81.78125 142.28125 88.230469 155.78125 99.472656 164.878906 C 100.402344 165.628906 100.546875 166.992188 99.796875 167.921875 C 99.367188 168.449219 98.742188 168.726562 98.113281 168.726562 C 97.632812 168.726562 97.152344 168.566406 96.753906 168.242188 C 84.488281 158.324219 77.453125 143.597656 77.453125 127.839844 Z M 125.074219 143.988281 C 126.152344 142.554688 127.726562 141.632812 129.503906 141.382812 C 129.824219 141.339844 130.140625 141.316406 130.457031 141.316406 C 131.902344 141.316406 133.308594 141.78125 134.480469 142.667969 C 135.910156 143.746094 136.835938 145.320312 137.085938 147.097656 C 137.335938 148.875 136.878906 150.640625 135.800781 152.070312 C 134.722656 153.5 133.148438 154.425781 131.371094 154.675781 C 129.589844 154.925781 127.824219 154.46875 126.394531 153.390625 C 124.964844 152.3125 124.039062 150.742188 123.789062 148.960938 C 123.542969 147.183594 123.996094 145.417969 125.074219 143.988281 Z M 174.960938 152.800781 C 179.140625 145.191406 181.34375 136.574219 181.34375 127.839844 C 181.34375 110.601562 172.816406 94.519531 158.535156 84.828125 C 157.546875 84.15625 156.203125 84.414062 155.53125 85.402344 C 154.859375 86.390625 155.117188 87.738281 156.105469 88.410156 C 169.199219 97.296875 177.015625 112.035156 177.015625 127.839844 C 177.015625 136.078125 174.875 144.199219 170.832031 151.320312 C 170.59375 151.742188 170.503906 152.226562 170.574219 152.703125 L 175.246094 184.546875 L 148.136719 172.347656 C 147.609375 172.109375 147.011719 172.09375 146.472656 172.300781 C 141.027344 174.394531 135.285156 175.453125 129.398438 175.453125 C 124.222656 175.453125 119.167969 174.636719 114.328125 173.019531 L 126.042969 157.484375 C 128.09375 158.4375 130.421875 158.695312 132.65625 158.210938 C 135.09375 157.683594 137.261719 156.296875 138.761719 154.304688 L 152.949219 135.488281 C 153.566406 134.671875 153.402344 133.507812 152.585938 132.890625 C 151.769531 132.273438 150.605469 132.4375 149.988281 133.253906 L 140.597656 145.710938 C 140.191406 143.933594 139.332031 142.292969 138.097656 140.953125 L 146.105469 130.328125 C 146.722656 129.511719 146.558594 128.347656 145.742188 127.730469 C 145.347656 127.433594 144.859375 127.304688 144.367188 127.375 C 143.878906 127.445312 143.441406 127.699219 143.144531 128.09375 L 135.132812 138.71875 C 133.507812 137.898438 131.691406 137.523438 129.875 137.625 L 139.261719 125.167969 C 139.5625 124.773438 139.6875 124.285156 139.617188 123.792969 C 139.550781 123.304688 139.292969 122.871094 138.898438 122.570312 C 138.503906 122.273438 138.015625 122.144531 137.523438 122.214844 C 137.035156 122.28125 136.597656 122.539062 136.300781 122.933594 L 122.113281 141.753906 C 120.613281 143.742188 119.875 146.207031 120.039062 148.699219 C 120.1875 150.980469 121.078125 153.144531 122.558594 154.855469 L 109.578125 172.074219 C 109.164062 172.304688 108.824219 172.671875 108.628906 173.144531 C 108.585938 173.25 108.558594 173.355469 108.53125 173.460938 L 92.769531 194.367188 C 92.355469 194.917969 92.125 195.566406 92.128906 196.191406 C 92.128906 196.867188 92.40625 197.464844 92.890625 197.832031 C 93.222656 198.082031 93.617188 198.199219 94.03125 198.199219 C 94.816406 198.199219 95.667969 197.769531 96.253906 196.992188 L 111.589844 176.648438 C 117.285156 178.730469 123.265625 179.78125 129.398438 179.78125 C 135.511719 179.78125 141.484375 178.734375 147.171875 176.660156 L 177.074219 190.117188 C 177.355469 190.246094 177.660156 190.308594 177.960938 190.308594 C 178.425781 190.308594 178.882812 190.15625 179.265625 189.871094 C 179.894531 189.394531 180.21875 188.609375 180.101562 187.828125 L 174.960938 152.800781 " fill-opacity="1" fill-rule="nonzero"/></g><path fill="#c1ccce" d="M 44.265625 214.519531 L 47.257812 214.519531 L 47.257812 217.515625 L 44.265625 217.515625 M 50.253906 214.519531 L 53.246094 214.519531 L 53.246094 217.515625 L 50.253906 217.515625 M 56.242188 214.519531 L 59.234375 214.519531 L 59.234375 217.515625 L 56.242188 217.515625 M 62.230469 214.519531 L 65.222656 214.519531 L 65.222656 217.515625 L 62.230469 217.515625 M 68.21875 214.519531 L 71.210938 214.519531 L 71.210938 217.515625 L 68.21875 217.515625 M 74.207031 214.519531 L 77.203125 214.519531 L 77.203125 217.515625 L 74.207031 217.515625 M 80.195312 214.519531 L 83.191406 214.519531 L 83.191406 217.515625 L 80.195312 217.515625 M 86.183594 214.519531 L 89.179688 214.519531 L 89.179688 217.515625 L 86.183594 217.515625 M 92.171875 214.519531 L 95.167969 214.519531 L 95.167969 217.515625 L 92.171875 217.515625 M 98.160156 214.519531 L 101.15625 214.519531 L 101.15625 217.515625 L 98.160156 217.515625 M 104.148438 214.519531 L 107.144531 214.519531 L 107.144531 217.515625 L 104.148438 217.515625 M 110.136719 214.519531 L 113.132812 214.519531 L 113.132812 217.515625 L 110.136719 217.515625 M 116.125 214.519531 L 119.121094 214.519531 L 119.121094 217.515625 L 116.125 217.515625 M 122.113281 214.519531 L 125.109375 214.519531 L 125.109375 217.515625 L 122.113281 217.515625 M 128.101562 214.519531 L 131.097656 214.519531 L 131.097656 217.515625 L 128.101562 217.515625 M 134.089844 214.519531 L 137.085938 214.519531 L 137.085938 217.515625 L 134.089844 217.515625 M 140.078125 214.519531 L 143.074219 214.519531 L 143.074219 217.515625 L 140.078125 217.515625 M 146.070312 214.519531 L 149.0625 214.519531 L 149.0625 217.515625 L 146.070312 217.515625 M 152.058594 214.519531 L 155.050781 214.519531 L 155.050781 217.515625 L 152.058594 217.515625 M 158.046875 214.519531 L 161.039062 214.519531 L 161.039062 217.515625 L 158.046875 217.515625 M 164.035156 214.519531 L 167.027344 214.519531 L 167.027344 217.515625 L 164.035156 217.515625 M 170.023438 214.519531 L 173.015625 214.519531 L 173.015625 217.515625 L 170.023438 217.515625 M 176.011719 214.519531 L 179.003906 214.519531 L 179.003906 217.515625 L 176.011719 217.515625 M 182 214.519531 L 184.992188 214.519531 L 184.992188 217.515625 L 182 217.515625 M 187.988281 214.519531 L 190.980469 214.519531 L 190.980469 217.515625 L 187.988281 217.515625 M 193.976562 214.519531 L 196.96875 214.519531 L 196.96875 217.515625 L 193.976562 217.515625 M 199.964844 214.519531 L 202.957031 214.519531 L 202.957031 217.515625 L 199.964844 217.515625 M 205.953125 214.519531 L 208.949219 214.519531 L 208.949219 217.515625 L 205.953125 217.515625 M 211.941406 214.519531 L 214.519531 214.519531 L 214.519531 217.515625 L 211.941406 217.515625 " fill-opacity="1" fill-rule="nonzero"/><path fill="#c1ccce" d="M 41.265625 214.519531 L 41.265625 211.523438 L 44.261719 211.523438 L 44.261719 214.519531 M 41.265625 208.527344 L 41.265625 205.535156 L 44.261719 205.535156 L 44.261719 208.527344 M 41.265625 202.539062 L 41.265625 199.546875 L 44.261719 199.546875 L 44.261719 202.539062 M 41.265625 196.550781 L 41.265625 193.558594 L 44.261719 193.558594 L 44.261719 196.550781 M 41.265625 190.5625 L 41.265625 187.570312 L 44.261719 187.570312 L 44.261719 190.5625 M 41.265625 184.574219 L 41.265625 181.582031 L 44.261719 181.582031 L 44.261719 184.574219 M 41.265625 178.585938 L 41.265625 175.59375 L 44.261719 175.59375 L 44.261719 178.585938 M 41.265625 172.597656 L 41.265625 169.605469 L 44.261719 169.605469 L 44.261719 172.597656 M 41.265625 166.609375 L 41.265625 163.617188 L 44.261719 163.617188 L 44.261719 166.609375 M 41.265625 160.621094 L 41.265625 157.628906 L 44.261719 157.628906 L 44.261719 160.621094 M 41.265625 154.632812 L 41.265625 151.640625 L 44.261719 151.640625 L 44.261719 154.632812 M 41.265625 148.644531 L 41.265625 145.652344 L 44.261719 145.652344 L 44.261719 148.644531 M 41.265625 142.65625 L 41.265625 139.660156 L 44.261719 139.660156 L 44.261719 142.65625 M 41.265625 136.667969 L 41.265625 133.671875 L 44.261719 133.671875 L 44.261719 136.667969 M 41.265625 130.679688 L 41.265625 127.683594 L 44.261719 127.683594 L 44.261719 130.679688 M 41.265625 124.691406 L 41.265625 121.695312 L 44.261719 121.695312 L 44.261719 124.691406 M 41.265625 118.703125 L 41.265625 115.707031 L 44.261719 115.707031 L 44.261719 118.703125 M 41.265625 112.714844 L 41.265625 109.71875 L 44.261719 109.71875 L 44.261719 112.714844 M 41.265625 106.726562 L 41.265625 103.730469 L 44.261719 103.730469 L 44.261719 106.726562 M 41.265625 100.738281 L 41.265625 97.742188 L 44.261719 97.742188 L 44.261719 100.738281 M 41.265625 94.75 L 41.265625 91.753906 L 44.261719 91.753906 L 44.261719 94.75 M 41.265625 88.761719 L 41.265625 85.765625 L 44.261719 85.765625 L 44.261719 88.761719 M 41.265625 82.773438 L 41.265625 79.777344 L 44.261719 79.777344 L 44.261719 82.773438 M 41.265625 76.78125 L 41.265625 73.789062 L 44.261719 73.789062 L 44.261719 76.78125 M 41.265625 70.792969 L 41.265625 67.800781 L 44.261719 67.800781 L 44.261719 70.792969 M 41.265625 64.804688 L 41.265625 61.8125 L 44.261719 61.8125 L 44.261719 64.804688 M 41.265625 58.816406 L 41.265625 55.824219 L 44.261719 55.824219 L 44.261719 58.816406 M 41.265625 52.828125 L 41.265625 49.835938 L 44.261719 49.835938 L 44.261719 52.828125 M 41.265625 46.839844 L 41.265625 44.261719 L 44.261719 44.261719 L 44.261719 46.839844 " fill-opacity="1" fill-rule="nonzero"/><path fill="#c1ccce" d="M 214.289062 216.015625 L 214.289062 213.019531 L 217.28125 213.019531 L 217.28125 216.015625 M 214.289062 210.027344 L 214.289062 207.03125 L 217.28125 207.03125 L 217.28125 210.027344 M 214.289062 204.039062 L 214.289062 201.042969 L 217.28125 201.042969 L 217.28125 204.039062 M 214.289062 198.050781 L 214.289062 195.054688 L 217.28125 195.054688 L 217.28125 198.050781 M 214.289062 192.0625 L 214.289062 189.066406 L 217.28125 189.066406 L 217.28125 192.0625 M 214.289062 186.074219 L 214.289062 183.078125 L 217.28125 183.078125 L 217.28125 186.074219 M 214.289062 180.085938 L 214.289062 177.089844 L 217.28125 177.089844 L 217.28125 180.085938 M 214.289062 174.09375 L 214.289062 171.101562 L 217.28125 171.101562 L 217.28125 174.09375 M 214.289062 168.105469 L 214.289062 165.113281 L 217.28125 165.113281 L 217.28125 168.105469 M 214.289062 162.117188 L 214.289062 159.125 L 217.28125 159.125 L 217.28125 162.117188 M 214.289062 156.128906 L 214.289062 153.136719 L 217.28125 153.136719 L 217.28125 156.128906 M 214.289062 150.140625 L 214.289062 147.148438 L 217.28125 147.148438 L 217.28125 150.140625 M 214.289062 144.152344 L 214.289062 141.160156 L 217.28125 141.160156 L 217.28125 144.152344 M 214.289062 138.164062 L 214.289062 135.171875 L 217.28125 135.171875 L 217.28125 138.164062 M 214.289062 132.175781 L 214.289062 129.183594 L 217.28125 129.183594 L 217.28125 132.175781 M 214.289062 126.1875 L 214.289062 123.195312 L 217.28125 123.195312 L 217.28125 126.1875 M 214.289062 120.199219 L 214.289062 117.207031 L 217.28125 117.207031 L 217.28125 120.199219 M 214.289062 114.210938 L 214.289062 111.21875 L 217.28125 111.21875 L 217.28125 114.210938 M 214.289062 108.222656 L 214.289062 105.226562 L 217.28125 105.226562 L 217.28125 108.222656 M 214.289062 102.234375 L 214.289062 99.238281 L 217.28125 99.238281 L 217.28125 102.234375 M 214.289062 96.246094 L 214.289062 93.25 L 217.28125 93.25 L 217.28125 96.246094 M 214.289062 90.257812 L 214.289062 87.261719 L 217.28125 87.261719 L 217.28125 90.257812 M 214.289062 84.269531 L 214.289062 81.273438 L 217.28125 81.273438 L 217.28125 84.269531 M 214.289062 78.28125 L 214.289062 75.285156 L 217.28125 75.285156 L 217.28125 78.28125 M 214.289062 72.292969 L 214.289062 69.296875 L 217.28125 69.296875 L 217.28125 72.292969 M 214.289062 66.304688 L 214.289062 63.308594 L 217.28125 63.308594 L 217.28125 66.304688 M 214.289062 60.316406 L 214.289062 57.320312 L 217.28125 57.320312 L 217.28125 60.316406 M 214.289062 54.328125 L 214.289062 51.332031 L 217.28125 51.332031 L 217.28125 54.328125 M 214.289062 48.339844 L 214.289062 45.757812 L 217.28125 45.757812 L 217.28125 48.339844 " fill-opacity="1" fill-rule="nonzero"/><path fill="#c1ccce" d="M 44.265625 41.269531 L 47.257812 41.269531 L 47.257812 44.265625 L 44.265625 44.265625 M 50.253906 41.269531 L 53.246094 41.269531 L 53.246094 44.265625 L 50.253906 44.265625 M 56.242188 41.269531 L 59.234375 41.269531 L 59.234375 44.265625 L 56.242188 44.265625 M 62.230469 41.269531 L 65.222656 41.269531 L 65.222656 44.265625 L 62.230469 44.265625 M 68.21875 41.269531 L 71.210938 41.269531 L 71.210938 44.265625 L 68.21875 44.265625 M 74.207031 41.269531 L 77.203125 41.269531 L 77.203125 44.265625 L 74.207031 44.265625 M 80.195312 41.269531 L 83.191406 41.269531 L 83.191406 44.265625 L 80.195312 44.265625 M 86.183594 41.269531 L 89.179688 41.269531 L 89.179688 44.265625 L 86.183594 44.265625 M 92.171875 41.269531 L 95.167969 41.269531 L 95.167969 44.265625 L 92.171875 44.265625 M 98.160156 41.269531 L 101.15625 41.269531 L 101.15625 44.265625 L 98.160156 44.265625 M 104.148438 41.269531 L 107.144531 41.269531 L 107.144531 44.265625 L 104.148438 44.265625 M 110.136719 41.269531 L 113.132812 41.269531 L 113.132812 44.265625 L 110.136719 44.265625 M 116.125 41.269531 L 119.121094 41.269531 L 119.121094 44.265625 L 116.125 44.265625 M 122.113281 41.269531 L 125.109375 41.269531 L 125.109375 44.265625 L 122.113281 44.265625 M 128.101562 41.269531 L 131.097656 41.269531 L 131.097656 44.265625 L 128.101562 44.265625 M 134.089844 41.269531 L 137.085938 41.269531 L 137.085938 44.265625 L 134.089844 44.265625 M 140.078125 41.269531 L 143.074219 41.269531 L 143.074219 44.265625 L 140.078125 44.265625 M 146.070312 41.269531 L 149.0625 41.269531 L 149.0625 44.265625 L 146.070312 44.265625 M 152.058594 41.269531 L 155.050781 41.269531 L 155.050781 44.265625 L 152.058594 44.265625 M 158.046875 41.269531 L 161.039062 41.269531 L 161.039062 44.265625 L 158.046875 44.265625 M 164.035156 41.269531 L 167.027344 41.269531 L 167.027344 44.265625 L 164.035156 44.265625 M 170.023438 41.269531 L 173.015625 41.269531 L 173.015625 44.265625 L 170.023438 44.265625 M 176.011719 41.269531 L 179.003906 41.269531 L 179.003906 44.265625 L 176.011719 44.265625 M 182 41.269531 L 184.992188 41.269531 L 184.992188 44.265625 L 182 44.265625 M 187.988281 41.269531 L 190.980469 41.269531 L 190.980469 44.265625 L 187.988281 44.265625 M 193.976562 41.269531 L 196.96875 41.269531 L 196.96875 44.265625 L 193.976562 44.265625 M 199.964844 41.269531 L 202.957031 41.269531 L 202.957031 44.265625 L 199.964844 44.265625 M 205.953125 41.269531 L 208.949219 41.269531 L 208.949219 44.265625 L 205.953125 44.265625 M 211.941406 41.269531 L 214.519531 41.269531 L 214.519531 44.265625 L 211.941406 44.265625 " fill-opacity="1" fill-rule="nonzero"/><g clip-path="url(#a0d7d54ea9)"><path fill="#fcce0b" d="M 0 216.019531 L 42.765625 216.019531 L 42.765625 258.785156 L 0 258.785156 Z M 0 216.019531 " fill-opacity="1" fill-rule="nonzero"/></g><g fill="#000000" fill-opacity="1"><g transform="translate(8.196286, 241.893015)"><g><path d="M 0.453125 0 L 0.453125 -1.40625 L 2.515625 -1.40625 L 2.515625 -6.71875 L 2.375 -6.765625 C 2.082031 -6.617188 1.796875 -6.503906 1.515625 -6.421875 C 1.234375 -6.335938 0.910156 -6.273438 0.546875 -6.234375 L 0.546875 -7.671875 C 1.492188 -7.867188 2.257812 -8.164062 2.84375 -8.5625 L 4.1875 -8.5625 L 4.1875 -1.40625 L 6.03125 -1.40625 L 6.03125 0 Z M 0.453125 0 "/></g></g><g transform="translate(14.506393, 241.893015)"><g><path d="M 1.578125 1.21875 L 0.03125 1.21875 L 3.21875 -9.046875 L 4.765625 -9.046875 Z M 1.578125 1.21875 "/></g></g><g transform="translate(19.529917, 241.893015)"><g><path d="M 5.8125 0 L 4.1875 0 L 4.1875 -1.859375 L 0.296875 -1.859375 L 0.296875 -3.21875 L 3.640625 -8.5625 L 5.8125 -8.5625 L 5.8125 -3.21875 L 7.125 -3.21875 L 7.125 -1.859375 L 5.8125 -1.859375 Z M 2.03125 -3.34375 L 2.078125 -3.21875 L 4.1875 -3.21875 L 4.1875 -6.53125 L 4.0625 -6.5625 Z M 2.03125 -3.34375 "/></g></g><g transform="translate(26.980405, 241.893015)"><g/></g><g transform="translate(29.80504, 241.893015)"><g><path d="M 1.875 0 L 0.140625 0 L 2.6875 -4.40625 L 0.265625 -8.5625 L 2.0625 -8.5625 L 3.84375 -5.484375 L 3.984375 -5.484375 L 5.78125 -8.5625 L 7.5 -8.5625 L 5.078125 -4.40625 L 7.625 0 L 5.828125 0 L 3.921875 -3.296875 L 3.78125 -3.296875 Z M 1.875 0 "/></g></g></g><g clip-path="url(#0cb2af1ab8)"><path fill="#fcce0b" d="M 215.789062 216.019531 L 258.554688 216.019531 L 258.554688 258.785156 L 215.789062 258.785156 Z M 215.789062 216.019531 " fill-opacity="1" fill-rule="nonzero"/></g><g fill="#000000" fill-opacity="1"><g transform="translate(221.219945, 241.893015)"><g><path d="M 0.453125 0 L 0.453125 -1.40625 L 2.515625 -1.40625 L 2.515625 -6.71875 L 2.375 -6.765625 C 2.082031 -6.617188 1.796875 -6.503906 1.515625 -6.421875 C 1.234375 -6.335938 0.910156 -6.273438 0.546875 -6.234375 L 0.546875 -7.671875 C 1.492188 -7.867188 2.257812 -8.164062 2.84375 -8.5625 L 4.1875 -8.5625 L 4.1875 -1.40625 L 6.03125 -1.40625 L 6.03125 0 Z M 0.453125 0 "/></g></g><g transform="translate(227.530052, 241.893015)"><g><path d="M 1.578125 1.21875 L 0.03125 1.21875 L 3.21875 -9.046875 L 4.765625 -9.046875 Z M 1.578125 1.21875 "/></g></g><g transform="translate(232.553576, 241.893015)"><g><path d="M 5.8125 0 L 4.1875 0 L 4.1875 -1.859375 L 0.296875 -1.859375 L 0.296875 -3.21875 L 3.640625 -8.5625 L 5.8125 -8.5625 L 5.8125 -3.21875 L 7.125 -3.21875 L 7.125 -1.859375 L 5.8125 -1.859375 Z M 2.03125 -3.34375 L 2.078125 -3.21875 L 4.1875 -3.21875 L 4.1875 -6.53125 L 4.0625 -6.5625 Z M 2.03125 -3.34375 "/></g></g><g transform="translate(240.004064, 241.893015)"><g/></g><g transform="translate(242.828699, 241.893015)"><g><path d="M 1.875 0 L 0.140625 0 L 2.6875 -4.40625 L 0.265625 -8.5625 L 2.0625 -8.5625 L 3.84375 -5.484375 L 3.984375 -5.484375 L 5.78125 -8.5625 L 7.5 -8.5625 L 5.078125 -4.40625 L 7.625 0 L 5.828125 0 L 3.921875 -3.296875 L 3.78125 -3.296875 Z M 1.875 0 "/></g></g></g><g clip-path="url(#d59097b9a0)"><path fill="#fcce0b" d="M 0 0 L 42.765625 0 L 42.765625 42.765625 L 0 42.765625 Z M 0 0 " fill-opacity="1" fill-rule="nonzero"/></g><g fill="#000000" fill-opacity="1"><g transform="translate(6.69917, 27.372241)"><g><path d="M 0.453125 0 L 0.453125 -1.40625 L 2.515625 -1.40625 L 2.515625 -6.71875 L 2.375 -6.765625 C 2.082031 -6.617188 1.796875 -6.503906 1.515625 -6.421875 C 1.234375 -6.335938 0.910156 -6.273438 0.546875 -6.234375 L 0.546875 -7.671875 C 1.492188 -7.867188 2.257812 -8.164062 2.84375 -8.5625 L 4.1875 -8.5625 L 4.1875 -1.40625 L 6.03125 -1.40625 L 6.03125 0 Z M 0.453125 0 "/></g></g><g transform="translate(13.009277, 27.372241)"><g><path d="M 1.578125 1.21875 L 0.03125 1.21875 L 3.21875 -9.046875 L 4.765625 -9.046875 Z M 1.578125 1.21875 "/></g></g><g transform="translate(18.032801, 27.372241)"><g><path d="M 5.8125 0 L 4.1875 0 L 4.1875 -1.859375 L 0.296875 -1.859375 L 0.296875 -3.21875 L 3.640625 -8.5625 L 5.8125 -8.5625 L 5.8125 -3.21875 L 7.125 -3.21875 L 7.125 -1.859375 L 5.8125 -1.859375 Z M 2.03125 -3.34375 L 2.078125 -3.21875 L 4.1875 -3.21875 L 4.1875 -6.53125 L 4.0625 -6.5625 Z M 2.03125 -3.34375 "/></g></g><g transform="translate(25.483289, 27.372241)"><g/></g><g transform="translate(28.307924, 27.372241)"><g><path d="M 1.875 0 L 0.140625 0 L 2.6875 -4.40625 L 0.265625 -8.5625 L 2.0625 -8.5625 L 3.84375 -5.484375 L 3.984375 -5.484375 L 5.78125 -8.5625 L 7.5 -8.5625 L 5.078125 -4.40625 L 7.625 0 L 5.828125 0 L 3.921875 -3.296875 L 3.78125 -3.296875 Z M 1.875 0 "/></g></g></g><g clip-path="url(#f3ae7a0635)"><path fill="#fcce0b" d="M 215.789062 0 L 258.554688 0 L 258.554688 42.765625 L 215.789062 42.765625 Z M 215.789062 0 " fill-opacity="1" fill-rule="nonzero"/></g><g fill="#000000" fill-opacity="1"><g transform="translate(222.486629, 25.875126)"><g><path d="M 0.453125 0 L 0.453125 -1.40625 L 2.515625 -1.40625 L 2.515625 -6.71875 L 2.375 -6.765625 C 2.082031 -6.617188 1.796875 -6.503906 1.515625 -6.421875 C 1.234375 -6.335938 0.910156 -6.273438 0.546875 -6.234375 L 0.546875 -7.671875 C 1.492188 -7.867188 2.257812 -8.164062 2.84375 -8.5625 L 4.1875 -8.5625 L 4.1875 -1.40625 L 6.03125 -1.40625 L 6.03125 0 Z M 0.453125 0 "/></g></g><g transform="translate(228.796736, 25.875126)"><g><path d="M 1.578125 1.21875 L 0.03125 1.21875 L 3.21875 -9.046875 L 4.765625 -9.046875 Z M 1.578125 1.21875 "/></g></g><g transform="translate(233.82026, 25.875126)"><g><path d="M 5.8125 0 L 4.1875 0 L 4.1875 -1.859375 L 0.296875 -1.859375 L 0.296875 -3.21875 L 3.640625 -8.5625 L 5.8125 -8.5625 L 5.8125 -3.21875 L 7.125 -3.21875 L 7.125 -1.859375 L 5.8125 -1.859375 Z M 2.03125 -3.34375 L 2.078125 -3.21875 L 4.1875 -3.21875 L 4.1875 -6.53125 L 4.0625 -6.5625 Z M 2.03125 -3.34375 "/></g></g><g transform="translate(241.270748, 25.875126)"><g/></g><g transform="translate(244.095383, 25.875126)"><g><path d="M 1.875 0 L 0.140625 0 L 2.6875 -4.40625 L 0.265625 -8.5625 L 2.0625 -8.5625 L 3.84375 -5.484375 L 3.984375 -5.484375 L 5.78125 -8.5625 L 7.5 -8.5625 L 5.078125 -4.40625 L 7.625 0 L 5.828125 0 L 3.921875 -3.296875 L 3.78125 -3.296875 Z M 1.875 0 "/></g></g></g><g fill="#000000" fill-opacity="1"><g transform="translate(125.394343, 34.408683)"><g><path d="M 1.875 0 L 0.140625 0 L 2.6875 -4.40625 L 0.265625 -8.5625 L 2.0625 -8.5625 L 3.84375 -5.484375 L 3.984375 -5.484375 L 5.78125 -8.5625 L 7.5 -8.5625 L 5.078125 -4.40625 L 7.625 0 L 5.828125 0 L 3.921875 -3.296875 L 3.78125 -3.296875 Z M 1.875 0 "/></g></g></g></svg>