<svg xmlns="http://www.w3.org/2000/svg" xmlns:xlink="http://www.w3.org/1999/xlink" width="1007" zoomAndPan="magnify" viewBox="0 0 755.25 258.749997" height="345" preserveAspectRatio="xMidYMid meet" version="1.0"><defs><g/><clipPath id="5ecde15125"><path d="M 43.195312 42.8125 L 213.613281 42.8125 L 213.613281 213.226562 L 43.195312 213.226562 Z M 43.195312 42.8125 " clip-rule="nonzero"/></clipPath><clipPath id="c8f62eb776"><path d="M 128.402344 42.8125 C 81.34375 42.8125 43.195312 80.960938 43.195312 128.019531 C 43.195312 175.078125 81.34375 213.226562 128.402344 213.226562 C 175.464844 213.226562 213.613281 175.078125 213.613281 128.019531 C 213.613281 80.960938 175.464844 42.8125 128.402344 42.8125 Z M 128.402344 42.8125 " clip-rule="nonzero"/></clipPath><clipPath id="7362ad7fc7"><path d="M 76.394531 59.144531 L 180.542969 59.144531 L 180.542969 197 L 76.394531 197 Z M 76.394531 59.144531 " clip-rule="nonzero"/></clipPath><clipPath id="3ab7fe72cc"><path d="M 711.238281 0.00390625 L 754.042969 0.00390625 L 754.042969 42.8125 L 711.238281 42.8125 Z M 711.238281 0.00390625 " clip-rule="nonzero"/></clipPath><clipPath id="c73ce59eb5"><path d="M 215.25 112.726562 L 248.078125 112.726562 L 248.078125 145.554688 L 215.25 145.554688 Z M 215.25 112.726562 " clip-rule="nonzero"/></clipPath><clipPath id="502e69ec9f"><path d="M 1.976562 0.00390625 L 44.785156 0.00390625 L 44.785156 42.8125 L 1.976562 42.8125 Z M 1.976562 0.00390625 " clip-rule="nonzero"/></clipPath><clipPath id="b983c12287"><path d="M 0 215.472656 L 42.808594 215.472656 L 42.808594 258.28125 L 0 258.28125 Z M 0 215.472656 " clip-rule="nonzero"/></clipPath><clipPath id="38d2919dff"><path d="M 711.238281 215.472656 L 754.042969 215.472656 L 754.042969 258.28125 L 711.238281 258.28125 Z M 711.238281 215.472656 " clip-rule="nonzero"/></clipPath></defs><g clip-path="url(#5ecde15125)"><g clip-path="url(#c8f62eb776)"><path fill="#fcce0b" d="M 43.195312 42.8125 L 213.613281 42.8125 L 213.613281 213.226562 L 43.195312 213.226562 Z M 43.195312 42.8125 " fill-opacity="1" fill-rule="nonzero"/></g></g><g clip-path="url(#7362ad7fc7)"><path fill="#ffffff" d="M 76.417969 126.460938 C 76.417969 119.445312 77.792969 112.636719 80.503906 106.222656 C 83.121094 100.03125 86.871094 94.472656 91.644531 89.699219 C 96.417969 84.921875 101.980469 81.175781 108.171875 78.554688 C 114.582031 75.84375 121.390625 74.46875 128.410156 74.46875 C 133.59375 74.46875 138.699219 75.230469 143.605469 76.726562 L 155.945312 60.359375 C 156.714844 59.34375 158.160156 59.140625 159.179688 59.90625 C 160.195312 60.675781 160.398438 62.121094 159.632812 63.140625 L 126.816406 106.667969 C 126.710938 106.804688 126.589844 106.933594 126.460938 107.042969 C 129.734375 110.808594 130.050781 116.488281 126.929688 120.628906 L 120.792969 128.769531 C 117.203125 133.527344 110.417969 134.480469 105.660156 130.894531 C 100.902344 127.304688 99.949219 120.519531 103.535156 115.761719 C 103.566406 115.722656 103.59375 115.6875 103.625 115.652344 C 103.648438 115.613281 103.675781 115.574219 103.703125 115.535156 L 109.671875 107.621094 C 112.796875 103.480469 118.34375 102.222656 122.867188 104.332031 C 122.9375 104.175781 123.023438 104.027344 123.128906 103.886719 L 140.816406 80.433594 C 136.789062 79.347656 132.628906 78.800781 128.410156 78.800781 C 102.128906 78.800781 80.75 100.179688 80.75 126.460938 C 80.75 140.921875 87.203125 154.433594 98.457031 163.539062 C 99.386719 164.289062 99.53125 165.652344 98.78125 166.585938 C 98.351562 167.113281 97.726562 167.386719 97.09375 167.386719 C 96.617188 167.386719 96.132812 167.230469 95.734375 166.90625 C 83.457031 156.976562 76.417969 142.234375 76.417969 126.460938 Z M 124.082031 142.625 C 125.160156 141.195312 126.738281 140.269531 128.515625 140.019531 C 128.835938 139.976562 129.152344 139.953125 129.46875 139.953125 C 130.917969 139.953125 132.320312 140.417969 133.496094 141.304688 C 134.929688 142.382812 135.851562 143.960938 136.101562 145.738281 C 136.355469 147.519531 135.898438 149.289062 134.816406 150.71875 C 133.738281 152.148438 132.164062 153.078125 130.382812 153.328125 C 128.601562 153.574219 126.835938 153.117188 125.402344 152.039062 C 123.972656 150.960938 123.046875 149.386719 122.796875 147.605469 C 122.546875 145.824219 123.003906 144.058594 124.082031 142.625 Z M 174.015625 151.449219 C 178.195312 143.832031 180.402344 135.207031 180.402344 126.460938 C 180.402344 109.210938 171.871094 93.113281 157.574219 83.414062 C 156.585938 82.738281 155.238281 83 154.566406 83.988281 C 153.894531 84.976562 154.152344 86.324219 155.140625 86.996094 C 168.246094 95.890625 176.070312 110.644531 176.070312 126.460938 C 176.070312 134.710938 173.929688 142.835938 169.882812 149.964844 C 169.640625 150.386719 169.550781 150.875 169.621094 151.351562 L 174.300781 183.226562 L 147.167969 171.015625 C 146.640625 170.777344 146.039062 170.761719 145.5 170.96875 C 140.050781 173.0625 134.300781 174.125 128.410156 174.125 C 123.230469 174.125 118.167969 173.304688 113.324219 171.6875 L 125.050781 156.136719 C 127.105469 157.089844 129.4375 157.351562 131.671875 156.863281 C 134.113281 156.332031 136.28125 154.945312 137.78125 152.957031 L 151.984375 134.121094 C 152.597656 133.300781 152.4375 132.136719 151.617188 131.519531 C 150.800781 130.902344 149.636719 131.066406 149.019531 131.882812 L 139.621094 144.351562 C 139.214844 142.574219 138.351562 140.929688 137.117188 139.589844 L 145.132812 128.957031 C 145.75 128.136719 145.585938 126.972656 144.769531 126.355469 C 144.371094 126.054688 143.886719 125.929688 143.394531 126 C 142.902344 126.066406 142.46875 126.324219 142.167969 126.71875 L 134.148438 137.355469 C 132.523438 136.53125 130.703125 136.15625 128.886719 136.257812 L 138.285156 123.789062 C 138.582031 123.394531 138.710938 122.90625 138.640625 122.414062 C 138.570312 121.921875 138.316406 121.488281 137.917969 121.191406 C 137.523438 120.890625 137.035156 120.765625 136.542969 120.832031 C 136.054688 120.902344 135.617188 121.160156 135.320312 121.554688 L 121.117188 140.390625 C 119.617188 142.382812 118.878906 144.851562 119.039062 147.339844 C 119.191406 149.625 120.078125 151.792969 121.5625 153.503906 L 108.570312 170.738281 C 108.15625 170.972656 107.816406 171.335938 107.621094 171.8125 C 107.578125 171.914062 107.546875 172.019531 107.523438 172.128906 L 91.746094 193.050781 C 91.332031 193.601562 91.105469 194.253906 91.105469 194.878906 C 91.105469 195.554688 91.382812 196.15625 91.867188 196.519531 C 92.199219 196.769531 92.59375 196.890625 93.007812 196.890625 C 93.796875 196.890625 94.648438 196.457031 95.234375 195.683594 L 110.585938 175.320312 C 116.285156 177.402344 122.273438 178.457031 128.410156 178.457031 C 134.527344 178.457031 140.507812 177.40625 146.203125 175.332031 L 176.128906 188.800781 C 176.414062 188.925781 176.71875 188.988281 177.019531 188.988281 C 177.480469 188.988281 177.941406 188.839844 178.324219 188.550781 C 178.953125 188.074219 179.277344 187.292969 179.160156 186.507812 L 174.015625 151.449219 " fill-opacity="1" fill-rule="nonzero"/></g><g fill="#47210c" fill-opacity="1"><g transform="translate(243.576069, 155.225155)"><g><path d="M 50.40625 0 L 37.71875 0 L 37.71875 -21.6875 L 18.96875 -21.6875 L 18.96875 0 L 6.28125 0 L 6.28125 -49.21875 L 18.96875 -49.21875 L 18.96875 -31.203125 L 37.71875 -31.203125 L 37.71875 -49.21875 L 50.40625 -49.21875 Z M 50.40625 0 "/></g></g></g><g fill="#47210c" fill-opacity="1"><g transform="translate(300.272596, 155.225155)"><g><path d="M 28.765625 1.03125 C 20.828125 1.03125 14.613281 -1.273438 10.125 -5.890625 C 5.644531 -10.515625 3.40625 -16.75 3.40625 -24.59375 C 3.40625 -32.488281 5.648438 -38.738281 10.140625 -43.34375 C 14.640625 -47.945312 20.847656 -50.25 28.765625 -50.25 C 36.609375 -50.25 42.800781 -47.957031 47.34375 -43.375 C 51.882812 -38.789062 54.15625 -32.53125 54.15625 -24.59375 C 54.15625 -16.75 51.910156 -10.515625 47.421875 -5.890625 C 42.929688 -1.273438 36.710938 1.03125 28.765625 1.03125 Z M 40.953125 -24.625 C 40.953125 -29.894531 39.835938 -33.929688 37.609375 -36.734375 C 35.390625 -39.546875 32.453125 -40.953125 28.796875 -40.953125 C 25.046875 -40.953125 22.070312 -39.53125 19.875 -36.6875 C 17.6875 -33.851562 16.59375 -29.820312 16.59375 -24.59375 C 16.59375 -19.375 17.691406 -15.347656 19.890625 -12.515625 C 22.097656 -9.679688 25.066406 -8.265625 28.796875 -8.265625 C 32.390625 -8.265625 35.3125 -9.648438 37.5625 -12.421875 C 39.820312 -15.203125 40.953125 -19.269531 40.953125 -24.625 Z M 40.953125 -24.625 "/></g></g></g><g fill="#47210c" fill-opacity="1"><g transform="translate(357.828662, 155.225155)"><g><path d="M 57.890625 0 L 45.25 0 L 45.25 -32.953125 L 36.125 -11.578125 L 27.375 -11.578125 L 18.25 -32.953125 L 18.25 0 L 6.28125 0 L 6.28125 -49.21875 L 21.03125 -49.21875 L 32.09375 -24.53125 L 43.140625 -49.21875 L 57.890625 -49.21875 Z M 57.890625 0 "/></g></g></g><g fill="#47210c" fill-opacity="1"><g transform="translate(421.996567, 155.225155)"><g><path d="M 41.890625 0 L 6.28125 0 L 6.28125 -49.21875 L 41.890625 -49.21875 L 41.890625 -39.703125 L 18.90625 -39.703125 L 18.90625 -31.203125 L 40.234375 -31.203125 L 40.234375 -21.6875 L 18.90625 -21.6875 L 18.90625 -9.515625 L 41.890625 -9.515625 Z M 41.890625 0 "/></g></g></g><g fill="#47210c" fill-opacity="1"><g transform="translate(468.24639, 155.225155)"><g><path d="M 18.96875 -16.03125 L 18.96875 0 L 6.28125 0 L 6.28125 -49.21875 L 27.171875 -49.21875 C 33.710938 -49.21875 38.632812 -47.863281 41.9375 -45.15625 C 45.25 -42.445312 46.90625 -38.625 46.90625 -33.6875 C 46.90625 -28.570312 45.109375 -24.347656 41.515625 -21.015625 C 37.921875 -17.691406 33.039062 -16.03125 26.875 -16.03125 Z M 18.96875 -40.03125 L 18.96875 -25.296875 L 22.609375 -25.296875 C 27.191406 -25.296875 30.195312 -25.976562 31.625 -27.34375 C 33.0625 -28.707031 33.78125 -30.722656 33.78125 -33.390625 C 33.78125 -35.015625 33.285156 -36.363281 32.296875 -37.4375 C 31.304688 -38.507812 30.132812 -39.207031 28.78125 -39.53125 C 27.425781 -39.863281 24.882812 -40.03125 21.15625 -40.03125 Z M 18.96875 -40.03125 "/></g></g></g><g fill="#47210c" fill-opacity="1"><g transform="translate(517.868251, 155.225155)"><g><path d="M 41.78125 0 L 6.28125 0 L 6.28125 -49.21875 L 18.96875 -49.21875 L 18.96875 -9.515625 L 41.78125 -9.515625 Z M 41.78125 0 "/></g></g></g><g fill="#47210c" fill-opacity="1"><g transform="translate(561.010509, 155.225155)"><g><path d="M 51.765625 0 L 38.640625 0 L 35.234375 -9.953125 L 16.984375 -9.953125 L 13.59375 0 L 0.796875 0 L 18.96875 -49.21875 L 33.59375 -49.21875 Z M 32.171875 -18.96875 L 26.109375 -36.625 L 20.0625 -18.96875 Z M 32.171875 -18.96875 "/></g></g></g><g fill="#47210c" fill-opacity="1"><g transform="translate(613.574623, 155.225155)"><g><path d="M 44.796875 -39.703125 L 29.421875 -39.703125 L 29.421875 0 L 16.734375 0 L 16.734375 -39.703125 L 1.359375 -39.703125 L 1.359375 -49.21875 L 44.796875 -49.21875 Z M 44.796875 -39.703125 "/></g></g></g><g fill="#47210c" fill-opacity="1"><g transform="translate(659.725254, 155.225155)"><g><path d="M 41.890625 0 L 6.28125 0 L 6.28125 -49.21875 L 41.890625 -49.21875 L 41.890625 -39.703125 L 18.90625 -39.703125 L 18.90625 -31.203125 L 40.234375 -31.203125 L 40.234375 -21.6875 L 18.90625 -21.6875 L 18.90625 -9.515625 L 41.890625 -9.515625 Z M 41.890625 0 "/></g></g></g><path fill="#c1ccce" d="M 43.195312 215.46875 L 43.195312 212.472656 L 46.191406 212.472656 L 46.191406 215.46875 M 43.195312 209.476562 L 43.195312 206.480469 L 46.191406 206.480469 L 46.191406 209.476562 M 43.195312 203.484375 L 43.195312 200.484375 L 46.191406 200.484375 L 46.191406 203.484375 M 43.195312 197.488281 L 43.195312 194.492188 L 46.191406 194.492188 L 46.191406 197.488281 M 43.195312 191.496094 L 43.195312 188.496094 L 46.191406 188.496094 L 46.191406 191.496094 M 43.195312 185.5 L 43.195312 182.503906 L 46.191406 182.503906 L 46.191406 185.5 M 43.195312 179.507812 L 43.195312 176.507812 L 46.191406 176.507812 L 46.191406 179.507812 M 43.195312 173.511719 L 43.195312 170.515625 L 46.191406 170.515625 L 46.191406 173.511719 M 43.195312 167.519531 L 43.195312 164.519531 L 46.191406 164.519531 L 46.191406 167.519531 M 43.195312 161.523438 L 43.195312 158.527344 L 46.191406 158.527344 L 46.191406 161.523438 M 43.195312 155.53125 L 43.195312 152.53125 L 46.191406 152.53125 L 46.191406 155.53125 M 43.195312 149.535156 L 43.195312 146.539062 L 46.191406 146.539062 L 46.191406 149.535156 M 43.195312 143.542969 L 43.195312 140.546875 L 46.191406 140.546875 L 46.191406 143.542969 M 43.195312 137.546875 L 43.195312 134.550781 L 46.191406 134.550781 L 46.191406 137.546875 M 43.195312 131.554688 L 43.195312 128.558594 L 46.191406 128.558594 L 46.191406 131.554688 M 43.195312 125.558594 L 43.195312 122.5625 L 46.191406 122.5625 L 46.191406 125.558594 M 43.195312 119.566406 L 43.195312 116.570312 L 46.191406 116.570312 L 46.191406 119.566406 M 43.195312 113.570312 L 43.195312 110.574219 L 46.191406 110.574219 L 46.191406 113.570312 M 43.195312 107.578125 L 43.195312 104.582031 L 46.191406 104.582031 L 46.191406 107.578125 M 43.195312 101.582031 L 43.195312 98.585938 L 46.191406 98.585938 L 46.191406 101.582031 M 43.195312 95.589844 L 43.195312 92.59375 L 46.191406 92.59375 L 46.191406 95.589844 M 43.195312 89.59375 L 43.195312 86.597656 L 46.191406 86.597656 L 46.191406 89.59375 M 43.195312 83.601562 L 43.195312 80.605469 L 46.191406 80.605469 L 46.191406 83.601562 M 43.195312 77.609375 L 43.195312 74.609375 L 46.191406 74.609375 L 46.191406 77.609375 M 43.195312 71.613281 L 43.195312 68.617188 L 46.191406 68.617188 L 46.191406 71.613281 M 43.195312 65.621094 L 43.195312 62.621094 L 46.191406 62.621094 L 46.191406 65.621094 M 43.195312 59.625 L 43.195312 56.628906 L 46.191406 56.628906 L 46.191406 59.625 M 43.195312 53.632812 L 43.195312 50.632812 L 46.191406 50.632812 L 46.191406 53.632812 M 43.195312 47.636719 L 43.195312 45.054688 L 46.191406 45.054688 L 46.191406 47.636719 " fill-opacity="1" fill-rule="nonzero"/><path fill="#c1ccce" d="M 709.738281 216.972656 L 706.738281 216.972656 L 706.738281 213.976562 L 709.738281 213.976562 M 703.742188 216.972656 L 700.746094 216.972656 L 700.746094 213.976562 L 703.742188 213.976562 M 697.75 216.972656 L 694.75 216.972656 L 694.75 213.976562 L 697.75 213.976562 M 691.753906 216.972656 L 688.757812 216.972656 L 688.757812 213.976562 L 691.753906 213.976562 M 685.761719 216.972656 L 682.761719 216.972656 L 682.761719 213.976562 L 685.761719 213.976562 M 679.765625 216.972656 L 676.769531 216.972656 L 676.769531 213.976562 L 679.765625 213.976562 M 673.773438 216.972656 L 670.773438 216.972656 L 670.773438 213.976562 L 673.773438 213.976562 M 667.777344 216.972656 L 664.78125 216.972656 L 664.78125 213.976562 L 667.777344 213.976562 M 661.785156 216.972656 L 658.789062 216.972656 L 658.789062 213.976562 L 661.785156 213.976562 M 655.789062 216.972656 L 652.792969 216.972656 L 652.792969 213.976562 L 655.789062 213.976562 M 649.796875 216.972656 L 646.800781 216.972656 L 646.800781 213.976562 L 649.796875 213.976562 M 643.800781 216.972656 L 640.804688 216.972656 L 640.804688 213.976562 L 643.800781 213.976562 M 637.808594 216.972656 L 634.8125 216.972656 L 634.8125 213.976562 L 637.808594 213.976562 M 631.8125 216.972656 L 628.816406 216.972656 L 628.816406 213.976562 L 631.8125 213.976562 M 625.820312 216.972656 L 622.824219 216.972656 L 622.824219 213.976562 L 625.820312 213.976562 M 619.824219 216.972656 L 616.828125 216.972656 L 616.828125 213.976562 L 619.824219 213.976562 M 613.832031 216.972656 L 610.835938 216.972656 L 610.835938 213.976562 L 613.832031 213.976562 M 607.835938 216.972656 L 604.839844 216.972656 L 604.839844 213.976562 L 607.835938 213.976562 M 601.84375 216.972656 L 598.847656 216.972656 L 598.847656 213.976562 L 601.84375 213.976562 M 595.851562 216.972656 L 592.851562 216.972656 L 592.851562 213.976562 L 595.851562 213.976562 M 589.855469 216.972656 L 586.859375 216.972656 L 586.859375 213.976562 L 589.855469 213.976562 M 583.863281 216.972656 L 580.863281 216.972656 L 580.863281 213.976562 L 583.863281 213.976562 M 577.867188 216.972656 L 574.871094 216.972656 L 574.871094 213.976562 L 577.867188 213.976562 M 571.875 216.972656 L 568.875 216.972656 L 568.875 213.976562 L 571.875 213.976562 M 565.878906 216.972656 L 562.882812 216.972656 L 562.882812 213.976562 L 565.878906 213.976562 M 559.886719 216.972656 L 556.886719 216.972656 L 556.886719 213.976562 L 559.886719 213.976562 M 553.890625 216.972656 L 550.894531 216.972656 L 550.894531 213.976562 L 553.890625 213.976562 M 547.898438 216.972656 L 544.898438 216.972656 L 544.898438 213.976562 L 547.898438 213.976562 M 541.902344 216.972656 L 538.90625 216.972656 L 538.90625 213.976562 L 541.902344 213.976562 M 535.910156 216.972656 L 532.914062 216.972656 L 532.914062 213.976562 L 535.910156 213.976562 M 529.914062 216.972656 L 526.917969 216.972656 L 526.917969 213.976562 L 529.914062 213.976562 M 523.921875 216.972656 L 520.925781 216.972656 L 520.925781 213.976562 L 523.921875 213.976562 M 517.925781 216.972656 L 514.929688 216.972656 L 514.929688 213.976562 L 517.925781 213.976562 M 511.933594 216.972656 L 508.9375 216.972656 L 508.9375 213.976562 L 511.933594 213.976562 M 505.9375 216.972656 L 502.941406 216.972656 L 502.941406 213.976562 L 505.9375 213.976562 M 499.945312 216.972656 L 496.949219 216.972656 L 496.949219 213.976562 L 499.945312 213.976562 M 493.949219 216.972656 L 490.953125 216.972656 L 490.953125 213.976562 L 493.949219 213.976562 M 487.957031 216.972656 L 484.960938 216.972656 L 484.960938 213.976562 L 487.957031 213.976562 M 481.960938 216.972656 L 478.964844 216.972656 L 478.964844 213.976562 L 481.960938 213.976562 M 475.96875 216.972656 L 472.972656 216.972656 L 472.972656 213.976562 L 475.96875 213.976562 M 469.976562 216.972656 L 466.976562 216.972656 L 466.976562 213.976562 L 469.976562 213.976562 M 463.980469 216.972656 L 460.984375 216.972656 L 460.984375 213.976562 L 463.980469 213.976562 M 457.988281 216.972656 L 454.988281 216.972656 L 454.988281 213.976562 L 457.988281 213.976562 M 451.992188 216.972656 L 448.996094 216.972656 L 448.996094 213.976562 L 451.992188 213.976562 M 446 216.972656 L 443 216.972656 L 443 213.976562 L 446 213.976562 M 440.003906 216.972656 L 437.007812 216.972656 L 437.007812 213.976562 L 440.003906 213.976562 M 434.011719 216.972656 L 431.011719 216.972656 L 431.011719 213.976562 L 434.011719 213.976562 M 428.015625 216.972656 L 425.019531 216.972656 L 425.019531 213.976562 L 428.015625 213.976562 M 422.023438 216.972656 L 419.023438 216.972656 L 419.023438 213.976562 L 422.023438 213.976562 M 416.027344 216.972656 L 413.03125 216.972656 L 413.03125 213.976562 L 416.027344 213.976562 M 410.035156 216.972656 L 407.039062 216.972656 L 407.039062 213.976562 L 410.035156 213.976562 M 404.039062 216.972656 L 401.042969 216.972656 L 401.042969 213.976562 L 404.039062 213.976562 M 398.046875 216.972656 L 395.050781 216.972656 L 395.050781 213.976562 L 398.046875 213.976562 M 392.050781 216.972656 L 389.054688 216.972656 L 389.054688 213.976562 L 392.050781 213.976562 M 386.058594 216.972656 L 383.0625 216.972656 L 383.0625 213.976562 L 386.058594 213.976562 M 380.0625 216.972656 L 377.066406 216.972656 L 377.066406 213.976562 L 380.0625 213.976562 M 374.070312 216.972656 L 371.074219 216.972656 L 371.074219 213.976562 L 374.070312 213.976562 M 368.074219 216.972656 L 365.078125 216.972656 L 365.078125 213.976562 L 368.074219 213.976562 M 362.082031 216.972656 L 359.085938 216.972656 L 359.085938 213.976562 L 362.082031 213.976562 M 356.085938 216.972656 L 353.089844 216.972656 L 353.089844 213.976562 L 356.085938 213.976562 M 350.09375 216.972656 L 347.097656 216.972656 L 347.097656 213.976562 L 350.09375 213.976562 M 344.101562 216.972656 L 341.101562 216.972656 L 341.101562 213.976562 L 344.101562 213.976562 M 338.105469 216.972656 L 335.109375 216.972656 L 335.109375 213.976562 L 338.105469 213.976562 M 332.113281 216.972656 L 329.113281 216.972656 L 329.113281 213.976562 L 332.113281 213.976562 M 326.117188 216.972656 L 323.121094 216.972656 L 323.121094 213.976562 L 326.117188 213.976562 M 320.125 216.972656 L 317.125 216.972656 L 317.125 213.976562 L 320.125 213.976562 M 314.128906 216.972656 L 311.132812 216.972656 L 311.132812 213.976562 L 314.128906 213.976562 M 308.136719 216.972656 L 305.136719 216.972656 L 305.136719 213.976562 L 308.136719 213.976562 M 302.140625 216.972656 L 299.144531 216.972656 L 299.144531 213.976562 L 302.140625 213.976562 M 296.148438 216.972656 L 293.148438 216.972656 L 293.148438 213.976562 L 296.148438 213.976562 M 290.152344 216.972656 L 287.15625 216.972656 L 287.15625 213.976562 L 290.152344 213.976562 M 284.160156 216.972656 L 281.164062 216.972656 L 281.164062 213.976562 L 284.160156 213.976562 M 278.164062 216.972656 L 275.167969 216.972656 L 275.167969 213.976562 L 278.164062 213.976562 M 272.171875 216.972656 L 269.175781 216.972656 L 269.175781 213.976562 L 272.171875 213.976562 M 266.175781 216.972656 L 263.179688 216.972656 L 263.179688 213.976562 L 266.175781 213.976562 M 260.183594 216.972656 L 257.1875 216.972656 L 257.1875 213.976562 L 260.183594 213.976562 M 254.1875 216.972656 L 251.191406 216.972656 L 251.191406 213.976562 L 254.1875 213.976562 M 248.195312 216.972656 L 245.199219 216.972656 L 245.199219 213.976562 L 248.195312 213.976562 M 242.199219 216.972656 L 239.203125 216.972656 L 239.203125 213.976562 L 242.199219 213.976562 M 236.207031 216.972656 L 233.210938 216.972656 L 233.210938 213.976562 L 236.207031 213.976562 M 230.210938 216.972656 L 227.214844 216.972656 L 227.214844 213.976562 L 230.210938 213.976562 M 224.21875 216.972656 L 221.222656 216.972656 L 221.222656 213.976562 L 224.21875 213.976562 M 218.226562 216.972656 L 215.226562 216.972656 L 215.226562 213.976562 L 218.226562 213.976562 M 212.230469 216.972656 L 209.234375 216.972656 L 209.234375 213.976562 L 212.230469 213.976562 M 206.238281 216.972656 L 203.238281 216.972656 L 203.238281 213.976562 L 206.238281 213.976562 M 200.242188 216.972656 L 197.246094 216.972656 L 197.246094 213.976562 L 200.242188 213.976562 M 194.25 216.972656 L 191.25 216.972656 L 191.25 213.976562 L 194.25 213.976562 M 188.253906 216.972656 L 185.257812 216.972656 L 185.257812 213.976562 L 188.253906 213.976562 M 182.261719 216.972656 L 179.261719 216.972656 L 179.261719 213.976562 L 182.261719 213.976562 M 176.265625 216.972656 L 173.269531 216.972656 L 173.269531 213.976562 L 176.265625 213.976562 M 170.273438 216.972656 L 167.273438 216.972656 L 167.273438 213.976562 L 170.273438 213.976562 M 164.277344 216.972656 L 161.28125 216.972656 L 161.28125 213.976562 L 164.277344 213.976562 M 158.285156 216.972656 L 155.289062 216.972656 L 155.289062 213.976562 L 158.285156 213.976562 M 152.289062 216.972656 L 149.292969 216.972656 L 149.292969 213.976562 L 152.289062 213.976562 M 146.296875 216.972656 L 143.300781 216.972656 L 143.300781 213.976562 L 146.296875 213.976562 M 140.300781 216.972656 L 137.304688 216.972656 L 137.304688 213.976562 L 140.300781 213.976562 M 134.308594 216.972656 L 131.3125 216.972656 L 131.3125 213.976562 L 134.308594 213.976562 M 128.3125 216.972656 L 125.316406 216.972656 L 125.316406 213.976562 L 128.3125 213.976562 M 122.320312 216.972656 L 119.324219 216.972656 L 119.324219 213.976562 L 122.320312 213.976562 M 116.324219 216.972656 L 113.328125 216.972656 L 113.328125 213.976562 L 116.324219 213.976562 M 110.332031 216.972656 L 107.335938 216.972656 L 107.335938 213.976562 L 110.332031 213.976562 M 104.335938 216.972656 L 101.339844 216.972656 L 101.339844 213.976562 L 104.335938 213.976562 M 98.34375 216.972656 L 95.347656 216.972656 L 95.347656 213.976562 L 98.34375 213.976562 M 92.351562 216.972656 L 89.351562 216.972656 L 89.351562 213.976562 L 92.351562 213.976562 M 86.355469 216.972656 L 83.359375 216.972656 L 83.359375 213.976562 L 86.355469 213.976562 M 80.363281 216.972656 L 77.363281 216.972656 L 77.363281 213.976562 L 80.363281 213.976562 M 74.367188 216.972656 L 71.371094 216.972656 L 71.371094 213.976562 L 74.367188 213.976562 M 68.375 216.972656 L 65.375 216.972656 L 65.375 213.976562 L 68.375 213.976562 M 62.378906 216.972656 L 59.382812 216.972656 L 59.382812 213.976562 L 62.378906 213.976562 M 56.386719 216.972656 L 53.386719 216.972656 L 53.386719 213.976562 L 56.386719 213.976562 M 50.390625 216.972656 L 47.394531 216.972656 L 47.394531 213.976562 L 50.390625 213.976562 " fill-opacity="1" fill-rule="nonzero"/><path fill="#c1ccce" d="M 709.738281 44.308594 L 706.738281 44.308594 L 706.738281 41.3125 L 709.738281 41.3125 M 703.742188 44.308594 L 700.746094 44.308594 L 700.746094 41.3125 L 703.742188 41.3125 M 697.75 44.308594 L 694.75 44.308594 L 694.75 41.3125 L 697.75 41.3125 M 691.753906 44.308594 L 688.757812 44.308594 L 688.757812 41.3125 L 691.753906 41.3125 M 685.761719 44.308594 L 682.761719 44.308594 L 682.761719 41.3125 L 685.761719 41.3125 M 679.765625 44.308594 L 676.769531 44.308594 L 676.769531 41.3125 L 679.765625 41.3125 M 673.773438 44.308594 L 670.773438 44.308594 L 670.773438 41.3125 L 673.773438 41.3125 M 667.777344 44.308594 L 664.78125 44.308594 L 664.78125 41.3125 L 667.777344 41.3125 M 661.785156 44.308594 L 658.789062 44.308594 L 658.789062 41.3125 L 661.785156 41.3125 M 655.789062 44.308594 L 652.792969 44.308594 L 652.792969 41.3125 L 655.789062 41.3125 M 649.796875 44.308594 L 646.800781 44.308594 L 646.800781 41.3125 L 649.796875 41.3125 M 643.800781 44.308594 L 640.804688 44.308594 L 640.804688 41.3125 L 643.800781 41.3125 M 637.808594 44.308594 L 634.8125 44.308594 L 634.8125 41.3125 L 637.808594 41.3125 M 631.8125 44.308594 L 628.816406 44.308594 L 628.816406 41.3125 L 631.8125 41.3125 M 625.820312 44.308594 L 622.824219 44.308594 L 622.824219 41.3125 L 625.820312 41.3125 M 619.824219 44.308594 L 616.828125 44.308594 L 616.828125 41.3125 L 619.824219 41.3125 M 613.832031 44.308594 L 610.835938 44.308594 L 610.835938 41.3125 L 613.832031 41.3125 M 607.835938 44.308594 L 604.839844 44.308594 L 604.839844 41.3125 L 607.835938 41.3125 M 601.84375 44.308594 L 598.847656 44.308594 L 598.847656 41.3125 L 601.84375 41.3125 M 595.851562 44.308594 L 592.851562 44.308594 L 592.851562 41.3125 L 595.851562 41.3125 M 589.855469 44.308594 L 586.859375 44.308594 L 586.859375 41.3125 L 589.855469 41.3125 M 583.863281 44.308594 L 580.863281 44.308594 L 580.863281 41.3125 L 583.863281 41.3125 M 577.867188 44.308594 L 574.871094 44.308594 L 574.871094 41.3125 L 577.867188 41.3125 M 571.875 44.308594 L 568.875 44.308594 L 568.875 41.3125 L 571.875 41.3125 M 565.878906 44.308594 L 562.882812 44.308594 L 562.882812 41.3125 L 565.878906 41.3125 M 559.886719 44.308594 L 556.886719 44.308594 L 556.886719 41.3125 L 559.886719 41.3125 M 553.890625 44.308594 L 550.894531 44.308594 L 550.894531 41.3125 L 553.890625 41.3125 M 547.898438 44.308594 L 544.898438 44.308594 L 544.898438 41.3125 L 547.898438 41.3125 M 541.902344 44.308594 L 538.90625 44.308594 L 538.90625 41.3125 L 541.902344 41.3125 M 535.910156 44.308594 L 532.914062 44.308594 L 532.914062 41.3125 L 535.910156 41.3125 M 529.914062 44.308594 L 526.917969 44.308594 L 526.917969 41.3125 L 529.914062 41.3125 M 523.921875 44.308594 L 520.925781 44.308594 L 520.925781 41.3125 L 523.921875 41.3125 M 517.925781 44.308594 L 514.929688 44.308594 L 514.929688 41.3125 L 517.925781 41.3125 M 511.933594 44.308594 L 508.9375 44.308594 L 508.9375 41.3125 L 511.933594 41.3125 M 505.9375 44.308594 L 502.941406 44.308594 L 502.941406 41.3125 L 505.9375 41.3125 M 499.945312 44.308594 L 496.949219 44.308594 L 496.949219 41.3125 L 499.945312 41.3125 M 493.949219 44.308594 L 490.953125 44.308594 L 490.953125 41.3125 L 493.949219 41.3125 M 487.957031 44.308594 L 484.960938 44.308594 L 484.960938 41.3125 L 487.957031 41.3125 M 481.960938 44.308594 L 478.964844 44.308594 L 478.964844 41.3125 L 481.960938 41.3125 M 475.96875 44.308594 L 472.972656 44.308594 L 472.972656 41.3125 L 475.96875 41.3125 M 469.976562 44.308594 L 466.976562 44.308594 L 466.976562 41.3125 L 469.976562 41.3125 M 463.980469 44.308594 L 460.984375 44.308594 L 460.984375 41.3125 L 463.980469 41.3125 M 457.988281 44.308594 L 454.988281 44.308594 L 454.988281 41.3125 L 457.988281 41.3125 M 451.992188 44.308594 L 448.996094 44.308594 L 448.996094 41.3125 L 451.992188 41.3125 M 446 44.308594 L 443 44.308594 L 443 41.3125 L 446 41.3125 M 440.003906 44.308594 L 437.007812 44.308594 L 437.007812 41.3125 L 440.003906 41.3125 M 434.011719 44.308594 L 431.011719 44.308594 L 431.011719 41.3125 L 434.011719 41.3125 M 428.015625 44.308594 L 425.019531 44.308594 L 425.019531 41.3125 L 428.015625 41.3125 M 422.023438 44.308594 L 419.023438 44.308594 L 419.023438 41.3125 L 422.023438 41.3125 M 416.027344 44.308594 L 413.03125 44.308594 L 413.03125 41.3125 L 416.027344 41.3125 M 410.035156 44.308594 L 407.039062 44.308594 L 407.039062 41.3125 L 410.035156 41.3125 M 404.039062 44.308594 L 401.042969 44.308594 L 401.042969 41.3125 L 404.039062 41.3125 M 398.046875 44.308594 L 395.050781 44.308594 L 395.050781 41.3125 L 398.046875 41.3125 M 392.050781 44.308594 L 389.054688 44.308594 L 389.054688 41.3125 L 392.050781 41.3125 M 386.058594 44.308594 L 383.0625 44.308594 L 383.0625 41.3125 L 386.058594 41.3125 M 380.0625 44.308594 L 377.066406 44.308594 L 377.066406 41.3125 L 380.0625 41.3125 M 374.070312 44.308594 L 371.074219 44.308594 L 371.074219 41.3125 L 374.070312 41.3125 M 368.074219 44.308594 L 365.078125 44.308594 L 365.078125 41.3125 L 368.074219 41.3125 M 362.082031 44.308594 L 359.085938 44.308594 L 359.085938 41.3125 L 362.082031 41.3125 M 356.085938 44.308594 L 353.089844 44.308594 L 353.089844 41.3125 L 356.085938 41.3125 M 350.09375 44.308594 L 347.097656 44.308594 L 347.097656 41.3125 L 350.09375 41.3125 M 344.101562 44.308594 L 341.101562 44.308594 L 341.101562 41.3125 L 344.101562 41.3125 M 338.105469 44.308594 L 335.109375 44.308594 L 335.109375 41.3125 L 338.105469 41.3125 M 332.113281 44.308594 L 329.113281 44.308594 L 329.113281 41.3125 L 332.113281 41.3125 M 326.117188 44.308594 L 323.121094 44.308594 L 323.121094 41.3125 L 326.117188 41.3125 M 320.125 44.308594 L 317.125 44.308594 L 317.125 41.3125 L 320.125 41.3125 M 314.128906 44.308594 L 311.132812 44.308594 L 311.132812 41.3125 L 314.128906 41.3125 M 308.136719 44.308594 L 305.136719 44.308594 L 305.136719 41.3125 L 308.136719 41.3125 M 302.140625 44.308594 L 299.144531 44.308594 L 299.144531 41.3125 L 302.140625 41.3125 M 296.148438 44.308594 L 293.148438 44.308594 L 293.148438 41.3125 L 296.148438 41.3125 M 290.152344 44.308594 L 287.15625 44.308594 L 287.15625 41.3125 L 290.152344 41.3125 M 284.160156 44.308594 L 281.164062 44.308594 L 281.164062 41.3125 L 284.160156 41.3125 M 278.164062 44.308594 L 275.167969 44.308594 L 275.167969 41.3125 L 278.164062 41.3125 M 272.171875 44.308594 L 269.175781 44.308594 L 269.175781 41.3125 L 272.171875 41.3125 M 266.175781 44.308594 L 263.179688 44.308594 L 263.179688 41.3125 L 266.175781 41.3125 M 260.183594 44.308594 L 257.1875 44.308594 L 257.1875 41.3125 L 260.183594 41.3125 M 254.1875 44.308594 L 251.191406 44.308594 L 251.191406 41.3125 L 254.1875 41.3125 M 248.195312 44.308594 L 245.199219 44.308594 L 245.199219 41.3125 L 248.195312 41.3125 M 242.199219 44.308594 L 239.203125 44.308594 L 239.203125 41.3125 L 242.199219 41.3125 M 236.207031 44.308594 L 233.210938 44.308594 L 233.210938 41.3125 L 236.207031 41.3125 M 230.210938 44.308594 L 227.214844 44.308594 L 227.214844 41.3125 L 230.210938 41.3125 M 224.21875 44.308594 L 221.222656 44.308594 L 221.222656 41.3125 L 224.21875 41.3125 M 218.226562 44.308594 L 215.226562 44.308594 L 215.226562 41.3125 L 218.226562 41.3125 M 212.230469 44.308594 L 209.234375 44.308594 L 209.234375 41.3125 L 212.230469 41.3125 M 206.238281 44.308594 L 203.238281 44.308594 L 203.238281 41.3125 L 206.238281 41.3125 M 200.242188 44.308594 L 197.246094 44.308594 L 197.246094 41.3125 L 200.242188 41.3125 M 194.25 44.308594 L 191.25 44.308594 L 191.25 41.3125 L 194.25 41.3125 M 188.253906 44.308594 L 185.257812 44.308594 L 185.257812 41.3125 L 188.253906 41.3125 M 182.261719 44.308594 L 179.261719 44.308594 L 179.261719 41.3125 L 182.261719 41.3125 M 176.265625 44.308594 L 173.269531 44.308594 L 173.269531 41.3125 L 176.265625 41.3125 M 170.273438 44.308594 L 167.273438 44.308594 L 167.273438 41.3125 L 170.273438 41.3125 M 164.277344 44.308594 L 161.28125 44.308594 L 161.28125 41.3125 L 164.277344 41.3125 M 158.285156 44.308594 L 155.289062 44.308594 L 155.289062 41.3125 L 158.285156 41.3125 M 152.289062 44.308594 L 149.292969 44.308594 L 149.292969 41.3125 L 152.289062 41.3125 M 146.296875 44.308594 L 143.300781 44.308594 L 143.300781 41.3125 L 146.296875 41.3125 M 140.300781 44.308594 L 137.304688 44.308594 L 137.304688 41.3125 L 140.300781 41.3125 M 134.308594 44.308594 L 131.3125 44.308594 L 131.3125 41.3125 L 134.308594 41.3125 M 128.3125 44.308594 L 125.316406 44.308594 L 125.316406 41.3125 L 128.3125 41.3125 M 122.320312 44.308594 L 119.324219 44.308594 L 119.324219 41.3125 L 122.320312 41.3125 M 116.324219 44.308594 L 113.328125 44.308594 L 113.328125 41.3125 L 116.324219 41.3125 M 110.332031 44.308594 L 107.335938 44.308594 L 107.335938 41.3125 L 110.332031 41.3125 M 104.335938 44.308594 L 101.339844 44.308594 L 101.339844 41.3125 L 104.335938 41.3125 M 98.34375 44.308594 L 95.347656 44.308594 L 95.347656 41.3125 L 98.34375 41.3125 M 92.351562 44.308594 L 89.351562 44.308594 L 89.351562 41.3125 L 92.351562 41.3125 M 86.355469 44.308594 L 83.359375 44.308594 L 83.359375 41.3125 L 86.355469 41.3125 M 80.363281 44.308594 L 77.363281 44.308594 L 77.363281 41.3125 L 80.363281 41.3125 M 74.367188 44.308594 L 71.371094 44.308594 L 71.371094 41.3125 L 74.367188 41.3125 M 68.375 44.308594 L 65.375 44.308594 L 65.375 41.3125 L 68.375 41.3125 M 62.378906 44.308594 L 59.382812 44.308594 L 59.382812 41.3125 L 62.378906 41.3125 M 56.386719 44.308594 L 53.386719 44.308594 L 53.386719 41.3125 L 56.386719 41.3125 M 50.390625 44.308594 L 47.394531 44.308594 L 47.394531 41.3125 L 50.390625 41.3125 " fill-opacity="1" fill-rule="nonzero"/><path fill="#c1ccce" d="M 709.734375 215.46875 L 709.734375 212.472656 L 712.730469 212.472656 L 712.730469 215.46875 M 709.734375 209.476562 L 709.734375 206.480469 L 712.730469 206.480469 L 712.730469 209.476562 M 709.734375 203.484375 L 709.734375 200.484375 L 712.730469 200.484375 L 712.730469 203.484375 M 709.734375 197.488281 L 709.734375 194.492188 L 712.730469 194.492188 L 712.730469 197.488281 M 709.734375 191.496094 L 709.734375 188.496094 L 712.730469 188.496094 L 712.730469 191.496094 M 709.734375 185.5 L 709.734375 182.503906 L 712.730469 182.503906 L 712.730469 185.5 M 709.734375 179.507812 L 709.734375 176.507812 L 712.730469 176.507812 L 712.730469 179.507812 M 709.734375 173.511719 L 709.734375 170.515625 L 712.730469 170.515625 L 712.730469 173.511719 M 709.734375 167.519531 L 709.734375 164.519531 L 712.730469 164.519531 L 712.730469 167.519531 M 709.734375 161.523438 L 709.734375 158.527344 L 712.730469 158.527344 L 712.730469 161.523438 M 709.734375 155.53125 L 709.734375 152.53125 L 712.730469 152.53125 L 712.730469 155.53125 M 709.734375 149.535156 L 709.734375 146.539062 L 712.730469 146.539062 L 712.730469 149.535156 M 709.734375 143.542969 L 709.734375 140.546875 L 712.730469 140.546875 L 712.730469 143.542969 M 709.734375 137.546875 L 709.734375 134.550781 L 712.730469 134.550781 L 712.730469 137.546875 M 709.734375 131.554688 L 709.734375 128.558594 L 712.730469 128.558594 L 712.730469 131.554688 M 709.734375 125.558594 L 709.734375 122.5625 L 712.730469 122.5625 L 712.730469 125.558594 M 709.734375 119.566406 L 709.734375 116.570312 L 712.730469 116.570312 L 712.730469 119.566406 M 709.734375 113.570312 L 709.734375 110.574219 L 712.730469 110.574219 L 712.730469 113.570312 M 709.734375 107.578125 L 709.734375 104.582031 L 712.730469 104.582031 L 712.730469 107.578125 M 709.734375 101.582031 L 709.734375 98.585938 L 712.730469 98.585938 L 712.730469 101.582031 M 709.734375 95.589844 L 709.734375 92.59375 L 712.730469 92.59375 L 712.730469 95.589844 M 709.734375 89.59375 L 709.734375 86.597656 L 712.730469 86.597656 L 712.730469 89.59375 M 709.734375 83.601562 L 709.734375 80.605469 L 712.730469 80.605469 L 712.730469 83.601562 M 709.734375 77.609375 L 709.734375 74.609375 L 712.730469 74.609375 L 712.730469 77.609375 M 709.734375 71.613281 L 709.734375 68.617188 L 712.730469 68.617188 L 712.730469 71.613281 M 709.734375 65.621094 L 709.734375 62.621094 L 712.730469 62.621094 L 712.730469 65.621094 M 709.734375 59.625 L 709.734375 56.628906 L 712.730469 56.628906 L 712.730469 59.625 M 709.734375 53.632812 L 709.734375 50.632812 L 712.730469 50.632812 L 712.730469 53.632812 M 709.734375 47.636719 L 709.734375 45.054688 L 712.730469 45.054688 L 712.730469 47.636719 " fill-opacity="1" fill-rule="nonzero"/><g clip-path="url(#3ab7fe72cc)"><path fill="#fcce0b" d="M 711.238281 0.00390625 L 754.042969 0.00390625 L 754.042969 42.8125 L 711.238281 42.8125 Z M 711.238281 0.00390625 " fill-opacity="1" fill-rule="nonzero"/></g><g fill="#000000" fill-opacity="1"><g transform="translate(717.946806, 25.90272)"><g><path d="M 0.453125 0 L 0.453125 -1.40625 L 2.515625 -1.40625 L 2.515625 -6.71875 L 2.375 -6.765625 C 2.082031 -6.617188 1.796875 -6.503906 1.515625 -6.421875 C 1.234375 -6.335938 0.910156 -6.273438 0.546875 -6.234375 L 0.546875 -7.671875 C 1.492188 -7.867188 2.257812 -8.164062 2.84375 -8.5625 L 4.1875 -8.5625 L 4.1875 -1.40625 L 6.03125 -1.40625 L 6.03125 0 Z M 0.453125 0 "/></g></g><g transform="translate(724.262799, 25.90272)"><g><path d="M 1.578125 1.21875 L 0.03125 1.21875 L 3.21875 -9.046875 L 4.765625 -9.046875 Z M 1.578125 1.21875 "/></g></g><g transform="translate(729.291009, 25.90272)"><g><path d="M 5.8125 0 L 4.1875 0 L 4.1875 -1.859375 L 0.296875 -1.859375 L 0.296875 -3.21875 L 3.640625 -8.5625 L 5.8125 -8.5625 L 5.8125 -3.21875 L 7.125 -3.21875 L 7.125 -1.859375 L 5.8125 -1.859375 Z M 2.03125 -3.34375 L 2.078125 -3.21875 L 4.1875 -3.21875 L 4.1875 -6.53125 L 4.0625 -6.5625 Z M 2.03125 -3.34375 "/></g></g><g transform="translate(736.748447, 25.90272)"><g/></g><g transform="translate(739.575717, 25.90272)"><g><path d="M 1.875 0 L 0.140625 0 L 2.6875 -4.40625 L 0.265625 -8.5625 L 2.0625 -8.5625 L 3.84375 -5.484375 L 3.984375 -5.484375 L 5.78125 -8.5625 L 7.5 -8.5625 L 5.078125 -4.40625 L 7.625 0 L 5.828125 0 L 3.921875 -3.296875 L 3.78125 -3.296875 Z M 1.875 0 "/></g></g></g><path fill="#c1ccce" d="M 213.609375 213.222656 L 213.609375 210.226562 L 216.605469 210.226562 L 216.605469 213.222656 M 213.609375 207.230469 L 213.609375 204.230469 L 216.605469 204.230469 L 216.605469 207.230469 M 213.609375 201.234375 L 213.609375 198.238281 L 216.605469 198.238281 L 216.605469 201.234375 M 213.609375 195.242188 L 213.609375 192.242188 L 216.605469 192.242188 L 216.605469 195.242188 M 213.609375 189.246094 L 213.609375 186.25 L 216.605469 186.25 L 216.605469 189.246094 M 213.609375 183.253906 L 213.609375 180.253906 L 216.605469 180.253906 L 216.605469 183.253906 M 213.609375 177.257812 L 213.609375 174.261719 L 216.605469 174.261719 L 216.605469 177.257812 M 213.609375 171.265625 L 213.609375 168.265625 L 216.605469 168.265625 L 216.605469 171.265625 M 213.609375 165.269531 L 213.609375 162.273438 L 216.605469 162.273438 L 216.605469 165.269531 M 213.609375 159.277344 L 213.609375 156.28125 L 216.605469 156.28125 L 216.605469 159.277344 M 213.609375 153.28125 L 213.609375 150.285156 L 216.605469 150.285156 L 216.605469 153.28125 M 213.609375 147.289062 L 213.609375 144.292969 L 216.605469 144.292969 L 216.605469 147.289062 M 213.609375 141.292969 L 213.609375 138.296875 L 216.605469 138.296875 L 216.605469 141.292969 M 213.609375 135.300781 L 213.609375 132.304688 L 216.605469 132.304688 L 216.605469 135.300781 M 213.609375 129.304688 L 213.609375 126.308594 L 216.605469 126.308594 L 216.605469 129.304688 M 213.609375 123.3125 L 213.609375 120.316406 L 216.605469 120.316406 L 216.605469 123.3125 M 213.609375 117.316406 L 213.609375 114.320312 L 216.605469 114.320312 L 216.605469 117.316406 M 213.609375 111.324219 L 213.609375 108.328125 L 216.605469 108.328125 L 216.605469 111.324219 M 213.609375 105.328125 L 213.609375 102.332031 L 216.605469 102.332031 L 216.605469 105.328125 M 213.609375 99.335938 L 213.609375 96.339844 L 216.605469 96.339844 L 216.605469 99.335938 M 213.609375 93.34375 L 213.609375 90.34375 L 216.605469 90.34375 L 216.605469 93.34375 M 213.609375 87.347656 L 213.609375 84.351562 L 216.605469 84.351562 L 216.605469 87.347656 M 213.609375 81.355469 L 213.609375 78.355469 L 216.605469 78.355469 L 216.605469 81.355469 M 213.609375 75.359375 L 213.609375 72.363281 L 216.605469 72.363281 L 216.605469 75.359375 M 213.609375 69.367188 L 213.609375 66.367188 L 216.605469 66.367188 L 216.605469 69.367188 M 213.609375 63.371094 L 213.609375 60.375 L 216.605469 60.375 L 216.605469 63.371094 M 213.609375 57.378906 L 213.609375 54.378906 L 216.605469 54.378906 L 216.605469 57.378906 M 213.609375 51.382812 L 213.609375 48.386719 L 216.605469 48.386719 L 216.605469 51.382812 M 213.609375 45.390625 L 213.609375 42.808594 L 216.605469 42.808594 L 216.605469 45.390625 " fill-opacity="1" fill-rule="nonzero"/><path fill="#c1ccce" d="M 246.574219 213.222656 L 246.574219 210.226562 L 249.574219 210.226562 L 249.574219 213.222656 M 246.574219 207.230469 L 246.574219 204.230469 L 249.574219 204.230469 L 249.574219 207.230469 M 246.574219 201.234375 L 246.574219 198.238281 L 249.574219 198.238281 L 249.574219 201.234375 M 246.574219 195.242188 L 246.574219 192.242188 L 249.574219 192.242188 L 249.574219 195.242188 M 246.574219 189.246094 L 246.574219 186.25 L 249.574219 186.25 L 249.574219 189.246094 M 246.574219 183.253906 L 246.574219 180.253906 L 249.574219 180.253906 L 249.574219 183.253906 M 246.574219 177.257812 L 246.574219 174.261719 L 249.574219 174.261719 L 249.574219 177.257812 M 246.574219 171.265625 L 246.574219 168.265625 L 249.574219 168.265625 L 249.574219 171.265625 M 246.574219 165.269531 L 246.574219 162.273438 L 249.574219 162.273438 L 249.574219 165.269531 M 246.574219 159.277344 L 246.574219 156.28125 L 249.574219 156.28125 L 249.574219 159.277344 M 246.574219 153.28125 L 246.574219 150.285156 L 249.574219 150.285156 L 249.574219 153.28125 M 246.574219 147.289062 L 246.574219 144.292969 L 249.574219 144.292969 L 249.574219 147.289062 M 246.574219 141.292969 L 246.574219 138.296875 L 249.574219 138.296875 L 249.574219 141.292969 M 246.574219 135.300781 L 246.574219 132.304688 L 249.574219 132.304688 L 249.574219 135.300781 M 246.574219 129.304688 L 246.574219 126.308594 L 249.574219 126.308594 L 249.574219 129.304688 M 246.574219 123.3125 L 246.574219 120.316406 L 249.574219 120.316406 L 249.574219 123.3125 M 246.574219 117.316406 L 246.574219 114.320312 L 249.574219 114.320312 L 249.574219 117.316406 M 246.574219 111.324219 L 246.574219 108.328125 L 249.574219 108.328125 L 249.574219 111.324219 M 246.574219 105.328125 L 246.574219 102.332031 L 249.574219 102.332031 L 249.574219 105.328125 M 246.574219 99.335938 L 246.574219 96.339844 L 249.574219 96.339844 L 249.574219 99.335938 M 246.574219 93.34375 L 246.574219 90.34375 L 249.574219 90.34375 L 249.574219 93.34375 M 246.574219 87.347656 L 246.574219 84.351562 L 249.574219 84.351562 L 249.574219 87.347656 M 246.574219 81.355469 L 246.574219 78.355469 L 249.574219 78.355469 L 249.574219 81.355469 M 246.574219 75.359375 L 246.574219 72.363281 L 249.574219 72.363281 L 249.574219 75.359375 M 246.574219 69.367188 L 246.574219 66.367188 L 249.574219 66.367188 L 249.574219 69.367188 M 246.574219 63.371094 L 246.574219 60.375 L 249.574219 60.375 L 249.574219 63.371094 M 246.574219 57.378906 L 246.574219 54.378906 L 249.574219 54.378906 L 249.574219 57.378906 M 246.574219 51.382812 L 246.574219 48.386719 L 249.574219 48.386719 L 249.574219 51.382812 M 246.574219 45.390625 L 246.574219 42.808594 L 249.574219 42.808594 L 249.574219 45.390625 " fill-opacity="1" fill-rule="nonzero"/><g clip-path="url(#c73ce59eb5)"><path fill="#fcce0b" d="M 215.25 112.726562 L 248.078125 112.726562 L 248.078125 145.554688 L 215.25 145.554688 Z M 215.25 112.726562 " fill-opacity="1" fill-rule="nonzero"/></g><g fill="#000000" fill-opacity="1"><g transform="translate(220.440027, 132.589814)"><g><path d="M 0.34375 0 L 0.34375 -1.078125 L 1.921875 -1.078125 L 1.921875 -5.15625 L 1.828125 -5.1875 C 1.597656 -5.070312 1.375 -4.984375 1.15625 -4.921875 C 0.945312 -4.859375 0.703125 -4.8125 0.421875 -4.78125 L 0.421875 -5.890625 C 1.148438 -6.035156 1.738281 -6.257812 2.1875 -6.5625 L 3.21875 -6.5625 L 3.21875 -1.078125 L 4.625 -1.078125 L 4.625 0 Z M 0.34375 0 "/></g></g><g transform="translate(225.283665, 132.589814)"><g><path d="M 1.203125 0.9375 L 0.03125 0.9375 L 2.46875 -6.9375 L 3.65625 -6.9375 Z M 1.203125 0.9375 "/></g></g><g transform="translate(229.139721, 132.589814)"><g><path d="M 2.8125 0.09375 C 2.289062 0.09375 1.847656 0.015625 1.484375 -0.140625 C 1.128906 -0.304688 0.859375 -0.535156 0.671875 -0.828125 C 0.492188 -1.128906 0.40625 -1.488281 0.40625 -1.90625 C 0.40625 -2.28125 0.5 -2.609375 0.6875 -2.890625 C 0.875 -3.171875 1.148438 -3.390625 1.515625 -3.546875 L 1.515625 -3.640625 C 1.253906 -3.796875 1.054688 -3.984375 0.921875 -4.203125 C 0.785156 -4.421875 0.71875 -4.675781 0.71875 -4.96875 C 0.71875 -5.300781 0.796875 -5.59375 0.953125 -5.84375 C 1.117188 -6.101562 1.359375 -6.300781 1.671875 -6.4375 C 1.992188 -6.582031 2.375 -6.65625 2.8125 -6.65625 C 3.25 -6.65625 3.625 -6.582031 3.9375 -6.4375 C 4.257812 -6.300781 4.5 -6.101562 4.65625 -5.84375 C 4.820312 -5.59375 4.90625 -5.300781 4.90625 -4.96875 C 4.90625 -4.675781 4.835938 -4.421875 4.703125 -4.203125 C 4.566406 -3.984375 4.367188 -3.796875 4.109375 -3.640625 L 4.109375 -3.546875 C 4.484375 -3.390625 4.757812 -3.171875 4.9375 -2.890625 C 5.125 -2.609375 5.21875 -2.28125 5.21875 -1.90625 C 5.21875 -1.488281 5.125 -1.128906 4.9375 -0.828125 C 4.757812 -0.535156 4.488281 -0.304688 4.125 -0.140625 C 3.769531 0.015625 3.332031 0.09375 2.8125 0.09375 Z M 2.8125 -4 C 3.070312 -4 3.28125 -4.070312 3.4375 -4.21875 C 3.59375 -4.363281 3.671875 -4.5625 3.671875 -4.8125 C 3.671875 -5.070312 3.59375 -5.273438 3.4375 -5.421875 C 3.28125 -5.566406 3.070312 -5.640625 2.8125 -5.640625 C 2.539062 -5.640625 2.328125 -5.566406 2.171875 -5.421875 C 2.023438 -5.273438 1.953125 -5.070312 1.953125 -4.8125 C 1.953125 -4.5625 2.023438 -4.363281 2.171875 -4.21875 C 2.328125 -4.070312 2.539062 -4 2.8125 -4 Z M 2.8125 -1.015625 C 3.164062 -1.015625 3.4375 -1.097656 3.625 -1.265625 C 3.8125 -1.441406 3.90625 -1.6875 3.90625 -2 C 3.90625 -2.3125 3.8125 -2.554688 3.625 -2.734375 C 3.4375 -2.910156 3.164062 -3 2.8125 -3 C 2.457031 -3 2.179688 -2.910156 1.984375 -2.734375 C 1.796875 -2.554688 1.703125 -2.3125 1.703125 -2 C 1.703125 -1.6875 1.796875 -1.441406 1.984375 -1.265625 C 2.179688 -1.097656 2.457031 -1.015625 2.8125 -1.015625 Z M 2.8125 -1.015625 "/></g></g><g transform="translate(234.768935, 132.589814)"><g/></g><g transform="translate(236.937125, 132.589814)"><g><path d="M 1.4375 0 L 0.109375 0 L 2.046875 -3.375 L 0.203125 -6.5625 L 1.578125 -6.5625 L 2.9375 -4.203125 L 3.0625 -4.203125 L 4.4375 -6.5625 L 5.75 -6.5625 L 3.890625 -3.375 L 5.84375 0 L 4.46875 0 L 3.015625 -2.53125 L 2.890625 -2.53125 Z M 1.4375 0 "/></g></g></g><g clip-path="url(#502e69ec9f)"><path fill="#fcce0b" d="M 1.976562 0.00390625 L 44.785156 0.00390625 L 44.785156 42.8125 L 1.976562 42.8125 Z M 1.976562 0.00390625 " fill-opacity="1" fill-rule="nonzero"/></g><g fill="#000000" fill-opacity="1"><g transform="translate(8.686437, 25.90272)"><g><path d="M 0.453125 0 L 0.453125 -1.40625 L 2.515625 -1.40625 L 2.515625 -6.71875 L 2.375 -6.765625 C 2.082031 -6.617188 1.796875 -6.503906 1.515625 -6.421875 C 1.234375 -6.335938 0.910156 -6.273438 0.546875 -6.234375 L 0.546875 -7.671875 C 1.492188 -7.867188 2.257812 -8.164062 2.84375 -8.5625 L 4.1875 -8.5625 L 4.1875 -1.40625 L 6.03125 -1.40625 L 6.03125 0 Z M 0.453125 0 "/></g></g><g transform="translate(15.00243, 25.90272)"><g><path d="M 1.578125 1.21875 L 0.03125 1.21875 L 3.21875 -9.046875 L 4.765625 -9.046875 Z M 1.578125 1.21875 "/></g></g><g transform="translate(20.03064, 25.90272)"><g><path d="M 5.8125 0 L 4.1875 0 L 4.1875 -1.859375 L 0.296875 -1.859375 L 0.296875 -3.21875 L 3.640625 -8.5625 L 5.8125 -8.5625 L 5.8125 -3.21875 L 7.125 -3.21875 L 7.125 -1.859375 L 5.8125 -1.859375 Z M 2.03125 -3.34375 L 2.078125 -3.21875 L 4.1875 -3.21875 L 4.1875 -6.53125 L 4.0625 -6.5625 Z M 2.03125 -3.34375 "/></g></g><g transform="translate(27.488078, 25.90272)"><g/></g><g transform="translate(30.315348, 25.90272)"><g><path d="M 1.875 0 L 0.140625 0 L 2.6875 -4.40625 L 0.265625 -8.5625 L 2.0625 -8.5625 L 3.84375 -5.484375 L 3.984375 -5.484375 L 5.78125 -8.5625 L 7.5 -8.5625 L 5.078125 -4.40625 L 7.625 0 L 5.828125 0 L 3.921875 -3.296875 L 3.78125 -3.296875 Z M 1.875 0 "/></g></g></g><g clip-path="url(#b983c12287)"><path fill="#fcce0b" d="M 0 215.472656 L 42.808594 215.472656 L 42.808594 258.28125 L 0 258.28125 Z M 0 215.472656 " fill-opacity="1" fill-rule="nonzero"/></g><g fill="#000000" fill-opacity="1"><g transform="translate(6.710231, 241.372856)"><g><path d="M 0.453125 0 L 0.453125 -1.40625 L 2.515625 -1.40625 L 2.515625 -6.71875 L 2.375 -6.765625 C 2.082031 -6.617188 1.796875 -6.503906 1.515625 -6.421875 C 1.234375 -6.335938 0.910156 -6.273438 0.546875 -6.234375 L 0.546875 -7.671875 C 1.492188 -7.867188 2.257812 -8.164062 2.84375 -8.5625 L 4.1875 -8.5625 L 4.1875 -1.40625 L 6.03125 -1.40625 L 6.03125 0 Z M 0.453125 0 "/></g></g><g transform="translate(13.026224, 241.372856)"><g><path d="M 1.578125 1.21875 L 0.03125 1.21875 L 3.21875 -9.046875 L 4.765625 -9.046875 Z M 1.578125 1.21875 "/></g></g><g transform="translate(18.054434, 241.372856)"><g><path d="M 5.8125 0 L 4.1875 0 L 4.1875 -1.859375 L 0.296875 -1.859375 L 0.296875 -3.21875 L 3.640625 -8.5625 L 5.8125 -8.5625 L 5.8125 -3.21875 L 7.125 -3.21875 L 7.125 -1.859375 L 5.8125 -1.859375 Z M 2.03125 -3.34375 L 2.078125 -3.21875 L 4.1875 -3.21875 L 4.1875 -6.53125 L 4.0625 -6.5625 Z M 2.03125 -3.34375 "/></g></g><g transform="translate(25.511871, 241.372856)"><g/></g><g transform="translate(28.339142, 241.372856)"><g><path d="M 1.875 0 L 0.140625 0 L 2.6875 -4.40625 L 0.265625 -8.5625 L 2.0625 -8.5625 L 3.84375 -5.484375 L 3.984375 -5.484375 L 5.78125 -8.5625 L 7.5 -8.5625 L 5.078125 -4.40625 L 7.625 0 L 5.828125 0 L 3.921875 -3.296875 L 3.78125 -3.296875 Z M 1.875 0 "/></g></g></g><g clip-path="url(#38d2919dff)"><path fill="#fcce0b" d="M 711.238281 215.472656 L 754.042969 215.472656 L 754.042969 258.28125 L 711.238281 258.28125 Z M 711.238281 215.472656 " fill-opacity="1" fill-rule="nonzero"/></g><g fill="#000000" fill-opacity="1"><g transform="translate(717.946806, 241.372856)"><g><path d="M 0.453125 0 L 0.453125 -1.40625 L 2.515625 -1.40625 L 2.515625 -6.71875 L 2.375 -6.765625 C 2.082031 -6.617188 1.796875 -6.503906 1.515625 -6.421875 C 1.234375 -6.335938 0.910156 -6.273438 0.546875 -6.234375 L 0.546875 -7.671875 C 1.492188 -7.867188 2.257812 -8.164062 2.84375 -8.5625 L 4.1875 -8.5625 L 4.1875 -1.40625 L 6.03125 -1.40625 L 6.03125 0 Z M 0.453125 0 "/></g></g><g transform="translate(724.262799, 241.372856)"><g><path d="M 1.578125 1.21875 L 0.03125 1.21875 L 3.21875 -9.046875 L 4.765625 -9.046875 Z M 1.578125 1.21875 "/></g></g><g transform="translate(729.291009, 241.372856)"><g><path d="M 5.8125 0 L 4.1875 0 L 4.1875 -1.859375 L 0.296875 -1.859375 L 0.296875 -3.21875 L 3.640625 -8.5625 L 5.8125 -8.5625 L 5.8125 -3.21875 L 7.125 -3.21875 L 7.125 -1.859375 L 5.8125 -1.859375 Z M 2.03125 -3.34375 L 2.078125 -3.21875 L 4.1875 -3.21875 L 4.1875 -6.53125 L 4.0625 -6.5625 Z M 2.03125 -3.34375 "/></g></g><g transform="translate(736.748447, 241.372856)"><g/></g><g transform="translate(739.575717, 241.372856)"><g><path d="M 1.875 0 L 0.140625 0 L 2.6875 -4.40625 L 0.265625 -8.5625 L 2.0625 -8.5625 L 3.84375 -5.484375 L 3.984375 -5.484375 L 5.78125 -8.5625 L 7.5 -8.5625 L 5.078125 -4.40625 L 7.625 0 L 5.828125 0 L 3.921875 -3.296875 L 3.78125 -3.296875 Z M 1.875 0 "/></g></g></g></svg>