<svg xmlns="http://www.w3.org/2000/svg" xmlns:xlink="http://www.w3.org/1999/xlink" width="316" zoomAndPan="magnify" viewBox="0 0 236.87999 231" height="308" preserveAspectRatio="xMidYMid meet" version="1.0"><defs><g/><clipPath id="85a1d20303"><path d="M 33.09375 0.0585938 L 203.59375 0.0585938 L 203.59375 170.554688 L 33.09375 170.554688 Z M 33.09375 0.0585938 " clip-rule="nonzero"/></clipPath><clipPath id="b65f1e48db"><path d="M 118.34375 0.0585938 C 71.261719 0.0585938 33.09375 38.226562 33.09375 85.308594 C 33.09375 132.390625 71.261719 170.554688 118.34375 170.554688 C 165.425781 170.554688 203.59375 132.390625 203.59375 85.308594 C 203.59375 38.226562 165.425781 0.0585938 118.34375 0.0585938 Z M 118.34375 0.0585938 " clip-rule="nonzero"/></clipPath><clipPath id="ca3e6968ed"><path d="M 66.308594 16.398438 L 170.503906 16.398438 L 170.503906 154.332031 L 66.308594 154.332031 Z M 66.308594 16.398438 " clip-rule="nonzero"/></clipPath></defs><g clip-path="url(#85a1d20303)"><g clip-path="url(#b65f1e48db)"><path fill="#fcce0b" d="M 33.09375 0.0585938 L 203.59375 0.0585938 L 203.59375 170.554688 L 33.09375 170.554688 Z M 33.09375 0.0585938 " fill-opacity="1" fill-rule="nonzero"/></g></g><g clip-path="url(#ca3e6968ed)"><path fill="#ffffff" d="M 66.332031 83.75 C 66.332031 76.730469 67.707031 69.917969 70.417969 63.5 C 73.039062 57.308594 76.789062 51.742188 81.566406 46.96875 C 86.34375 42.191406 91.90625 38.441406 98.101562 35.820312 C 104.515625 33.105469 111.328125 31.730469 118.347656 31.730469 C 123.535156 31.730469 128.644531 32.492188 133.554688 33.992188 L 145.898438 17.617188 C 146.664062 16.597656 148.113281 16.394531 149.132812 17.164062 C 150.148438 17.929688 150.355469 19.378906 149.585938 20.398438 L 116.753906 63.945312 C 116.648438 64.085938 116.527344 64.210938 116.398438 64.320312 C 119.671875 68.089844 119.992188 73.773438 116.867188 77.914062 L 110.726562 86.058594 C 107.136719 90.820312 100.347656 91.773438 95.585938 88.183594 C 90.828125 84.59375 89.875 77.804688 93.464844 73.042969 C 93.492188 73.003906 93.519531 72.96875 93.550781 72.933594 C 93.578125 72.898438 93.601562 72.855469 93.632812 72.820312 L 99.601562 64.898438 C 102.726562 60.757812 108.277344 59.5 112.804688 61.609375 C 112.871094 61.457031 112.960938 61.304688 113.066406 61.164062 L 130.757812 37.699219 C 126.730469 36.613281 122.570312 36.066406 118.347656 36.066406 C 92.054688 36.066406 70.664062 57.457031 70.664062 83.75 C 70.664062 98.214844 77.121094 111.734375 88.382812 120.84375 C 89.3125 121.597656 89.457031 122.960938 88.703125 123.890625 C 88.277344 124.421875 87.648438 124.695312 87.019531 124.695312 C 86.539062 124.695312 86.058594 124.539062 85.65625 124.214844 C 73.375 114.28125 66.332031 99.53125 66.332031 83.75 Z M 114.019531 99.921875 C 115.097656 98.488281 116.675781 97.5625 118.457031 97.3125 C 118.773438 97.269531 119.089844 97.246094 119.40625 97.246094 C 120.859375 97.246094 122.261719 97.714844 123.4375 98.601562 C 124.871094 99.679688 125.796875 101.257812 126.046875 103.035156 C 126.296875 104.816406 125.839844 106.585938 124.757812 108.019531 C 123.679688 109.449219 122.105469 110.378906 120.324219 110.628906 C 118.542969 110.878906 116.773438 110.417969 115.339844 109.339844 C 113.910156 108.261719 112.984375 106.6875 112.734375 104.90625 C 112.484375 103.125 112.941406 101.351562 114.019531 99.921875 Z M 163.976562 108.75 C 168.160156 101.125 170.367188 92.5 170.367188 83.75 C 170.367188 66.488281 161.828125 50.386719 147.527344 40.679688 C 146.539062 40.007812 145.191406 40.265625 144.519531 41.253906 C 143.84375 42.246094 144.101562 43.59375 145.09375 44.265625 C 158.207031 53.164062 166.03125 67.925781 166.03125 83.75 C 166.03125 92.003906 163.890625 100.132812 159.839844 107.265625 C 159.601562 107.6875 159.511719 108.175781 159.582031 108.652344 L 164.261719 140.542969 L 137.113281 128.324219 C 136.585938 128.085938 135.988281 128.070312 135.449219 128.277344 C 129.996094 130.371094 124.242188 131.433594 118.347656 131.433594 C 113.167969 131.433594 108.101562 130.617188 103.257812 128.996094 L 114.988281 113.4375 C 117.042969 114.394531 119.375 114.652344 121.613281 114.167969 C 124.054688 113.636719 126.226562 112.25 127.726562 110.257812 L 141.933594 91.410156 C 142.550781 90.59375 142.386719 89.425781 141.570312 88.808594 C 140.75 88.191406 139.585938 88.355469 138.96875 89.175781 L 129.5625 101.648438 C 129.160156 99.867188 128.296875 98.226562 127.058594 96.886719 L 135.082031 86.246094 C 135.695312 85.425781 135.535156 84.257812 134.714844 83.644531 C 134.320312 83.34375 133.832031 83.21875 133.339844 83.285156 C 132.847656 83.355469 132.414062 83.613281 132.113281 84.007812 L 124.089844 94.648438 C 122.460938 93.828125 120.644531 93.449219 118.824219 93.550781 L 128.226562 81.078125 C 128.527344 80.679688 128.652344 80.191406 128.582031 79.699219 C 128.515625 79.210938 128.257812 78.773438 127.863281 78.476562 C 127.464844 78.175781 126.976562 78.050781 126.488281 78.117188 C 125.996094 78.1875 125.558594 78.445312 125.261719 78.839844 L 111.054688 97.683594 C 109.550781 99.675781 108.8125 102.148438 108.976562 104.640625 C 109.125 106.925781 110.015625 109.09375 111.5 110.808594 L 98.5 128.050781 C 98.085938 128.28125 97.742188 128.648438 97.550781 129.121094 C 97.507812 129.226562 97.476562 129.332031 97.453125 129.4375 L 81.667969 150.371094 C 81.253906 150.925781 81.023438 151.574219 81.023438 152.199219 C 81.023438 152.878906 81.304688 153.476562 81.789062 153.84375 C 82.121094 154.09375 82.515625 154.210938 82.929688 154.210938 C 83.71875 154.210938 84.570312 153.78125 85.15625 153.003906 L 100.515625 132.632812 C 106.21875 134.714844 112.207031 135.769531 118.347656 135.769531 C 124.46875 135.769531 130.453125 134.71875 136.148438 132.640625 L 166.089844 146.117188 C 166.375 146.246094 166.679688 146.308594 166.980469 146.308594 C 167.445312 146.308594 167.902344 146.160156 168.285156 145.871094 C 168.917969 145.394531 169.238281 144.609375 169.125 143.824219 L 163.976562 108.75 " fill-opacity="1" fill-rule="nonzero"/></g><g fill="#47210c" fill-opacity="1"><g transform="translate(10.976979, 201.944433)"><g><path d="M 23.40625 0 L 17.515625 0 L 17.515625 -10.0625 L 8.8125 -10.0625 L 8.8125 0 L 2.921875 0 L 2.921875 -22.859375 L 8.8125 -22.859375 L 8.8125 -14.484375 L 17.515625 -14.484375 L 17.515625 -22.859375 L 23.40625 -22.859375 Z M 23.40625 0 "/></g></g></g><g fill="#47210c" fill-opacity="1"><g transform="translate(37.304835, 201.944433)"><g><path d="M 13.359375 0.46875 C 9.671875 0.46875 6.785156 -0.597656 4.703125 -2.734375 C 2.617188 -4.878906 1.578125 -7.773438 1.578125 -11.421875 C 1.578125 -15.085938 2.617188 -17.988281 4.703125 -20.125 C 6.796875 -22.257812 9.679688 -23.328125 13.359375 -23.328125 C 16.992188 -23.328125 19.863281 -22.265625 21.96875 -20.140625 C 24.082031 -18.015625 25.140625 -15.109375 25.140625 -11.421875 C 25.140625 -7.773438 24.097656 -4.878906 22.015625 -2.734375 C 19.929688 -0.597656 17.046875 0.46875 13.359375 0.46875 Z M 19.015625 -11.4375 C 19.015625 -13.882812 18.5 -15.757812 17.46875 -17.0625 C 16.4375 -18.363281 15.070312 -19.015625 13.375 -19.015625 C 11.632812 -19.015625 10.253906 -18.351562 9.234375 -17.03125 C 8.210938 -15.71875 7.703125 -13.847656 7.703125 -11.421875 C 7.703125 -8.992188 8.210938 -7.125 9.234375 -5.8125 C 10.265625 -4.5 11.644531 -3.84375 13.375 -3.84375 C 15.039062 -3.84375 16.394531 -4.484375 17.4375 -5.765625 C 18.488281 -7.054688 19.015625 -8.945312 19.015625 -11.4375 Z M 19.015625 -11.4375 "/></g></g></g><g fill="#47210c" fill-opacity="1"><g transform="translate(64.03183, 201.944433)"><g><path d="M 26.875 0 L 21.015625 0 L 21.015625 -15.296875 L 16.78125 -5.375 L 12.703125 -5.375 L 8.46875 -15.296875 L 8.46875 0 L 2.921875 0 L 2.921875 -22.859375 L 9.765625 -22.859375 L 14.90625 -11.390625 L 20.03125 -22.859375 L 26.875 -22.859375 Z M 26.875 0 "/></g></g></g><g fill="#47210c" fill-opacity="1"><g transform="translate(93.829129, 201.944433)"><g><path d="M 19.453125 0 L 2.921875 0 L 2.921875 -22.859375 L 19.453125 -22.859375 L 19.453125 -18.4375 L 8.78125 -18.4375 L 8.78125 -14.484375 L 18.6875 -14.484375 L 18.6875 -10.0625 L 8.78125 -10.0625 L 8.78125 -4.421875 L 19.453125 -4.421875 Z M 19.453125 0 "/></g></g></g><g fill="#47210c" fill-opacity="1"><g transform="translate(115.305906, 201.944433)"><g><path d="M 8.8125 -7.4375 L 8.8125 0 L 2.921875 0 L 2.921875 -22.859375 L 12.625 -22.859375 C 15.65625 -22.859375 17.9375 -22.226562 19.46875 -20.96875 C 21.007812 -19.707031 21.78125 -17.929688 21.78125 -15.640625 C 21.78125 -13.265625 20.945312 -11.300781 19.28125 -9.75 C 17.613281 -8.207031 15.347656 -7.4375 12.484375 -7.4375 Z M 8.8125 -18.59375 L 8.8125 -11.75 L 10.5 -11.75 C 12.625 -11.75 14.019531 -12.0625 14.6875 -12.6875 C 15.351562 -13.320312 15.6875 -14.257812 15.6875 -15.5 C 15.6875 -16.257812 15.457031 -16.882812 15 -17.375 C 14.539062 -17.875 13.992188 -18.203125 13.359375 -18.359375 C 12.734375 -18.515625 11.554688 -18.59375 9.828125 -18.59375 Z M 8.8125 -18.59375 "/></g></g></g><g fill="#47210c" fill-opacity="1"><g transform="translate(138.348538, 201.944433)"><g><path d="M 19.40625 0 L 2.921875 0 L 2.921875 -22.859375 L 8.8125 -22.859375 L 8.8125 -4.421875 L 19.40625 -4.421875 Z M 19.40625 0 "/></g></g></g><g fill="#47210c" fill-opacity="1"><g transform="translate(158.382272, 201.944433)"><g><path d="M 24.03125 0 L 17.9375 0 L 16.359375 -4.625 L 7.890625 -4.625 L 6.3125 0 L 0.375 0 L 8.8125 -22.859375 L 15.59375 -22.859375 Z M 14.9375 -8.8125 L 12.125 -17.015625 L 9.3125 -8.8125 Z M 14.9375 -8.8125 "/></g></g></g><g fill="#47210c" fill-opacity="1"><g transform="translate(182.791182, 201.944433)"><g><path d="M 20.796875 -18.4375 L 13.65625 -18.4375 L 13.65625 0 L 7.765625 0 L 7.765625 -18.4375 L 0.625 -18.4375 L 0.625 -22.859375 L 20.796875 -22.859375 Z M 20.796875 -18.4375 "/></g></g></g><g fill="#47210c" fill-opacity="1"><g transform="translate(204.221898, 201.944433)"><g><path d="M 19.453125 0 L 2.921875 0 L 2.921875 -22.859375 L 19.453125 -22.859375 L 19.453125 -18.4375 L 8.78125 -18.4375 L 8.78125 -14.484375 L 18.6875 -14.484375 L 18.6875 -10.0625 L 8.78125 -10.0625 L 8.78125 -4.421875 L 19.453125 -4.421875 Z M 19.453125 0 "/></g></g></g><g fill="#47210c" fill-opacity="1"><g transform="translate(46.418982, 221.76187)"><g><path d="M 6.828125 -9.421875 L 2.421875 -9.421875 L 2.421875 -6.421875 L 6.078125 -6.421875 L 6.078125 -5.21875 L 2.421875 -5.21875 L 2.421875 0 L 1.03125 0 L 1.03125 -10.640625 L 6.828125 -10.640625 Z M 6.828125 -9.421875 "/></g></g></g><g fill="#47210c" fill-opacity="1"><g transform="translate(53.436816, 221.76187)"><g><path d="M 8.625 0 L 6.9375 0 L 3.796875 -4.3125 L 2.4375 -4.3125 L 2.4375 0 L 1.03125 0 L 1.03125 -10.640625 L 3.890625 -10.640625 C 4.921875 -10.640625 5.734375 -10.382812 6.328125 -9.875 C 6.921875 -9.363281 7.21875 -8.648438 7.21875 -7.734375 C 7.21875 -6.171875 6.53125 -5.144531 5.15625 -4.65625 Z M 2.4375 -9.4375 L 2.4375 -5.328125 L 3.453125 -5.328125 C 4.984375 -5.328125 5.75 -6.078125 5.75 -7.578125 C 5.75 -8.816406 4.96875 -9.4375 3.40625 -9.4375 Z M 2.4375 -9.4375 "/></g></g></g><g fill="#47210c" fill-opacity="1"><g transform="translate(61.968159, 221.76187)"><g><path d="M 8.890625 -5.3125 C 8.890625 -3.625 8.519531 -2.289062 7.78125 -1.3125 C 7.050781 -0.332031 6.035156 0.15625 4.734375 0.15625 C 3.421875 0.15625 2.398438 -0.332031 1.671875 -1.3125 C 0.953125 -2.289062 0.59375 -3.625 0.59375 -5.3125 C 0.59375 -7 0.960938 -8.332031 1.703125 -9.3125 C 2.441406 -10.289062 3.453125 -10.78125 4.734375 -10.78125 C 6.015625 -10.78125 7.023438 -10.289062 7.765625 -9.3125 C 8.515625 -8.332031 8.890625 -7 8.890625 -5.3125 Z M 4.734375 -9.578125 C 3.890625 -9.578125 3.238281 -9.203125 2.78125 -8.453125 C 2.320312 -7.703125 2.09375 -6.65625 2.09375 -5.3125 C 2.09375 -4 2.328125 -2.957031 2.796875 -2.1875 C 3.265625 -1.414062 3.910156 -1.03125 4.734375 -1.03125 C 5.566406 -1.03125 6.21875 -1.398438 6.6875 -2.140625 C 7.15625 -2.890625 7.390625 -3.941406 7.390625 -5.296875 C 7.390625 -6.640625 7.15625 -7.6875 6.6875 -8.4375 C 6.21875 -9.195312 5.566406 -9.578125 4.734375 -9.578125 Z M 4.734375 -9.578125 "/></g></g></g><g fill="#47210c" fill-opacity="1"><g transform="translate(71.43473, 221.76187)"><g><path d="M 9.78125 0 L 8.421875 0 L 8.421875 -9.0625 L 5.84375 -2.96875 L 4.90625 -2.96875 L 2.328125 -9.0625 L 2.328125 0 L 1.03125 0 L 1.03125 -10.640625 L 2.890625 -10.640625 L 5.40625 -4.515625 L 7.953125 -10.640625 L 9.78125 -10.640625 Z M 9.78125 0 "/></g></g></g><g fill="#47210c" fill-opacity="1"><g transform="translate(82.236337, 221.76187)"><g/></g></g><g fill="#47210c" fill-opacity="1"><g transform="translate(86.626948, 221.76187)"><g><path d="M 8.890625 -5.3125 C 8.890625 -3.625 8.519531 -2.289062 7.78125 -1.3125 C 7.050781 -0.332031 6.035156 0.15625 4.734375 0.15625 C 3.421875 0.15625 2.398438 -0.332031 1.671875 -1.3125 C 0.953125 -2.289062 0.59375 -3.625 0.59375 -5.3125 C 0.59375 -7 0.960938 -8.332031 1.703125 -9.3125 C 2.441406 -10.289062 3.453125 -10.78125 4.734375 -10.78125 C 6.015625 -10.78125 7.023438 -10.289062 7.765625 -9.3125 C 8.515625 -8.332031 8.890625 -7 8.890625 -5.3125 Z M 4.734375 -9.578125 C 3.890625 -9.578125 3.238281 -9.203125 2.78125 -8.453125 C 2.320312 -7.703125 2.09375 -6.65625 2.09375 -5.3125 C 2.09375 -4 2.328125 -2.957031 2.796875 -2.1875 C 3.265625 -1.414062 3.910156 -1.03125 4.734375 -1.03125 C 5.566406 -1.03125 6.21875 -1.398438 6.6875 -2.140625 C 7.15625 -2.890625 7.390625 -3.941406 7.390625 -5.296875 C 7.390625 -6.640625 7.15625 -7.6875 6.6875 -8.4375 C 6.21875 -9.195312 5.566406 -9.578125 4.734375 -9.578125 Z M 4.734375 -9.578125 "/></g></g></g><g fill="#47210c" fill-opacity="1"><g transform="translate(96.093519, 221.76187)"><g><path d="M 8.078125 -3.796875 C 8.078125 -1.140625 6.878906 0.1875 4.484375 0.1875 C 2.140625 0.1875 0.96875 -1.140625 0.96875 -3.796875 L 0.96875 -10.640625 L 2.359375 -10.640625 L 2.359375 -3.6875 C 2.359375 -1.882812 3.070312 -0.984375 4.5 -0.984375 C 5.945312 -0.984375 6.671875 -1.875 6.671875 -3.65625 L 6.671875 -10.640625 L 8.078125 -10.640625 Z M 8.078125 -3.796875 "/></g></g></g><g fill="#47210c" fill-opacity="1"><g transform="translate(105.138884, 221.76187)"><g><path d="M 8.625 0 L 6.9375 0 L 3.796875 -4.3125 L 2.4375 -4.3125 L 2.4375 0 L 1.03125 0 L 1.03125 -10.640625 L 3.890625 -10.640625 C 4.921875 -10.640625 5.734375 -10.382812 6.328125 -9.875 C 6.921875 -9.363281 7.21875 -8.648438 7.21875 -7.734375 C 7.21875 -6.171875 6.53125 -5.144531 5.15625 -4.65625 Z M 2.4375 -9.4375 L 2.4375 -5.328125 L 3.453125 -5.328125 C 4.984375 -5.328125 5.75 -6.078125 5.75 -7.578125 C 5.75 -8.816406 4.96875 -9.4375 3.40625 -9.4375 Z M 2.4375 -9.4375 "/></g></g></g><g fill="#47210c" fill-opacity="1"><g transform="translate(113.670227, 221.76187)"><g><path d="M 0.5625 -0.6875 L 0.5625 -2.109375 L 0.703125 -2.109375 C 1.554688 -1.359375 2.601562 -0.984375 3.84375 -0.984375 C 5.289062 -0.984375 6.015625 -1.609375 6.015625 -2.859375 C 6.015625 -3.335938 5.851562 -3.695312 5.53125 -3.9375 C 5.207031 -4.175781 4.539062 -4.441406 3.53125 -4.734375 C 2.257812 -5.117188 1.445312 -5.546875 1.09375 -6.015625 C 0.75 -6.492188 0.578125 -7.066406 0.578125 -7.734375 C 0.578125 -8.609375 0.878906 -9.332031 1.484375 -9.90625 C 2.097656 -10.488281 2.878906 -10.78125 3.828125 -10.78125 C 4.910156 -10.78125 5.953125 -10.535156 6.953125 -10.046875 L 6.953125 -8.703125 L 6.8125 -8.703125 C 6.03125 -9.328125 5.046875 -9.640625 3.859375 -9.640625 C 3.242188 -9.640625 2.765625 -9.476562 2.421875 -9.15625 C 2.078125 -8.84375 1.90625 -8.425781 1.90625 -7.90625 C 1.90625 -7.40625 2.0625 -7.03125 2.375 -6.78125 C 2.6875 -6.53125 3.3125 -6.265625 4.25 -5.984375 C 5.070312 -5.753906 5.675781 -5.535156 6.0625 -5.328125 C 6.457031 -5.117188 6.769531 -4.820312 7 -4.4375 C 7.238281 -4.0625 7.359375 -3.597656 7.359375 -3.046875 C 7.359375 -2.035156 7.035156 -1.25 6.390625 -0.6875 C 5.753906 -0.125 4.925781 0.15625 3.90625 0.15625 C 2.613281 0.15625 1.5 -0.125 0.5625 -0.6875 Z M 0.5625 -0.6875 "/></g></g></g><g fill="#47210c" fill-opacity="1"><g transform="translate(121.530485, 221.76187)"><g/></g></g><g fill="#47210c" fill-opacity="1"><g transform="translate(125.921096, 221.76187)"><g><path d="M 7.546875 -9.421875 L 4.5 -9.421875 L 4.5 0 L 3.09375 0 L 3.09375 -9.421875 L 0.0625 -9.421875 L 0.0625 -10.640625 L 7.546875 -10.640625 Z M 7.546875 -9.421875 "/></g></g></g><g fill="#47210c" fill-opacity="1"><g transform="translate(133.517198, 221.76187)"><g><path d="M 8.890625 -5.3125 C 8.890625 -3.625 8.519531 -2.289062 7.78125 -1.3125 C 7.050781 -0.332031 6.035156 0.15625 4.734375 0.15625 C 3.421875 0.15625 2.398438 -0.332031 1.671875 -1.3125 C 0.953125 -2.289062 0.59375 -3.625 0.59375 -5.3125 C 0.59375 -7 0.960938 -8.332031 1.703125 -9.3125 C 2.441406 -10.289062 3.453125 -10.78125 4.734375 -10.78125 C 6.015625 -10.78125 7.023438 -10.289062 7.765625 -9.3125 C 8.515625 -8.332031 8.890625 -7 8.890625 -5.3125 Z M 4.734375 -9.578125 C 3.890625 -9.578125 3.238281 -9.203125 2.78125 -8.453125 C 2.320312 -7.703125 2.09375 -6.65625 2.09375 -5.3125 C 2.09375 -4 2.328125 -2.957031 2.796875 -2.1875 C 3.265625 -1.414062 3.910156 -1.03125 4.734375 -1.03125 C 5.566406 -1.03125 6.21875 -1.398438 6.6875 -2.140625 C 7.15625 -2.890625 7.390625 -3.941406 7.390625 -5.296875 C 7.390625 -6.640625 7.15625 -7.6875 6.6875 -8.4375 C 6.21875 -9.195312 5.566406 -9.578125 4.734375 -9.578125 Z M 4.734375 -9.578125 "/></g></g></g><g fill="#47210c" fill-opacity="1"><g transform="translate(142.983769, 221.76187)"><g/></g></g><g fill="#47210c" fill-opacity="1"><g transform="translate(147.37438, 221.76187)"><g><path d="M 8.046875 -10.640625 L 4.6875 -4.703125 L 4.6875 0 L 3.28125 0 L 3.28125 -4.609375 L -0.0625 -10.640625 L 1.4375 -10.640625 C 3.082031 -7.617188 3.929688 -6.003906 3.984375 -5.796875 C 4.023438 -5.984375 4.890625 -7.597656 6.578125 -10.640625 Z M 8.046875 -10.640625 "/></g></g></g><g fill="#47210c" fill-opacity="1"><g transform="translate(155.355999, 221.76187)"><g><path d="M 8.890625 -5.3125 C 8.890625 -3.625 8.519531 -2.289062 7.78125 -1.3125 C 7.050781 -0.332031 6.035156 0.15625 4.734375 0.15625 C 3.421875 0.15625 2.398438 -0.332031 1.671875 -1.3125 C 0.953125 -2.289062 0.59375 -3.625 0.59375 -5.3125 C 0.59375 -7 0.960938 -8.332031 1.703125 -9.3125 C 2.441406 -10.289062 3.453125 -10.78125 4.734375 -10.78125 C 6.015625 -10.78125 7.023438 -10.289062 7.765625 -9.3125 C 8.515625 -8.332031 8.890625 -7 8.890625 -5.3125 Z M 4.734375 -9.578125 C 3.890625 -9.578125 3.238281 -9.203125 2.78125 -8.453125 C 2.320312 -7.703125 2.09375 -6.65625 2.09375 -5.3125 C 2.09375 -4 2.328125 -2.957031 2.796875 -2.1875 C 3.265625 -1.414062 3.910156 -1.03125 4.734375 -1.03125 C 5.566406 -1.03125 6.21875 -1.398438 6.6875 -2.140625 C 7.15625 -2.890625 7.390625 -3.941406 7.390625 -5.296875 C 7.390625 -6.640625 7.15625 -7.6875 6.6875 -8.4375 C 6.21875 -9.195312 5.566406 -9.578125 4.734375 -9.578125 Z M 4.734375 -9.578125 "/></g></g></g><g fill="#47210c" fill-opacity="1"><g transform="translate(164.82257, 221.76187)"><g><path d="M 8.078125 -3.796875 C 8.078125 -1.140625 6.878906 0.1875 4.484375 0.1875 C 2.140625 0.1875 0.96875 -1.140625 0.96875 -3.796875 L 0.96875 -10.640625 L 2.359375 -10.640625 L 2.359375 -3.6875 C 2.359375 -1.882812 3.070312 -0.984375 4.5 -0.984375 C 5.945312 -0.984375 6.671875 -1.875 6.671875 -3.65625 L 6.671875 -10.640625 L 8.078125 -10.640625 Z M 8.078125 -3.796875 "/></g></g></g><g fill="#47210c" fill-opacity="1"><g transform="translate(173.867935, 221.76187)"><g><path d="M 8.625 0 L 6.9375 0 L 3.796875 -4.3125 L 2.4375 -4.3125 L 2.4375 0 L 1.03125 0 L 1.03125 -10.640625 L 3.890625 -10.640625 C 4.921875 -10.640625 5.734375 -10.382812 6.328125 -9.875 C 6.921875 -9.363281 7.21875 -8.648438 7.21875 -7.734375 C 7.21875 -6.171875 6.53125 -5.144531 5.15625 -4.65625 Z M 2.4375 -9.4375 L 2.4375 -5.328125 L 3.453125 -5.328125 C 4.984375 -5.328125 5.75 -6.078125 5.75 -7.578125 C 5.75 -8.816406 4.96875 -9.4375 3.40625 -9.4375 Z M 2.4375 -9.4375 "/></g></g></g><g fill="#47210c" fill-opacity="1"><g transform="translate(182.399278, 221.76187)"><g><path d="M 0.5625 -0.6875 L 0.5625 -2.109375 L 0.703125 -2.109375 C 1.554688 -1.359375 2.601562 -0.984375 3.84375 -0.984375 C 5.289062 -0.984375 6.015625 -1.609375 6.015625 -2.859375 C 6.015625 -3.335938 5.851562 -3.695312 5.53125 -3.9375 C 5.207031 -4.175781 4.539062 -4.441406 3.53125 -4.734375 C 2.257812 -5.117188 1.445312 -5.546875 1.09375 -6.015625 C 0.75 -6.492188 0.578125 -7.066406 0.578125 -7.734375 C 0.578125 -8.609375 0.878906 -9.332031 1.484375 -9.90625 C 2.097656 -10.488281 2.878906 -10.78125 3.828125 -10.78125 C 4.910156 -10.78125 5.953125 -10.535156 6.953125 -10.046875 L 6.953125 -8.703125 L 6.8125 -8.703125 C 6.03125 -9.328125 5.046875 -9.640625 3.859375 -9.640625 C 3.242188 -9.640625 2.765625 -9.476562 2.421875 -9.15625 C 2.078125 -8.84375 1.90625 -8.425781 1.90625 -7.90625 C 1.90625 -7.40625 2.0625 -7.03125 2.375 -6.78125 C 2.6875 -6.53125 3.3125 -6.265625 4.25 -5.984375 C 5.070312 -5.753906 5.675781 -5.535156 6.0625 -5.328125 C 6.457031 -5.117188 6.769531 -4.820312 7 -4.4375 C 7.238281 -4.0625 7.359375 -3.597656 7.359375 -3.046875 C 7.359375 -2.035156 7.035156 -1.25 6.390625 -0.6875 C 5.753906 -0.125 4.925781 0.15625 3.90625 0.15625 C 2.613281 0.15625 1.5 -0.125 0.5625 -0.6875 Z M 0.5625 -0.6875 "/></g></g></g></svg>