<svg width="147" height="58" viewBox="0 0 147 58" fill="none" xmlns="http://www.w3.org/2000/svg">
<rect x="40" y="9" width="40" height="40" rx="20" fill="#FCCE08" fill-opacity="0.6"/>
<path d="M55.3333 33.6667H56.2833L62.8 27.15L61.85 26.2L55.3333 32.7167V33.6667ZM54 35V32.1667L62.8 23.3833C62.9333 23.2611 63.0807 23.1667 63.242 23.1C63.4033 23.0333 63.5727 23 63.75 23C63.9278 23 64.1 23.0333 64.2667 23.1C64.4333 23.1667 64.5778 23.2667 64.7 23.4L65.6167 24.3333C65.75 24.4556 65.8473 24.6 65.9087 24.7667C65.97 24.9333 66.0004 25.1 66 25.2667C66 25.4444 65.9693 25.614 65.908 25.7753C65.8467 25.9367 65.7496 26.0838 65.6167 26.2167L56.8333 35H54ZM62.3167 26.6833L61.85 26.2L62.8 27.15L62.3167 26.6833Z" fill="#344046"/>
<rect x="89" width="58" height="58" rx="29" fill="#C1CCCE"/>
<path d="M109.6 22H127.8C127.852 22.0001 129.2 22.0018 129.2 23.4L127.8 31.8C127.675 32.4874 127.199 33.2 126.49 33.2H112.4L112.533 35.0179C112.63 35.4807 113.04 36 113.508 36H125.849C125.902 36 125.953 36.0076 126.002 36.0217C127.017 36.1686 127.8 37.0446 127.8 38.1C127.8 39.2579 126.858 40.2 125.7 40.2C124.542 40.2 123.6 39.258 123.6 38.1C123.6 37.8547 123.642 37.619 123.72 37.4H115.08C115.158 37.619 115.2 37.8547 115.2 38.1C115.2 39.258 114.258 40.2 113.1 40.2C111.942 40.2 111 39.2579 111 38.1C111 37.4257 111.319 36.8246 111.815 36.4401C111.554 36.0952 111.364 35.6911 111.279 35.2867L110.732 32.6777L106.8 17.8H104.641C104.287 17.8 104 17.4055 104 17.0477C104 16.6899 104.287 16.4 104.641 16.4H107.586C107.881 16.4 108.138 16.6035 108.208 16.8929L109.6 22Z" fill="black"/>
<ellipse cx="15.3334" cy="29.3486" rx="15.3334" ry="15.3486" fill="#D84012"/>
<path d="M18.6 21C17.208 21 15.872 21.7063 15 22.8223C14.128 21.7063 12.792 21 11.4 21C8.936 21 7 23.1101 7 25.7956C7 29.0916 9.72 31.7771 13.84 35.8578L15 37L16.16 35.849C20.28 31.7771 23 29.0916 23 25.7956C23 23.1101 21.064 21 18.6 21ZM15.08 34.5586L15 34.6458L14.92 34.5586C11.112 30.8005 8.6 28.3155 8.6 25.7956C8.6 24.0518 9.8 22.7439 11.4 22.7439C12.632 22.7439 13.832 23.6071 14.256 24.8016H15.752C16.168 23.6071 17.368 22.7439 18.6 22.7439C20.2 22.7439 21.4 24.0518 21.4 25.7956C21.4 28.3155 18.888 30.8005 15.08 34.5586Z" fill="white"/>
</svg>
