<svg width="312" height="48" viewBox="0 0 312 48" fill="none" xmlns="http://www.w3.org/2000/svg">
<rect width="312" height="48" rx="24" fill="#D84012"/>
<path d="M135.265 29.192C134.454 29.192 133.729 29.0533 133.089 28.776C132.449 28.4987 131.947 28.0933 131.585 27.56C131.222 27.0267 131.03 26.3813 131.009 25.624H133.297C133.307 25.9547 133.393 26.2533 133.553 26.52C133.713 26.7867 133.937 27 134.225 27.16C134.513 27.3093 134.854 27.384 135.249 27.384C135.59 27.384 135.883 27.3307 136.129 27.224C136.385 27.1067 136.582 26.9467 136.721 26.744C136.859 26.5413 136.929 26.3013 136.929 26.024C136.929 25.704 136.849 25.4373 136.689 25.224C136.539 25.0107 136.326 24.8293 136.049 24.68C135.771 24.52 135.451 24.3813 135.089 24.264C134.737 24.136 134.363 24.008 133.969 23.88C133.094 23.592 132.422 23.208 131.953 22.728C131.494 22.248 131.265 21.6133 131.265 20.824C131.265 20.152 131.425 19.576 131.745 19.096C132.075 18.616 132.523 18.248 133.089 17.992C133.665 17.736 134.326 17.608 135.073 17.608C135.83 17.608 136.491 17.7413 137.057 18.008C137.633 18.264 138.086 18.6373 138.417 19.128C138.747 19.6187 138.923 20.1947 138.945 20.856H136.625C136.625 20.6107 136.555 20.3813 136.417 20.168C136.289 19.944 136.107 19.768 135.873 19.64C135.638 19.5013 135.361 19.432 135.041 19.432C134.753 19.4213 134.497 19.464 134.273 19.56C134.049 19.656 133.867 19.8 133.729 19.992C133.601 20.1733 133.537 20.4027 133.537 20.68C133.537 20.9467 133.601 21.1707 133.729 21.352C133.857 21.5333 134.038 21.6933 134.273 21.832C134.518 21.96 134.795 22.0827 135.105 22.2C135.425 22.3067 135.771 22.4187 136.145 22.536C136.71 22.728 137.222 22.9573 137.681 23.224C138.15 23.48 138.523 23.816 138.801 24.232C139.078 24.648 139.217 25.1973 139.217 25.88C139.217 26.4667 139.062 27.0107 138.753 27.512C138.454 28.0133 138.011 28.4187 137.425 28.728C136.838 29.0373 136.118 29.192 135.265 29.192ZM141.049 29V20.968H143.209V29H141.049ZM142.137 19.848C141.743 19.848 141.423 19.736 141.177 19.512C140.932 19.2773 140.809 18.984 140.809 18.632C140.809 18.28 140.932 17.992 141.177 17.768C141.423 17.5333 141.743 17.416 142.137 17.416C142.532 17.416 142.852 17.5333 143.097 17.768C143.353 17.992 143.481 18.28 143.481 18.632C143.481 18.984 143.353 19.2773 143.097 19.512C142.852 19.736 142.532 19.848 142.137 19.848ZM148.832 32.712C148.064 32.712 147.392 32.616 146.816 32.424C146.251 32.2427 145.808 31.96 145.488 31.576C145.179 31.2027 145.024 30.7387 145.024 30.184C145.024 29.8107 145.12 29.4587 145.312 29.128C145.504 28.7973 145.782 28.4987 146.144 28.232C146.518 27.9547 146.982 27.72 147.536 27.528L148.352 28.6C147.862 28.76 147.504 28.9573 147.28 29.192C147.067 29.4373 146.96 29.6933 146.96 29.96C146.96 30.2053 147.04 30.4133 147.2 30.584C147.371 30.7547 147.595 30.8773 147.872 30.952C148.16 31.0373 148.48 31.08 148.832 31.08C149.163 31.08 149.456 31.0373 149.712 30.952C149.968 30.8667 150.166 30.7387 150.304 30.568C150.454 30.408 150.528 30.216 150.528 29.992C150.528 29.704 150.427 29.4693 150.224 29.288C150.022 29.1067 149.616 28.9947 149.008 28.952C148.464 28.9093 147.979 28.8507 147.552 28.776C147.136 28.6907 146.768 28.5947 146.448 28.488C146.139 28.3707 145.872 28.248 145.648 28.12C145.424 27.9813 145.243 27.8427 145.104 27.704V27.336L146.816 25.48L148.352 25.976L146.352 27.976L146.976 26.904C147.083 26.9787 147.19 27.048 147.296 27.112C147.414 27.1653 147.558 27.2133 147.728 27.256C147.899 27.2987 148.123 27.3413 148.4 27.384C148.678 27.4267 149.024 27.4693 149.44 27.512C150.155 27.5653 150.736 27.6933 151.184 27.896C151.632 28.0987 151.963 28.3707 152.176 28.712C152.39 29.0533 152.496 29.464 152.496 29.944C152.496 30.424 152.363 30.872 152.096 31.288C151.84 31.7147 151.44 32.056 150.896 32.312C150.363 32.5787 149.675 32.712 148.832 32.712ZM148.848 26.632C148.176 26.632 147.595 26.504 147.104 26.248C146.624 25.9813 146.251 25.6293 145.984 25.192C145.728 24.744 145.6 24.248 145.6 23.704C145.6 23.16 145.728 22.6693 145.984 22.232C146.251 21.7947 146.624 21.4427 147.104 21.176C147.595 20.9093 148.176 20.776 148.848 20.776C149.531 20.776 150.112 20.9093 150.592 21.176C151.083 21.4427 151.456 21.7947 151.712 22.232C151.968 22.6693 152.096 23.16 152.096 23.704C152.096 24.248 151.968 24.744 151.712 25.192C151.456 25.6293 151.083 25.9813 150.592 26.248C150.112 26.504 149.531 26.632 148.848 26.632ZM148.848 24.984C149.264 24.984 149.6 24.8773 149.856 24.664C150.112 24.44 150.24 24.12 150.24 23.704C150.24 23.2987 150.112 22.9893 149.856 22.776C149.6 22.5627 149.264 22.456 148.848 22.456C148.443 22.456 148.107 22.5627 147.84 22.776C147.584 22.9893 147.456 23.2987 147.456 23.704C147.456 24.12 147.584 24.44 147.84 24.664C148.096 24.8773 148.432 24.984 148.848 24.984ZM150.176 22.488L149.824 20.968H153.152V22.248L150.176 22.488ZM154.908 29V20.968H156.812L156.972 22.28C157.217 21.8213 157.564 21.4587 158.012 21.192C158.47 20.9147 159.014 20.776 159.644 20.776C160.316 20.776 160.881 20.9147 161.34 21.192C161.798 21.4693 162.145 21.8747 162.38 22.408C162.625 22.9413 162.748 23.6027 162.748 24.392V29H160.604V24.584C160.604 23.944 160.465 23.4533 160.188 23.112C159.921 22.7707 159.505 22.6 158.94 22.6C158.577 22.6 158.252 22.6853 157.964 22.856C157.686 23.0267 157.468 23.272 157.308 23.592C157.148 23.9013 157.068 24.2853 157.068 24.744V29H154.908ZM168.565 29V17.8H170.725V29H168.565ZM172.892 29V20.968H174.796L174.956 22.28C175.201 21.8213 175.548 21.4587 175.996 21.192C176.455 20.9147 176.999 20.776 177.628 20.776C178.3 20.776 178.865 20.9147 179.324 21.192C179.783 21.4693 180.129 21.8747 180.364 22.408C180.609 22.9413 180.732 23.6027 180.732 24.392V29H178.588V24.584C178.588 23.944 178.449 23.4533 178.172 23.112C177.905 22.7707 177.489 22.6 176.924 22.6C176.561 22.6 176.236 22.6853 175.948 22.856C175.671 23.0267 175.452 23.272 175.292 23.592C175.132 23.9013 175.052 24.2853 175.052 24.744V29H172.892Z" fill="#FCFCFD"/>
</svg>
