<svg width="351" height="56" viewBox="0 0 351 56" fill="none" xmlns="http://www.w3.org/2000/svg">
<g filter="url(#filter0_d_174_3416)">
<rect x="4" width="343" height="48" rx="8" fill="#FCCE08"/>
<path d="M119.796 18.78C120.777 18.78 121.641 18.9347 122.388 19.244C123.145 19.5427 123.801 19.9853 124.356 20.572L123.028 22.348C122.569 21.868 122.073 21.5107 121.54 21.276C121.017 21.0307 120.42 20.908 119.748 20.908C119.353 20.908 119.033 20.9507 118.788 21.036C118.543 21.1213 118.367 21.2387 118.26 21.388C118.153 21.5373 118.1 21.708 118.1 21.9C118.1 22.124 118.201 22.316 118.404 22.476C118.617 22.6253 118.959 22.7533 119.428 22.86L121.204 23.26C122.26 23.5053 123.033 23.8627 123.524 24.332C124.015 24.8013 124.26 25.4253 124.26 26.204C124.26 26.9507 124.068 27.5853 123.684 28.108C123.3 28.62 122.772 29.0093 122.1 29.276C121.428 29.532 120.66 29.66 119.796 29.66C119.092 29.66 118.42 29.5853 117.78 29.436C117.14 29.276 116.564 29.052 116.052 28.764C115.54 28.476 115.108 28.1453 114.756 27.772L116.084 25.932C116.351 26.2413 116.676 26.5187 117.06 26.764C117.455 26.9987 117.881 27.1853 118.34 27.324C118.809 27.4627 119.284 27.532 119.764 27.532C120.137 27.532 120.447 27.4947 120.692 27.42C120.948 27.3453 121.135 27.2333 121.252 27.084C121.369 26.9347 121.428 26.7587 121.428 26.556C121.428 26.332 121.348 26.1453 121.188 25.996C121.028 25.836 120.724 25.7027 120.276 25.596L118.324 25.164C117.727 25.0253 117.193 24.844 116.724 24.62C116.265 24.3853 115.903 24.076 115.636 23.692C115.369 23.2973 115.236 22.8067 115.236 22.22C115.236 21.5587 115.417 20.972 115.78 20.46C116.143 19.9373 116.665 19.5267 117.348 19.228C118.031 18.9293 118.847 18.78 119.796 18.78ZM136.157 18.94V29.5H133.405V18.94H136.157ZM129.373 18.94V29.5H126.621V18.94H129.373ZM134.877 23.116V25.244H127.965V23.116H134.877ZM143.872 18.78C144.938 18.78 145.856 18.9987 146.624 19.436C147.402 19.8627 148 20.4813 148.416 21.292C148.832 22.1027 149.04 23.0787 149.04 24.22C149.04 25.3613 148.832 26.3373 148.416 27.148C148 27.9587 147.402 28.5827 146.624 29.02C145.856 29.4467 144.938 29.66 143.872 29.66C142.805 29.66 141.882 29.4467 141.104 29.02C140.325 28.5827 139.728 27.9587 139.312 27.148C138.896 26.3373 138.688 25.3613 138.688 24.22C138.688 23.0787 138.896 22.1027 139.312 21.292C139.728 20.4813 140.325 19.8627 141.104 19.436C141.882 18.9987 142.805 18.78 143.872 18.78ZM143.872 20.94C143.36 20.94 142.928 21.0627 142.576 21.308C142.224 21.5533 141.957 21.9213 141.776 22.412C141.594 22.892 141.504 23.4947 141.504 24.22C141.504 24.9347 141.594 25.5373 141.776 26.028C141.957 26.5187 142.224 26.8867 142.576 27.132C142.928 27.3773 143.36 27.5 143.872 27.5C144.384 27.5 144.81 27.3773 145.152 27.132C145.504 26.8867 145.77 26.5187 145.952 26.028C146.133 25.5373 146.224 24.9347 146.224 24.22C146.224 23.4947 146.133 22.892 145.952 22.412C145.77 21.9213 145.504 21.5533 145.152 21.308C144.81 21.0627 144.384 20.94 143.872 20.94ZM153.37 29.5L150.33 18.94H153.258L155.05 27.276L156.938 18.94H159.434L161.37 27.26L163.13 18.94H165.962L162.906 29.5L159.914 29.5L158.666 24.38L158.186 21.804H158.154L157.69 24.38L156.458 29.5H153.37ZM177.7 18.94C178.564 18.94 179.3 19.0787 179.908 19.356C180.516 19.6333 180.98 20.0333 181.3 20.556C181.62 21.0787 181.78 21.7133 181.78 22.46C181.78 23.2067 181.62 23.8413 181.3 24.364C180.98 24.8867 180.516 25.2867 179.908 25.564C179.3 25.8413 178.564 25.98 177.7 25.98H175.604V29.5H172.852V18.94H177.7ZM177.268 23.916C177.844 23.916 178.276 23.7987 178.564 23.564C178.863 23.3187 179.012 22.9507 179.012 22.46C179.012 21.9693 178.863 21.6067 178.564 21.372C178.276 21.1267 177.844 21.004 177.268 21.004H175.604V23.916H177.268ZM186.932 27.372H192.228V29.5H184.18V18.94H186.932V27.372ZM204.045 29.5H201.213L200.477 27.116H196.861L196.109 29.5L193.341 29.5L197.053 18.94H200.349L204.045 29.5ZM197.373 25.244H199.965L198.669 20.972L197.373 25.244ZM213.465 18.94V21.068H210.025V29.5H207.273V21.068H203.817V18.94H213.465ZM215.678 29.5V18.94H223.902V21.068H218.43V23.212H222.782V25.212H218.43V27.372H224.11V29.5H215.678ZM230.54 18.78C231.521 18.78 232.385 18.9347 233.132 19.244C233.889 19.5427 234.545 19.9853 235.1 20.572L233.772 22.348C233.313 21.868 232.817 21.5107 232.284 21.276C231.761 21.0307 231.164 20.908 230.492 20.908C230.097 20.908 229.777 20.9507 229.532 21.036C229.286 21.1213 229.11 21.2387 229.004 21.388C228.897 21.5373 228.844 21.708 228.844 21.9C228.844 22.124 228.945 22.316 229.148 22.476C229.361 22.6253 229.702 22.7533 230.172 22.86L231.948 23.26C233.004 23.5053 233.777 23.8627 234.268 24.332C234.758 24.8013 235.004 25.4253 235.004 26.204C235.004 26.9507 234.812 27.5853 234.428 28.108C234.044 28.62 233.516 29.0093 232.844 29.276C232.172 29.532 231.404 29.66 230.54 29.66C229.836 29.66 229.164 29.5853 228.524 29.436C227.884 29.276 227.308 29.052 226.796 28.764C226.284 28.476 225.852 28.1453 225.5 27.772L226.828 25.932C227.094 26.2413 227.42 26.5187 227.804 26.764C228.198 26.9987 228.625 27.1853 229.084 27.324C229.553 27.4627 230.028 27.532 230.508 27.532C230.881 27.532 231.19 27.4947 231.436 27.42C231.692 27.3453 231.878 27.2333 231.996 27.084C232.113 26.9347 232.172 26.7587 232.172 26.556C232.172 26.332 232.092 26.1453 231.932 25.996C231.772 25.836 231.468 25.7027 231.02 25.596L229.068 25.164C228.47 25.0253 227.937 24.844 227.468 24.62C227.009 24.3853 226.646 24.076 226.38 23.692C226.113 23.2973 225.98 22.8067 225.98 22.22C225.98 21.5587 226.161 20.972 226.524 20.46C226.886 19.9373 227.409 19.5267 228.092 19.228C228.774 18.9293 229.59 18.78 230.54 18.78Z" fill="white"/>
</g>
<defs>
<filter id="filter0_d_174_3416" x="0" y="0" width="351" height="56" filterUnits="userSpaceOnUse" color-interpolation-filters="sRGB">
<feFlood flood-opacity="0" result="BackgroundImageFix"/>
<feColorMatrix in="SourceAlpha" type="matrix" values="0 0 0 0 0 0 0 0 0 0 0 0 0 0 0 0 0 0 127 0" result="hardAlpha"/>
<feOffset dy="4"/>
<feGaussianBlur stdDeviation="2"/>
<feComposite in2="hardAlpha" operator="out"/>
<feColorMatrix type="matrix" values="0 0 0 0 0 0 0 0 0 0 0 0 0 0 0 0 0 0 0.25 0"/>
<feBlend mode="normal" in2="BackgroundImageFix" result="effect1_dropShadow_174_3416"/>
<feBlend mode="normal" in="SourceGraphic" in2="effect1_dropShadow_174_3416" result="shape"/>
</filter>
</defs>
</svg>
