<svg width="310" height="40" viewBox="0 0 310 40" fill="none" xmlns="http://www.w3.org/2000/svg">
<rect x="0.5" y="0.5" width="309" height="39" rx="19.5" fill="white"/>
<rect x="0.5" y="0.5" width="309" height="39" rx="19.5" stroke="#C1CCCE"/>
<path d="M101.627 25V15.2H103.517V23.53H107.815V25H101.627ZM112.396 25.168C111.724 25.168 111.117 25.014 110.576 24.706C110.044 24.3887 109.619 23.9547 109.302 23.404C108.994 22.844 108.84 22.2047 108.84 21.486C108.84 20.7487 108.994 20.1047 109.302 19.554C109.619 18.994 110.048 18.56 110.59 18.252C111.131 17.9347 111.738 17.776 112.41 17.776C113.091 17.776 113.698 17.9347 114.23 18.252C114.771 18.56 115.196 18.994 115.504 19.554C115.821 20.1047 115.98 20.744 115.98 21.472C115.98 22.2 115.821 22.844 115.504 23.404C115.196 23.9547 114.771 24.3887 114.23 24.706C113.688 25.014 113.077 25.168 112.396 25.168ZM112.396 23.53C112.713 23.53 112.993 23.4553 113.236 23.306C113.488 23.1567 113.684 22.928 113.824 22.62C113.973 22.312 114.048 21.9293 114.048 21.472C114.048 21.0147 113.973 20.6367 113.824 20.338C113.684 20.03 113.488 19.8013 113.236 19.652C112.993 19.4933 112.718 19.414 112.41 19.414C112.111 19.414 111.836 19.4933 111.584 19.652C111.332 19.8013 111.131 20.03 110.982 20.338C110.842 20.6367 110.772 21.0147 110.772 21.472C110.772 21.9293 110.842 22.312 110.982 22.62C111.131 22.928 111.327 23.1567 111.57 23.306C111.822 23.4553 112.097 23.53 112.396 23.53ZM119.989 25.168C119.401 25.168 118.915 25.0747 118.533 24.888C118.15 24.692 117.865 24.4353 117.679 24.118C117.501 23.7913 117.413 23.432 117.413 23.04C117.413 22.6107 117.52 22.2327 117.735 21.906C117.959 21.5793 118.29 21.3227 118.729 21.136C119.177 20.9493 119.737 20.856 120.409 20.856H122.159C122.159 20.5107 122.112 20.226 122.019 20.002C121.925 19.7687 121.781 19.596 121.585 19.484C121.389 19.372 121.127 19.316 120.801 19.316C120.446 19.316 120.143 19.3953 119.891 19.554C119.648 19.7033 119.499 19.9367 119.443 20.254H117.609C117.655 19.75 117.819 19.316 118.099 18.952C118.388 18.5787 118.766 18.2893 119.233 18.084C119.709 17.8787 120.236 17.776 120.815 17.776C121.477 17.776 122.051 17.888 122.537 18.112C123.022 18.336 123.395 18.658 123.657 19.078C123.918 19.498 124.049 20.016 124.049 20.632V25H122.453L122.243 23.922C122.14 24.1087 122.019 24.2767 121.879 24.426C121.739 24.5753 121.575 24.706 121.389 24.818C121.202 24.93 120.992 25.014 120.759 25.07C120.525 25.1353 120.269 25.168 119.989 25.168ZM120.437 23.712C120.679 23.712 120.894 23.67 121.081 23.586C121.277 23.4927 121.445 23.3713 121.585 23.222C121.725 23.0633 121.832 22.886 121.907 22.69C121.991 22.4847 122.047 22.2653 122.075 22.032V22.018H120.633C120.343 22.018 120.105 22.0553 119.919 22.13C119.741 22.1953 119.611 22.2933 119.527 22.424C119.443 22.5547 119.401 22.704 119.401 22.872C119.401 23.0587 119.443 23.2127 119.527 23.334C119.611 23.4553 119.732 23.5487 119.891 23.614C120.049 23.6793 120.231 23.712 120.437 23.712ZM128.948 25.168C128.304 25.168 127.725 25.0093 127.212 24.692C126.708 24.3747 126.311 23.936 126.022 23.376C125.732 22.816 125.588 22.186 125.588 21.486C125.588 20.7673 125.732 20.1327 126.022 19.582C126.32 19.022 126.726 18.5833 127.24 18.266C127.762 17.9393 128.346 17.776 128.99 17.776C129.494 17.776 129.937 17.8693 130.32 18.056C130.702 18.2427 131.01 18.5087 131.244 18.854V14.92H133.134V25H131.454L131.244 24.034C131.104 24.23 130.926 24.4167 130.712 24.594C130.506 24.7713 130.259 24.9113 129.97 25.014C129.68 25.1167 129.34 25.168 128.948 25.168ZM129.396 23.516C129.769 23.516 130.096 23.432 130.376 23.264C130.665 23.0867 130.889 22.844 131.048 22.536C131.206 22.228 131.286 21.8733 131.286 21.472C131.286 21.0707 131.206 20.716 131.048 20.408C130.889 20.1 130.665 19.862 130.376 19.694C130.096 19.5167 129.769 19.428 129.396 19.428C129.041 19.428 128.719 19.5167 128.43 19.694C128.14 19.862 127.912 20.1 127.744 20.408C127.585 20.716 127.506 21.066 127.506 21.458C127.506 21.8687 127.585 22.228 127.744 22.536C127.912 22.844 128.136 23.0867 128.416 23.264C128.705 23.432 129.032 23.516 129.396 23.516ZM138.28 25V17.944H139.946L140.1 18.882C140.324 18.546 140.618 18.28 140.982 18.084C141.356 17.8787 141.78 17.776 142.256 17.776C142.611 17.776 142.928 17.8227 143.208 17.916C143.488 18.0093 143.736 18.1447 143.95 18.322C144.174 18.4993 144.356 18.7233 144.496 18.994C144.758 18.6113 145.098 18.3127 145.518 18.098C145.938 17.8833 146.396 17.776 146.89 17.776C147.506 17.776 148.02 17.902 148.43 18.154C148.841 18.3967 149.149 18.7513 149.354 19.218C149.569 19.6847 149.676 20.2587 149.676 20.94V25H147.8V21.108C147.8 20.548 147.688 20.1187 147.464 19.82C147.25 19.5213 146.914 19.372 146.456 19.372C146.158 19.372 145.892 19.4467 145.658 19.596C145.425 19.7453 145.243 19.96 145.112 20.24C144.991 20.52 144.93 20.856 144.93 21.248V25H143.04V21.108C143.04 20.548 142.928 20.1187 142.704 19.82C142.48 19.5213 142.135 19.372 141.668 19.372C141.379 19.372 141.118 19.4467 140.884 19.596C140.66 19.7453 140.483 19.96 140.352 20.24C140.231 20.52 140.17 20.856 140.17 21.248V25H138.28ZM154.792 25.168C154.12 25.168 153.513 25.014 152.972 24.706C152.44 24.3887 152.015 23.9547 151.698 23.404C151.39 22.844 151.236 22.2047 151.236 21.486C151.236 20.7487 151.39 20.1047 151.698 19.554C152.015 18.994 152.445 18.56 152.986 18.252C153.527 17.9347 154.134 17.776 154.806 17.776C155.487 17.776 156.094 17.9347 156.626 18.252C157.167 18.56 157.592 18.994 157.9 19.554C158.217 20.1047 158.376 20.744 158.376 21.472C158.376 22.2 158.217 22.844 157.9 23.404C157.592 23.9547 157.167 24.3887 156.626 24.706C156.085 25.014 155.473 25.168 154.792 25.168ZM154.792 23.53C155.109 23.53 155.389 23.4553 155.632 23.306C155.884 23.1567 156.08 22.928 156.22 22.62C156.369 22.312 156.444 21.9293 156.444 21.472C156.444 21.0147 156.369 20.6367 156.22 20.338C156.08 20.03 155.884 19.8013 155.632 19.652C155.389 19.4933 155.114 19.414 154.806 19.414C154.507 19.414 154.232 19.4933 153.98 19.652C153.728 19.8013 153.527 20.03 153.378 20.338C153.238 20.6367 153.168 21.0147 153.168 21.472C153.168 21.9293 153.238 22.312 153.378 22.62C153.527 22.928 153.723 23.1567 153.966 23.306C154.218 23.4553 154.493 23.53 154.792 23.53ZM160.005 25V17.944H161.685L161.867 19.246C162.035 18.938 162.245 18.6767 162.497 18.462C162.758 18.2473 163.052 18.0793 163.379 17.958C163.715 17.8367 164.084 17.776 164.485 17.776V19.778H163.841C163.561 19.778 163.3 19.8107 163.057 19.876C162.824 19.9413 162.618 20.0487 162.441 20.198C162.264 20.338 162.128 20.534 162.035 20.786C161.942 21.038 161.895 21.3553 161.895 21.738V25H160.005ZM169.012 25.168C168.303 25.168 167.673 25.0187 167.122 24.72C166.581 24.412 166.156 23.9873 165.848 23.446C165.55 22.8953 165.4 22.2607 165.4 21.542C165.4 20.8047 165.55 20.156 165.848 19.596C166.156 19.0267 166.581 18.5833 167.122 18.266C167.664 17.9393 168.294 17.776 169.012 17.776C169.712 17.776 170.324 17.93 170.846 18.238C171.369 18.546 171.775 18.9613 172.064 19.484C172.354 20.0067 172.498 20.5993 172.498 21.262C172.498 21.3553 172.498 21.4627 172.498 21.584C172.498 21.696 172.489 21.8127 172.47 21.934H166.744V20.786H170.594C170.566 20.3287 170.403 19.9693 170.104 19.708C169.815 19.4467 169.451 19.316 169.012 19.316C168.695 19.316 168.401 19.3907 168.13 19.54C167.86 19.68 167.645 19.8993 167.486 20.198C167.337 20.4967 167.262 20.8747 167.262 21.332V21.738C167.262 22.1207 167.332 22.4567 167.472 22.746C167.622 23.026 167.827 23.2453 168.088 23.404C168.35 23.5533 168.653 23.628 168.998 23.628C169.344 23.628 169.628 23.5533 169.852 23.404C170.086 23.2547 170.258 23.0633 170.37 22.83H172.302C172.172 23.2687 171.952 23.6653 171.644 24.02C171.336 24.3747 170.958 24.6547 170.51 24.86C170.062 25.0653 169.563 25.168 169.012 25.168ZM178.587 25V17.37L176.851 17.832V16.32L179.399 15.2H180.547V25H178.587ZM186.445 25.168C185.558 25.168 184.793 24.9533 184.149 24.524C183.505 24.0947 183.01 23.502 182.665 22.746C182.329 21.9807 182.161 21.0987 182.161 20.1C182.161 19.1013 182.329 18.224 182.665 17.468C183.01 16.7027 183.5 16.1053 184.135 15.676C184.779 15.2467 185.549 15.032 186.445 15.032C187.341 15.032 188.106 15.2467 188.741 15.676C189.385 16.1053 189.875 16.7027 190.211 17.468C190.556 18.224 190.729 19.1013 190.729 20.1C190.729 21.0987 190.556 21.9807 190.211 22.746C189.875 23.502 189.385 24.0947 188.741 24.524C188.106 24.9533 187.341 25.168 186.445 25.168ZM186.445 23.474C186.911 23.474 187.322 23.3387 187.677 23.068C188.031 22.788 188.307 22.396 188.503 21.892C188.708 21.388 188.811 20.7907 188.811 20.1C188.811 19.4 188.708 18.8027 188.503 18.308C188.307 17.804 188.031 17.4167 187.677 17.146C187.322 16.8753 186.911 16.74 186.445 16.74C185.978 16.74 185.567 16.8753 185.213 17.146C184.858 17.4167 184.578 17.804 184.373 18.308C184.177 18.8027 184.079 19.4 184.079 20.1C184.079 20.7907 184.177 21.388 184.373 21.892C184.578 22.396 184.858 22.788 185.213 23.068C185.567 23.3387 185.978 23.474 186.445 23.474ZM196.302 25.168C195.415 25.168 194.65 24.9533 194.006 24.524C193.362 24.0947 192.867 23.502 192.522 22.746C192.186 21.9807 192.018 21.0987 192.018 20.1C192.018 19.1013 192.186 18.224 192.522 17.468C192.867 16.7027 193.357 16.1053 193.992 15.676C194.636 15.2467 195.406 15.032 196.302 15.032C197.198 15.032 197.963 15.2467 198.598 15.676C199.242 16.1053 199.732 16.7027 200.068 17.468C200.413 18.224 200.586 19.1013 200.586 20.1C200.586 21.0987 200.413 21.9807 200.068 22.746C199.732 23.502 199.242 24.0947 198.598 24.524C197.963 24.9533 197.198 25.168 196.302 25.168ZM196.302 23.474C196.769 23.474 197.179 23.3387 197.534 23.068C197.889 22.788 198.164 22.396 198.36 21.892C198.565 21.388 198.668 20.7907 198.668 20.1C198.668 19.4 198.565 18.8027 198.36 18.308C198.164 17.804 197.889 17.4167 197.534 17.146C197.179 16.8753 196.769 16.74 196.302 16.74C195.835 16.74 195.425 16.8753 195.07 17.146C194.715 17.4167 194.435 17.804 194.23 18.308C194.034 18.8027 193.936 19.4 193.936 20.1C193.936 20.7907 194.034 21.388 194.23 21.892C194.435 22.396 194.715 22.788 195.07 23.068C195.425 23.3387 195.835 23.474 196.302 23.474ZM204.479 24.146V17.762H206.089V24.146H204.479ZM201.861 21.738V20.156H208.693V21.738H201.861Z" fill="#442A00"/>
</svg>
