<svg width="403" height="83" viewBox="0 0 403 83" fill="none" xmlns="http://www.w3.org/2000/svg">
<rect width="403" height="83" fill="#442A00"/>
<g filter="url(#filter0_d_173_3376)">
<path d="M52.6128 38.9051L42.2549 29.1057C41.8963 28.7552 41.4702 28.4771 41.0011 28.2874C40.532 28.0977 40.0291 28 39.5212 28C39.0133 28 38.5104 28.0977 38.0413 28.2874C37.5722 28.4771 37.1461 28.7552 36.7875 29.1057L26.4296 38.9051C26.2981 39.0245 26.1924 39.1684 26.1187 39.3282C26.045 39.488 26.0047 39.6606 26.0004 39.8358C25.996 40.0109 26.0277 40.1852 26.0933 40.3483C26.159 40.5114 26.2574 40.6601 26.3828 40.7856C26.5083 40.9111 26.6582 41.011 26.8237 41.0793C26.9893 41.1476 27.1671 41.183 27.3469 41.1834C27.5267 41.1838 27.7047 41.1492 27.8706 41.0816C28.0364 41.0141 28.1868 40.9149 28.3128 40.7899L28.7212 40.4018V50.3689C28.7212 51.0668 29.0057 51.7362 29.512 52.2297C30.0184 52.7232 30.7051 53.0005 31.4212 53.0005H34.1212C34.8373 53.0005 35.524 52.7232 36.0304 52.2297C36.5367 51.7362 36.8212 51.0668 36.8212 50.3689V47.7373C36.8212 47.3883 36.9635 47.0537 37.2166 46.8069C37.4698 46.5601 37.8132 46.4215 38.1712 46.4215H40.8712C41.2292 46.4215 41.5726 46.5601 41.8258 46.8069C42.0789 47.0537 42.2212 47.3883 42.2212 47.7373V50.3689C42.2212 51.0668 42.5057 51.7362 43.012 52.2297C43.5184 52.7232 44.2051 53.0005 44.9212 53.0005H47.6212C48.3373 53.0005 49.024 52.7232 49.5304 52.2297C50.0367 51.7362 50.3212 51.0668 50.3212 50.3689V40.4018L50.7296 40.7899C50.8556 40.9149 51.006 41.0141 51.1718 41.0816C51.3377 41.1492 51.5157 41.1838 51.6955 41.1834C51.8753 41.183 52.0531 41.1476 52.2187 41.0793C52.3842 41.011 52.5341 40.9111 52.6596 40.7856C52.785 40.6601 52.8834 40.5114 52.9491 40.3483C53.0147 40.1852 53.0464 40.0109 53.042 39.8358C53.0377 39.6606 52.9974 39.488 52.9237 39.3282C52.85 39.1684 52.7443 39.0245 52.6128 38.9051Z" fill="#FCCE08"/>
</g>
<g clip-path="url(#clip0_173_3376)">
<path d="M135.487 33.5749C134.661 31.4187 132.64 28.7138 129.666 28.1721C126.692 27.6305 124.339 29.4082 123.046 30.6895C121.746 29.3631 119.357 27.5645 116.406 28.0957C112.633 28.7902 110.881 32.8596 110.582 33.6513C108.736 38.4603 111.525 44.2798 119.1 51.4395C120.178 52.4338 121.554 52.9809 122.978 52.9809C124.401 52.9809 125.777 52.4338 126.855 51.4395C134.509 44.2312 137.333 38.3805 135.487 33.5749Z" fill="white"/>
</g>
<g clip-path="url(#clip1_173_3376)">
<path d="M209.688 53.0002L215.243 53.0002C216.778 53.0002 218.021 51.7566 218.021 50.2225L218.021 44.6669C218.021 43.1328 216.778 41.8891 215.243 41.8891L209.688 41.8891C208.154 41.8891 206.91 43.1328 206.91 44.6669L206.91 50.2225C206.91 51.7566 208.154 53.0002 209.688 53.0002Z" fill="white"/>
<path d="M209.688 39.1113L215.243 39.1113C216.778 39.1113 218.021 37.8677 218.021 36.3336L218.021 30.778C218.021 29.2439 216.778 28.0002 215.243 28.0002L209.688 28.0002C208.154 28.0002 206.91 29.2439 206.91 30.778L206.91 36.3336C206.91 37.8677 208.154 39.1113 209.688 39.1113Z" fill="white"/>
<path d="M195.799 39.1113L201.355 39.1113C202.889 39.1113 204.132 37.8677 204.132 36.3336L204.132 30.778C204.132 29.2439 202.889 28.0002 201.355 28.0002L195.799 28.0002C194.265 28.0002 193.021 29.2439 193.021 30.778L193.021 36.3336C193.021 37.8677 194.265 39.1113 195.799 39.1113Z" fill="white"/>
<path d="M198.577 41.8891C195.509 41.8891 193.021 44.3764 193.021 47.4447C193.021 50.5129 195.509 53.0002 198.577 53.0002C201.645 53.0002 204.132 50.5129 204.132 47.4447C204.132 44.3764 201.645 41.8891 198.577 41.8891Z" fill="white"/>
</g>
<mask id="mask0_173_3376" style="mask-type:alpha" maskUnits="userSpaceOnUse" x="276" y="29" width="23" height="23">
<path d="M287.511 29.0419C293.838 29.0419 298.968 34.1712 298.968 40.4989C298.968 46.8265 293.838 51.9558 287.511 51.9558C285.657 51.9583 283.831 51.5092 282.19 50.6474L277.275 51.9272C277.111 51.9699 276.938 51.969 276.775 51.9246C276.611 51.8801 276.461 51.7936 276.341 51.6737C276.221 51.5538 276.135 51.4045 276.09 51.2408C276.046 51.077 276.044 50.9045 276.087 50.7402L277.366 45.8263C276.502 44.1836 276.051 42.355 276.054 40.4989C276.054 34.1712 281.183 29.0419 287.511 29.0419Z" fill="#006FFD"/>
</mask>
<g mask="url(#mask0_173_3376)">
<rect x="275.011" y="28.0002" width="25" height="25" fill="white"/>
</g>
<g clip-path="url(#clip2_173_3376)">
<path d="M366.5 39.1114C369.498 39.1114 371.929 36.624 371.929 33.5558C371.929 30.4876 369.498 28.0002 366.5 28.0002C363.502 28.0002 361.071 30.4876 361.071 33.5558C361.071 36.624 363.502 39.1114 366.5 39.1114Z" fill="white"/>
<path d="M376 47.4447V48.8336C376 49.9386 375.571 50.9985 374.808 51.7799C374.044 52.5613 373.008 53.0002 371.929 53.0002H361.071C359.992 53.0002 358.956 52.5613 358.192 51.7799C357.429 50.9985 357 49.9386 357 48.8336V47.4447C357 45.6029 357.715 43.8366 358.987 42.5342C360.26 41.2319 361.986 40.5002 363.786 40.5002H369.214C371.014 40.5002 372.74 41.2319 374.013 42.5342C375.285 43.8366 376 45.6029 376 47.4447V47.4447Z" fill="white"/>
</g>
<defs>
<filter id="filter0_d_173_3376" x="22" y="28" width="35.0424" height="33.0005" filterUnits="userSpaceOnUse" color-interpolation-filters="sRGB">
<feFlood flood-opacity="0" result="BackgroundImageFix"/>
<feColorMatrix in="SourceAlpha" type="matrix" values="0 0 0 0 0 0 0 0 0 0 0 0 0 0 0 0 0 0 127 0" result="hardAlpha"/>
<feOffset dy="4"/>
<feGaussianBlur stdDeviation="2"/>
<feComposite in2="hardAlpha" operator="out"/>
<feColorMatrix type="matrix" values="0 0 0 0 0 0 0 0 0 0 0 0 0 0 0 0 0 0 0.25 0"/>
<feBlend mode="normal" in2="BackgroundImageFix" result="effect1_dropShadow_173_3376"/>
<feBlend mode="normal" in="SourceGraphic" in2="effect1_dropShadow_173_3376" result="shape"/>
</filter>
<clipPath id="clip0_173_3376">
<rect width="26" height="25" fill="white" transform="translate(110.032 28.0002)"/>
</clipPath>
<clipPath id="clip1_173_3376">
<rect width="25" height="25" fill="white" transform="translate(218.021 53.0002) rotate(180)"/>
</clipPath>
<clipPath id="clip2_173_3376">
<rect width="19" height="25" fill="white" transform="translate(357 28.0002)"/>
</clipPath>
</defs>
</svg>
